<?xml version="1.0" encoding="UTF-8"?>
<svg id="Layer_2" data-name="Layer 2" xmlns="http://www.w3.org/2000/svg" viewBox="0 0 10 10">
  <defs>
    <style>
      .cls-1 {
        fill: #3d3935;
      }
    </style>
  </defs>
  <g id="Layer_1-2" data-name="Layer 1">
    <g>
      <path class="cls-1" d="M5,0C2.24,0,0,2.24,0,5s2.24,5,5,5,5-2.24,5-5S7.76,0,5,0ZM5,9.1c-2.26,0-4.1-1.84-4.1-4.1S2.74.9,5,.9s4.1,1.84,4.1,4.1-1.84,4.1-4.1,4.1Z"/>
      <path class="cls-1" d="M5,3.84c-.35,0-.63.28-.63.63v3.27c0,.35.28.63.63.63s.63-.28.63-.63v-3.27c0-.35-.28-.63-.63-.63Z"/>
      <path class="cls-1" d="M5.44,2.16c-.05-.06-.12-.11-.2-.13-.16-.06-.33-.06-.48,0-.07.03-.14.07-.21.13-.05.06-.1.13-.13.21-.03.07-.05.15-.05.23,0,.09.02.17.05.24.04.08.08.14.13.21.06.06.13.11.21.13.08.04.16.05.24.05s.16-.02.24-.05c.07-.03.14-.07.2-.13.06-.06.11-.12.14-.21.03-.07.04-.15.04-.24,0-.08-.02-.16-.04-.23-.04-.08-.08-.14-.14-.21Z"/>
    </g>
  </g>
</svg>