<?xml version="1.0" encoding="UTF-8"?>
<svg xmlns="http://www.w3.org/2000/svg" viewBox="0 0 66 66">
  <defs>
    <style>
      .cls-1 {
        fill: #53d491;
      }

      .cls-2 {
        isolation: isolate;
      }

      .cls-3 {
        fill: #fff;
      }

      .cls-4 {
        fill: #315951;
        mix-blend-mode: multiply;
        opacity: .4;
      }

      .cls-5 {
        fill: #15423b;
      }
    </style>
  </defs>
  <g class="cls-2">
    <g id="Layer_2" data-name="Layer 2">
      <g id="Layer_1-2" data-name="Layer 1">
        <g>
          <path class="cls-1" d="M33,66C14.8,66,0,51.2,0,33S14.8,0,33,0s33,14.8,33,33-14.8,33-33,33Z"/>
          <circle cx="33" cy="33" r="30"/>
          <g>
            <path class="cls-1" d="M32.76,46.06c-1.53,1.72-3.67,2.71-5.97,2.82-2.3.11-4.51-.69-6.2-2.25-3.46-3.18-3.71-8.6-.56-12.09l5.94-6.56,12.65,11.62-5.85,6.47Z"/>
            <path class="cls-3" d="M45.97,31.46l-5.94,6.56-12.65-11.62,5.85-6.47s.03-.03.04-.05c1.54-1.68,3.65-2.66,5.93-2.77,2.3-.11,4.51.69,6.2,2.25,3.46,3.18,3.71,8.6.56,12.09Z"/>
            <path class="cls-4" d="M40.41,15.04l3.38,3.1c3.45,3.17,3.68,8.54.51,12l-12.71,13.84c-3.17,3.45-8.54,3.68-12,.51l-3.86-3.54c.16,2.67,1.31,5.29,3.43,7.23,2.12,1.94,4.86,2.94,7.73,2.81,2.84-.13,5.46-1.36,7.39-3.45.02-.02.04-.04.05-.06l13.21-14.6c3.93-4.34,3.62-11.1-.7-15.06-1.79-1.65-4.04-2.61-6.43-2.78Z"/>
            <path class="cls-5" d="M39.11,15.01c-2.87.13-5.5,1.41-7.44,3.51l-13.21,14.59c-3.93,4.34-3.62,11.1.7,15.06,2.12,1.94,4.86,2.94,7.73,2.81,2.84-.13,5.46-1.36,7.39-3.45.02-.02.04-.04.05-.06l13.21-14.6c3.93-4.34,3.62-11.1-.7-15.06-2.12-1.94-4.86-2.94-7.73-2.81ZM32.76,46.06c-1.53,1.72-3.67,2.71-5.97,2.82-2.3.11-4.51-.69-6.2-2.25-3.46-3.18-3.71-8.6-.56-12.09l5.94-6.56,12.65,11.62-5.85,6.47ZM45.97,31.46l-5.94,6.56-12.65-11.62,5.85-6.47s.03-.03.04-.05c1.54-1.68,3.65-2.66,5.93-2.77,2.3-.11,4.51.69,6.2,2.25,3.46,3.18,3.71,8.6.56,12.09Z"/>
            <g>
              <path class="cls-3" d="M21.59,42.48s-.1.08-.16.1c-.19.05-.38-.05-.44-.24-.25-.87-.3-1.8-.13-2.69.04-.19.22-.32.41-.28s.32.22.28.41c-.14.78-.1,1.6.12,2.36.04.12,0,.25-.08.34Z"/>
              <path class="cls-3" d="M23.14,44.98c-.13.14-.35.15-.5.02-.29-.26-.55-.55-.78-.87-.11-.16-.08-.38.08-.49.16-.11.38-.08.49.08.2.28.43.53.68.76.14.13.15.35.02.5Z"/>
              <path class="cls-3" d="M22.1,38.24c-.11.12-.29.15-.44.07-.17-.1-.23-.31-.13-.48.21-.37.47-.72.76-1.04.13-.14.35-.15.5-.02s.15.35.02.5c-.26.28-.48.59-.67.92-.01.02-.03.04-.05.06Z"/>
            </g>
          </g>
        </g>
      </g>
    </g>
  </g>
</svg>