<?xml version="1.0" encoding="UTF-8"?>
<svg id="Layer_2" data-name="Layer 2" xmlns="http://www.w3.org/2000/svg" viewBox="0 0 14.46 13.9">
  <defs>
    <style>
      .cls-1 {
        fill: #665f59;
      }
    </style>
  </defs>
  <g id="Layer_1-2" data-name="Layer 1">
    <path class="cls-1" d="M4.73,3.19l1.46-2.57c.47-.82,1.64-.83,2.12-.01l1.55,2.65c.17.3.47.51.8.58l2.82.6c.91.19,1.28,1.28.68,1.99l-1.98,2.34c-.21.25-.31.56-.29.88l.22,2.94c.07.91-.86,1.58-1.7,1.22l-2.72-1.15c-.3-.13-.63-.13-.93-.01l-2.85,1.13c-.86.34-1.78-.36-1.67-1.28l.34-2.87c.04-.34-.07-.68-.29-.95L.3,6.35c-.62-.71-.23-1.83.69-2l2.91-.56c.35-.07.66-.29.83-.6Z"/>
  </g>
</svg>