<?xml version="1.0" encoding="UTF-8"?>
<svg id="Layer_2" data-name="Layer 2" xmlns="http://www.w3.org/2000/svg" xmlns:xlink="http://www.w3.org/1999/xlink" viewBox="0 0 66 66">
  <defs>
    <style>
      .cls-1 {
        fill: url(#Adsız_degrade_5-4);
      }

      .cls-2 {
        fill: url(#Adsız_degrade_5-5);
      }

      .cls-3 {
        fill: url(#Adsız_degrade_5-2);
      }

      .cls-4 {
        fill: url(#Adsız_degrade_5-3);
      }

      .cls-5 {
        fill: url(#Adsız_degrade_5);
      }
    </style>
    <linearGradient id="Adsız_degrade_5" data-name="Adsız degrade 5" x1="54.89" y1="11.11" x2="10.46" y2="55.54" gradientUnits="userSpaceOnUse">
      <stop offset="0" stop-color="#b124f1"/>
      <stop offset=".49" stop-color="#4671f5"/>
      <stop offset=".49" stop-color="#4672f4"/>
      <stop offset="1" stop-color="#76c1bc"/>
    </linearGradient>
    <linearGradient id="Adsız_degrade_5-2" data-name="Adsız degrade 5" x1="-191.06" y1="2026.13" x2="-227.65" y2="2011.57" gradientTransform="translate(242.34 2051.86) scale(1 -1)" xlink:href="#Adsız_degrade_5"/>
    <linearGradient id="Adsız_degrade_5-3" data-name="Adsız degrade 5" x1="-191.76" y1="2027.88" x2="-228.35" y2="2013.33" gradientTransform="translate(242.34 2051.86) scale(1 -1)" xlink:href="#Adsız_degrade_5"/>
    <linearGradient id="Adsız_degrade_5-4" data-name="Adsız degrade 5" x1="-188.11" y1="2018.72" x2="-224.71" y2="2004.17" gradientTransform="translate(242.34 2051.86) scale(1 -1)" xlink:href="#Adsız_degrade_5"/>
    <linearGradient id="Adsız_degrade_5-5" data-name="Adsız degrade 5" x1="-192.03" y1="2028.57" x2="-228.62" y2="2014.02" gradientTransform="translate(242.34 2051.86) scale(1 -1)" xlink:href="#Adsız_degrade_5"/>
  </defs>
  <g id="Layer_1-2" data-name="Layer 1">
    <g>
      <path class="cls-5" d="M33,66C14.8,66,0,51.2,0,33S14.8,0,33,0s33,14.8,33,33-14.8,33-33,33Z"/>
      <circle cx="33" cy="33" r="30"/>
      <g>
        <path class="cls-3" d="M48.43,28.01v13.95l-15.43,8.96-15.44-8.96v-17.92l15.44-8.96,11.86,6.89,1.79-1.04-13.65-7.93-17.23,10v20l17.23,10,17.23-10v-16.02l-1.8,1.04Z"/>
        <path class="cls-4" d="M28.68,41.97h-2.58v-8.7h8.61c.81,0,1.59-.34,2.17-.92.57-.58.9-1.37.9-2.18,0-.4-.07-.81-.23-1.18-.16-.37-.39-.71-.68-.99-.28-.29-.62-.52-.99-.68-.37-.16-.77-.24-1.17-.23h-8.61v-2.65h8.61c1.51,0,2.95.62,4.02,1.69,1.07,1.07,1.67,2.52,1.68,4.04,0,1.16-.34,2.3-1.01,3.24-.61.91-1.47,1.62-2.48,2.04-1,.32-2.04.48-3.08.47h-5.16v6.06Z"/>
        <path class="cls-1" d="M40.35,41.75h-3.01l-2.32-4.08c.92-.06,1.83-.24,2.69-.55l2.64,4.63Z"/>
        <path class="cls-2" d="M46.63,25.11l1.78,1,1.78-1v-2.1l-1.78-1.04-1.78,1.04v2.1Z"/>
      </g>
    </g>
  </g>
</svg>