<?xml version="1.0" encoding="UTF-8"?>
<svg id="Layer_2" data-name="Layer 2" xmlns="http://www.w3.org/2000/svg" viewBox="0 0 8.65 9">
  <defs>
    <style>
      .cls-1 {
        fill: #b2a18f;
      }
    </style>
  </defs>
  <g id="Layer_1-2" data-name="Layer 1">
    <path class="cls-1" d="M5.85,0c-.72.03-1.37.35-1.86.88L.69,4.53c-.98,1.09-.9,2.78.17,3.77.53.49,1.22.74,1.93.7.71-.03,1.37-.34,1.85-.86,0,0,0,0,.01-.01l3.3-3.65c.98-1.09.9-2.78-.17-3.77C7.26.22,6.57-.03,5.85,0ZM4.26,7.76c-.38.43-.92.68-1.49.7-.58.03-1.13-.17-1.55-.56-.87-.79-.93-2.15-.14-3.02l1.48-1.64,3.16,2.9-1.46,1.62ZM4.26,7.76c-.38.43-.92.68-1.49.7-.58.03-1.13-.17-1.55-.56-.87-.79-.93-2.15-.14-3.02l1.48-1.64,3.16,2.9-1.46,1.62ZM7.57,4.12l-1.48,1.64-3.16-2.9,1.46-1.62s0,0,.01-.01c.39-.42.91-.67,1.48-.69.58-.03,1.13.17,1.55.56.87.79.93,2.15.14,3.02Z"/>
  </g>
</svg>