<?xml version="1.0" encoding="UTF-8"?>
<svg id="Layer_2" data-name="Layer 2" xmlns="http://www.w3.org/2000/svg" xmlns:xlink="http://www.w3.org/1999/xlink" viewBox="0 0 11.03 12.6">
  <defs>
    <style>
      .cls-1 {
        fill: url(#New_Gradient_Swatch_3);
      }
    </style>
    <linearGradient id="New_Gradient_Swatch_3" data-name="New Gradient Swatch 3" x1="14.76" y1="-87.82" x2="14.76" y2="-75.93" gradientTransform="translate(2.68 89.81) rotate(-8)" gradientUnits="userSpaceOnUse">
      <stop offset="0" stop-color="#2b95e4"/>
      <stop offset=".03" stop-color="#2ba5e5"/>
      <stop offset=".11" stop-color="#2bccea"/>
      <stop offset=".19" stop-color="#2be8ed"/>
      <stop offset=".25" stop-color="#2bf9ef"/>
      <stop offset=".3" stop-color="#2bfff0"/>
      <stop offset=".53" stop-color="#2bffbc"/>
      <stop offset=".81" stop-color="#2bff81"/>
      <stop offset="1" stop-color="#18c074"/>
    </linearGradient>
  </defs>
  <g id="Layer_1-2" data-name="Layer 1">
    <path class="cls-1" d="M10.9.07c-.15-.11-.36-.08-.47.06l-.8,1.05c-.91.12-1.79.38-2.62.78-1.16.56-2.2,1.39-3.04,2.49-.23.3-.43.61-.61.93l-1.33-.19c-.18-.03-.36.05-.47.19L.1,7.29c-.11.14-.13.33-.06.49.07.16.22.28.39.31l1.94.28h0l.22.17-.1.29,2.25,1.69.24-.16.22.17.79,1.79c.07.16.22.27.4.3.18.02.35-.05.46-.19l1.45-1.91c.11-.14.13-.34.06-.5l-.54-1.23c.26-.26.5-.54.73-.84.83-1.09,1.35-2.33,1.58-3.59.16-.91.18-1.83.05-2.74l.8-1.05c.11-.15.08-.36-.06-.47ZM7.97,5.95c-.41.54-1.18.64-1.72.23s-.64-1.18-.23-1.72c.41-.54,1.18-.64,1.72-.23.54.41.64,1.18.23,1.72ZM1.96,8.89s.31.98,1.11,1.59,1.83.64,1.83.64c-.48.38-2.41.88-2.79.6-.38-.29-.41-2.24-.16-2.83Z"/>
  </g>
</svg>