<?xml version="1.0" encoding="UTF-8"?>
<svg id="Layer_2" data-name="Layer 2" xmlns="http://www.w3.org/2000/svg" viewBox="0 0 10.21 8">
  <defs>
    <style>
      .cls-1 {
        fill: #fff;
      }
    </style>
  </defs>
  <g id="Layer_1-2" data-name="Layer 1">
    <g>
      <path class="cls-1" d="M1.66,6.11c.06-.06.15-.1.24-.1h8.15c.15,0,.22.18.12.28l-1.61,1.61c-.06.06-.15.1-.24.1H.17c-.15,0-.22-.18-.12-.28l1.61-1.61Z"/>
      <path class="cls-1" d="M1.66.1c.06-.06.15-.1.24-.1h8.15c.15,0,.22.18.12.28l-1.61,1.61c-.06.06-.15.1-.24.1H.17c-.15,0-.22-.18-.12-.28L1.66.1Z"/>
      <path class="cls-1" d="M8.55,3.08c-.06-.06-.15-.1-.24-.1H.17c-.15,0-.22.18-.12.28l1.61,1.61c.06.06.15.1.24.1h8.15c.15,0,.22-.18.12-.28l-1.61-1.61h0Z"/>
    </g>
  </g>
</svg>