<?xml version="1.0" encoding="UTF-8"?>
<svg id="Layer_2" data-name="Layer 2" xmlns="http://www.w3.org/2000/svg" viewBox="0 0 10.81 10.46">
  <defs>
    <style>
      .cls-1 {
        fill: none;
        stroke: #665f59;
        stroke-miterlimit: 10;
      }
    </style>
  </defs>
  <g id="Layer_1-2" data-name="Layer 1">
    <path class="cls-1" d="M3.68,2.32l.68-1.2c.47-.82,1.64-.83,2.12-.01l.74,1.26c.17.3.47.51.8.58l1.32.28c.91.19,1.28,1.28.68,1.99l-.96,1.14c-.21.25-.31.56-.29.88l.11,1.42c.07.91-.86,1.58-1.7,1.22l-1.31-.55c-.3-.13-.63-.13-.93-.01l-1.38.55c-.86.34-1.78-.36-1.67-1.28l.16-1.34c.04-.34-.07-.68-.29-.95l-.96-1.1c-.62-.71-.23-1.83.69-2l1.35-.26c.35-.07.66-.29.83-.6Z"/>
  </g>
</svg>