<?xml version="1.0" encoding="UTF-8"?>
<svg id="Layer_2" data-name="Layer 2" xmlns="http://www.w3.org/2000/svg" viewBox="0 0 7.73 9">
  <defs>
    <style>
      .cls-1 {
        fill: #3d3935;
      }
    </style>
  </defs>
  <g id="Layer_1-2" data-name="Layer 1">
    <path class="cls-1" d="M7.4,3.31c-.19-.01-.36.14-.37.34,0,0,0,.01,0,.02-.01.32-.49.31-.5,0,0-.12-.01-.25-.03-.39-.01-.39-.12-.78-.29-1.12-.08-.15,0-.34.15-.41.31-.15.55-.44.63-.79.03-.14-.07-.26-.21-.26h-.33c-.11,0-.19-.1-.17-.21.02-.13.02-.24,0-.33-.01-.1-.11-.17-.22-.15l-2.79.71c-.98.19-1.81.92-2.09,1.93-.13.45-.13.91-.03,1.33.07.31-.11.45-.37.27-.06-.04-.09-.11-.12-.18-.07-.19-.29-.28-.47-.2-.17.08-.24.28-.18.46.21.56.72.88,1.33,1.09.26.09.68.39.79,1.11.11.7-.46,1.61-1.04,1.77h0c-.14.05-.23.07-.27.08-.27.08-.28.48.04.54.77.16,1.87.09,2.86-.44,1-.51,1.9-1.47,2.36-2.62h0c.14-.34.41-.61.75-.75.11-.05.22-.11.33-.19.35-.27.53-.69.56-1.24,0-.19-.14-.36-.34-.37ZM2.14,2.46c-.05-.21.08-.42.29-.47l.82-.19c.21-.05.42.08.47.29.12.51-.14,1.01-.57,1.11s-.88-.23-1-.74ZM5.7,4.68c-.3.16-3.08.16-3.38,0-.35-.13.21-1.46,1.69-1.48,1.48.01,2.03,1.35,1.69,1.48ZM4.87,3.2c-.44-.1-.69-.6-.57-1.11.05-.21.26-.34.47-.29l.82.19c.21.05.34.26.29.47-.12.51-.57.84-1,.74Z"/>
  </g>
</svg>