<?xml version="1.0" encoding="UTF-8"?>
<svg id="Layer_2" data-name="Layer 2" xmlns="http://www.w3.org/2000/svg" xmlns:xlink="http://www.w3.org/1999/xlink" viewBox="0 0 89 18.01">
  <defs>
    <style>
      .cls-1 {
        fill: url(#New_Gradient_Swatch_1-2);
      }

      .cls-2 {
        fill: #ff8000;
        font-family: Inter-SemiBold, Inter;
        font-size: 14px;
        font-variation-settings: 'wght' 600, 'slnt' 0;
        font-weight: 600;
      }

      .cls-3 {
        fill: url(#New_Gradient_Swatch_1);
      }
    </style>
    <linearGradient id="New_Gradient_Swatch_1" data-name="New Gradient Swatch 1" x1="8.09" y1="13" x2="8.09" y2="0" gradientUnits="userSpaceOnUse">
      <stop offset="0" stop-color="#ffc700"/>
      <stop offset=".08" stop-color="#ffaf00"/>
      <stop offset=".17" stop-color="#ff9e00"/>
      <stop offset=".23" stop-color="#f90"/>
      <stop offset=".53" stop-color="#ff8000"/>
      <stop offset=".89" stop-color="#ff5900"/>
      <stop offset="1" stop-color="#d94c00"/>
    </linearGradient>
    <linearGradient id="New_Gradient_Swatch_1-2" data-name="New Gradient Swatch 1" x1="8.09" y1="14.91" x2="8.09" y2="5.74" xlink:href="#New_Gradient_Swatch_1"/>
  </defs>
  <g id="Layer_1-2" data-name="Layer 1">
    <g>
      <g>
        <path class="cls-3" d="M12.07,5.66l-2.79.11,2.05-4.49c.41-.89-.69-1.7-1.42-1.05L3.53,5.87c-.59.52-.2,1.5.59,1.47l2.79-.11-2.05,4.49c-.41.89.69,1.7,1.42,1.05l6.38-5.64c.59-.52.2-1.5-.59-1.47Z"/>
        <path class="cls-1" d="M12.82,14.91H3.36c-.81,0-1.5-.55-1.69-1.34L.01,6.36c-.06-.27.11-.54.38-.6.27-.06.54.11.6.38l1.66,7.21c.08.33.37.57.71.57h9.46c.34,0,.63-.23.71-.57l1.66-7.21c.06-.27.33-.44.6-.38.27.06.44.33.38.6l-1.66,7.21c-.18.79-.88,1.34-1.69,1.34Z"/>
      </g>
      <text class="cls-2" transform="translate(20.67 13.54)"><tspan x="0" y="0">Quick Buy</tspan></text>
    </g>
  </g>
</svg>