<?xml version="1.0" encoding="UTF-8"?>
<svg xmlns="http://www.w3.org/2000/svg" viewBox="0 0 14.41 15">
  <defs>
    <style>
      .cls-1 {
        fill: #53d491;
      }

      .cls-2 {
        isolation: isolate;
      }

      .cls-3 {
        fill: #fff;
      }

      .cls-4 {
        fill: #315951;
        mix-blend-mode: multiply;
        opacity: .4;
      }

      .cls-5 {
        fill: #15423b;
      }
    </style>
  </defs>
  <g class="cls-2">
    <g id="Layer_2" data-name="Layer 2">
      <g id="Layer_1-2" data-name="Layer 1">
        <g>
          <path class="cls-1" d="M7.11,12.94c-.64.71-1.53,1.13-2.49,1.17-.96.04-1.88-.29-2.59-.94-1.44-1.32-1.55-3.58-.23-5.04l2.47-2.73,5.27,4.84-2.44,2.69Z"/>
          <path class="cls-3" d="M12.61,6.86l-2.47,2.73-5.27-4.84,2.44-2.69s.01-.01.02-.02c.64-.7,1.52-1.11,2.47-1.15.96-.04,1.88.29,2.59.94,1.44,1.32,1.55,3.58.23,5.04Z"/>
          <path class="cls-4" d="M10.29.02l1.41,1.29c1.44,1.32,1.53,3.56.21,5l-5.3,5.77c-1.32,1.44-3.56,1.53-5,.21L.01,10.81c.07,1.11.55,2.2,1.43,3.01s2.03,1.23,3.22,1.17c1.18-.05,2.28-.57,3.08-1.44,0,0,.01-.02.02-.02l5.5-6.08c1.64-1.81,1.51-4.63-.29-6.28C12.23.49,11.29.09,10.29.02Z"/>
          <path class="cls-5" d="M9.75,0c-1.2.06-2.29.59-3.1,1.46L1.15,7.55c-1.64,1.81-1.51,4.63.29,6.28.88.81,2.03,1.23,3.22,1.17,1.18-.05,2.28-.57,3.08-1.44,0,0,.01-.02.02-.02l5.5-6.08c1.64-1.81,1.51-4.63-.29-6.28C12.09.37,10.95-.05,9.75,0ZM7.11,12.94c-.64.71-1.53,1.13-2.49,1.17-.96.04-1.88-.29-2.59-.94-1.44-1.32-1.55-3.58-.23-5.04l2.47-2.73,5.27,4.84-2.44,2.69ZM12.61,6.86l-2.47,2.73-5.27-4.84,2.44-2.69s.01-.01.02-.02c.64-.7,1.52-1.11,2.47-1.15.96-.04,1.88.29,2.59.94,1.44,1.32,1.55,3.58.23,5.04Z"/>
          <g>
            <path class="cls-3" d="M2.45,11.45s-.04.03-.07.04c-.08.02-.16-.02-.18-.1-.1-.36-.12-.75-.06-1.12.02-.08.09-.13.17-.12s.13.09.12.17c-.06.33-.04.67.05.98.01.05,0,.1-.03.14Z"/>
            <path class="cls-3" d="M3.1,12.49c-.05.06-.15.06-.21,0-.12-.11-.23-.23-.32-.36-.05-.07-.03-.16.03-.21.07-.05.16-.03.21.03.08.12.18.22.28.32.06.05.06.15,0,.21Z"/>
            <path class="cls-3" d="M2.66,9.68s-.12.06-.18.03c-.07-.04-.09-.13-.05-.2.09-.16.2-.3.32-.43.05-.06.15-.06.21,0s.06.15,0,.21c-.11.12-.2.25-.28.38,0,0-.01.02-.02.03Z"/>
          </g>
        </g>
      </g>
    </g>
  </g>
</svg>