<?xml version="1.0" encoding="UTF-8"?>
<svg id="Layer_2" data-name="Layer 2" xmlns="http://www.w3.org/2000/svg" viewBox="0 0 11.4 10.27">
  <defs>
    <style>
      .cls-1 {
        fill: #ffc700;
      }
    </style>
  </defs>
  <g id="Layer_1-2" data-name="Layer 1">
    <g>
      <path class="cls-1" d="M11.19,8.02L7,.75c-.27-.47-.76-.75-1.3-.75s-1.03.28-1.3.75L.2,8.02c-.27.47-.27,1.03,0,1.5s.76.75,1.3.75h8.39c.54,0,1.03-.28,1.3-.75.27-.47.27-1.03,0-1.5ZM10.33,9.02c-.04.08-.17.25-.43.25H1.5c-.26,0-.39-.17-.43-.25-.04-.08-.13-.27,0-.5L5.27,1.25c.13-.23.35-.25.43-.25s.3.02.43.25l4.2,7.27c.13.23.04.42,0,.5Z"/>
      <path class="cls-1" d="M5.7,2.52c-.35,0-.63.28-.63.63v3.27c0,.35.28.63.63.63s.63-.28.63-.63v-3.27c0-.35-.28-.63-.63-.63Z"/>
      <path class="cls-1" d="M6.14,7.84c-.06-.06-.13-.11-.21-.13-.08-.04-.16-.05-.24-.05s-.16.02-.24.05c-.07.03-.14.07-.2.13-.06.06-.11.12-.14.21-.03.07-.04.15-.04.24,0,.08.02.16.04.23.04.08.08.14.14.21.05.06.12.11.2.13.16.06.33.06.48,0,.07-.03.14-.07.21-.13.05-.06.1-.13.13-.21.03-.07.05-.15.05-.23,0-.09-.02-.17-.05-.24-.04-.08-.08-.14-.13-.21Z"/>
    </g>
  </g>
</svg>