<?xml version="1.0" encoding="UTF-8"?>
<svg id="Layer_2" data-name="Layer 2" xmlns="http://www.w3.org/2000/svg" viewBox="0 0 66 66">
  <defs>
    <style>
      .cls-1 {
        fill: #defd52;
      }
    </style>
  </defs>
  <g id="Layer_1-2" data-name="Layer 1">
    <g>
      <path class="cls-1" d="M33,66C14.8,66,0,51.2,0,33S14.8,0,33,0s33,14.8,33,33-14.8,33-33,33Z"/>
      <circle cx="33" cy="33" r="30"/>
      <g>
        <path class="cls-1" d="M32.24,34.87c-4.29-4.4-4.86-11.06-1.81-16.18.51-.86-.29-1.91-1.26-1.64-7,1.9-12.14,8.2-12.14,15.68,0,8.99,7.42,16.27,16.56,16.27,6.85,0,12.74-4.09,15.25-9.93.4-.93-.56-1.89-1.48-1.46-5.03,2.3-11.12,1.38-15.14-2.75h0Z"/>
        <path class="cls-1" d="M47.41,27.72h0c-2.33-1.37-3.12-4.36-1.75-6.7h0c.33-.56.14-1.29-.42-1.62-.56-.33-1.29-.14-1.62.42h0c-1.37,2.33-4.36,3.12-6.7,1.75h0c-.56-.33-1.29-.14-1.62.42-.33.56-.14,1.29.42,1.62h0c2.33,1.37,3.12,4.36,1.75,6.7h0c-.33.56-.14,1.29.42,1.62.19.11.39.16.6.16.41,0,.8-.21,1.02-.59h0c1.37-2.33,4.36-3.12,6.7-1.75h0c.19.11.39.16.6.16.41,0,.8-.21,1.02-.59.33-.56.14-1.29-.42-1.62h0Z"/>
      </g>
    </g>
  </g>
</svg>