<?xml version="1.0" encoding="UTF-8"?>
<svg id="Layer_2" data-name="Layer 2" xmlns="http://www.w3.org/2000/svg" viewBox="0 0 24 24">
  <defs>
    <style>
      .cls-1 {
        fill: #181616;
      }

      .cls-2 {
        fill: #b2a18f;
      }
    </style>
  </defs>
  <g id="Layer_1-2" data-name="Layer 1">
    <g>
      <rect class="cls-1" x="0" y="0" width="24" height="24" rx="4" ry="4"/>
      <path class="cls-2" d="M16.83,13.28s.02-.07.03-.11c.02-.09.04-.19.06-.28.01-.07.02-.14.03-.21,0-.07.02-.14.03-.21.01-.15.02-.3.02-.46s0-.31-.02-.46c0-.07-.02-.14-.03-.21,0-.07-.02-.14-.03-.21-.02-.09-.04-.19-.06-.28,0-.04-.02-.07-.03-.11-.03-.11-.06-.22-.1-.32,0,0,0,0,0,0h0c-.64-1.88-2.36-3.25-4.42-3.38h0c-.1,0-.21-.02-.31-.02s-.21,0-.31.02h0c-2.06.13-3.78,1.5-4.42,3.38h0s0,0,0,0c-.04.11-.07.21-.1.32,0,.04-.02.07-.03.11-.02.09-.04.19-.06.28-.01.07-.02.14-.03.21,0,.07-.02.14-.03.21-.01.15-.02.3-.02.46s0,.31.02.46c0,.07.02.14.03.21,0,.07.02.14.03.21.02.1.04.19.06.28,0,.04.02.07.03.11.54,2.04,2.34,3.57,4.52,3.71h0c.1,0,.21.02.31.02s.21,0,.31-.02h0c2.18-.13,3.98-1.66,4.52-3.71ZM15.45,14.31c-.03.05-.07.1-.11.15-.04.06-.08.12-.13.17-.04.05-.08.09-.12.13-.05.05-.1.11-.15.16-.04.04-.09.08-.13.12-.05.05-.1.1-.16.15-.05.04-.1.07-.14.11-.06.04-.11.09-.17.13-.05.03-.1.07-.16.1-.06.04-.12.08-.18.11-.05.03-.11.06-.17.08-.06.03-.13.06-.19.09-.06.02-.12.05-.18.07-.07.03-.13.05-.2.07-.06.02-.12.03-.19.05,0,0-.01,0-.02,0,.41-.62.73-1.31.93-2.05.6-.05,1.18-.11,1.77-.2,0,0,0,0,0,0-.03.07-.06.14-.1.2-.03.05-.06.1-.09.15-.04.06-.07.13-.11.19ZM10.73,15.96c-.07-.02-.13-.05-.2-.07-.06-.02-.12-.04-.18-.07-.07-.03-.13-.06-.19-.09-.06-.03-.11-.05-.17-.08-.06-.03-.12-.07-.18-.11-.05-.03-.11-.06-.16-.1-.06-.04-.11-.08-.17-.13-.05-.04-.1-.07-.15-.11-.05-.05-.11-.1-.16-.14-.04-.04-.09-.08-.13-.12-.05-.05-.1-.11-.15-.16-.04-.05-.08-.09-.12-.14-.05-.06-.09-.12-.13-.17-.04-.05-.07-.1-.11-.15-.04-.06-.08-.13-.11-.19-.03-.05-.06-.1-.09-.15-.04-.07-.07-.14-.1-.2,0,0,0,0,0,0,.58.09,1.17.15,1.77.2.21.74.52,1.42.93,2.05,0,0-.01,0-.02,0-.06-.02-.13-.03-.19-.05ZM8.43,9.88c.04-.06.07-.13.12-.19.03-.05.07-.1.11-.14.04-.06.09-.12.13-.18.04-.05.08-.09.12-.13.05-.05.1-.11.15-.16.04-.04.09-.08.13-.12.05-.05.1-.1.16-.15.05-.04.1-.07.15-.11.06-.04.11-.09.17-.13.05-.03.1-.07.16-.1.06-.04.12-.08.18-.11.05-.03.11-.06.17-.08.06-.03.13-.06.19-.09.06-.02.12-.05.18-.07.07-.03.13-.05.2-.07.06-.02.12-.03.19-.05,0,0,.01,0,.02,0-.41.62-.73,1.31-.93,2.05-.6.05-1.18.11-1.77.2.03-.07.06-.14.1-.2.03-.05.06-.1.09-.15ZM13.27,8.04c.07.02.14.05.2.07.06.02.12.04.18.07.07.03.13.06.19.09.06.03.11.05.17.08.06.03.12.07.18.11.05.03.1.06.15.1.06.04.12.09.17.13.05.04.1.07.14.11.06.05.11.1.16.15.04.04.09.08.13.12.05.05.1.11.15.16.04.04.08.09.12.13.05.06.09.12.13.18.03.05.07.09.1.14.04.06.08.13.12.19.03.05.06.1.09.15.04.07.07.14.1.2-.58-.09-1.17-.15-1.77-.2-.21-.74-.52-1.42-.93-2.05,0,0,.01,0,.02,0,.06.02.12.03.19.05ZM16.06,12.87c-.63.11-1.26.18-1.89.24.06-.36.09-.73.09-1.11s-.04-.75-.09-1.11c.63.06,1.26.14,1.89.24.06.29.09.58.09.87s-.03.58-.09.87ZM12,13.21c-.44,0-.87-.02-1.31-.04-.07-.38-.11-.77-.11-1.17s.04-.79.11-1.17c.44-.02.88-.04,1.31-.04s.87.02,1.31.04c.07.38.11.77.11,1.17s-.04.79-.11,1.17c-.44.02-.88.04-1.31.04ZM13.09,14.03c-.24.73-.61,1.41-1.09,2.02-.48-.61-.85-1.29-1.09-2.02.36.02.73.03,1.09.03s.73-.01,1.09-.03ZM10.91,9.97c.24-.73.61-1.41,1.09-2.02.48.61.85,1.29,1.09,2.02-.36-.02-.73-.03-1.09-.03s-.73.01-1.09.03ZM7.94,11.13c.63-.11,1.26-.18,1.89-.24-.06.36-.09.73-.09,1.11s.04.75.09,1.11c-.63-.06-1.26-.14-1.89-.24-.06-.29-.09-.58-.09-.87s.03-.58.09-.87Z"/>
    </g>
  </g>
</svg>