<?xml version="1.0" encoding="UTF-8"?>
<svg id="Layer_2" data-name="Layer 2" xmlns="http://www.w3.org/2000/svg" xmlns:xlink="http://www.w3.org/1999/xlink" viewBox="0 0 10.9 10.98">
  <defs>
    <style>
      .cls-1 {
        stroke: url(#New_Gradient_Swatch_2);
        stroke-miterlimit: 10;
      }

      .cls-1, .cls-2, .cls-3, .cls-4, .cls-5 {
        fill: none;
        stroke-width: .6px;
      }

      .cls-2 {
        stroke: url(#New_Gradient_Swatch_2-5);
      }

      .cls-2, .cls-3, .cls-4, .cls-5 {
        stroke-linecap: round;
        stroke-linejoin: round;
      }

      .cls-3 {
        stroke: url(#New_Gradient_Swatch_2-2);
      }

      .cls-4 {
        stroke: url(#New_Gradient_Swatch_2-4);
      }

      .cls-5 {
        stroke: url(#New_Gradient_Swatch_2-3);
      }
    </style>
    <linearGradient id="New_Gradient_Swatch_2" data-name="New Gradient Swatch 2" x1="0" y1="6.73" x2="8.49" y2="6.73" gradientUnits="userSpaceOnUse">
      <stop offset="0" stop-color="#ff5ce4"/>
      <stop offset=".08" stop-color="#ee46e4"/>
      <stop offset=".16" stop-color="#e135e4"/>
      <stop offset=".23" stop-color="#dd30e4"/>
      <stop offset=".53" stop-color="#a330e4"/>
      <stop offset=".89" stop-color="#870ff7"/>
      <stop offset="1" stop-color="#6000cf"/>
    </linearGradient>
    <linearGradient id="New_Gradient_Swatch_2-2" data-name="New Gradient Swatch 2" x1="5.69" y1="1.63" x2="8.94" y2="1.63" xlink:href="#New_Gradient_Swatch_2"/>
    <linearGradient id="New_Gradient_Swatch_2-3" data-name="New Gradient Swatch 2" x1="-8.88" y1="-14.21" x2="-5.62" y2="-14.21" gradientTransform="translate(21.53 -5.62) rotate(-90)" xlink:href="#New_Gradient_Swatch_2"/>
    <linearGradient id="New_Gradient_Swatch_2-4" data-name="New Gradient Swatch 2" x1="8.34" y1="4.17" x2="10.9" y2="4.17" xlink:href="#New_Gradient_Swatch_2"/>
    <linearGradient id="New_Gradient_Swatch_2-5" data-name="New Gradient Swatch 2" x1="-11.07" y1="-11.9" x2="-8.51" y2="-11.9" gradientTransform="translate(21.53 -5.62) rotate(-90)" xlink:href="#New_Gradient_Swatch_2"/>
  </defs>
  <g id="Layer_1-2" data-name="Layer 1">
    <g>
      <path class="cls-1" d="M3.31,4.45l.24-1.1c.16-.74,1.22-.74,1.38,0l.24,1.1c.15.68.68,1.21,1.36,1.36l1.1.24c.74.16.74,1.22,0,1.38l-1.1.24c-.68.15-1.21.68-1.36,1.36l-.24,1.1c-.16.74-1.22.74-1.38,0l-.24-1.1c-.15-.68-.68-1.21-1.36-1.36l-1.1-.24c-.74-.16-.74-1.22,0-1.38l1.1-.24c.68-.15,1.21-.68,1.36-1.36Z"/>
      <g>
        <line class="cls-3" x1="5.99" y1="1.63" x2="8.64" y2="1.63"/>
        <line class="cls-5" x1="7.31" y1="2.96" x2="7.31" y2=".3"/>
      </g>
      <g>
        <line class="cls-4" x1="8.64" y1="4.17" x2="10.6" y2="4.17"/>
        <line class="cls-2" x1="9.62" y1="5.15" x2="9.62" y2="3.19"/>
      </g>
    </g>
  </g>
</svg>