<?xml version="1.0" encoding="UTF-8"?>
<svg id="Layer_2" data-name="Layer 2" xmlns="http://www.w3.org/2000/svg" viewBox="0 0 6.13 4.8">
  <defs>
    <style>
      .cls-1 {
        fill: #665f59;
      }
    </style>
  </defs>
  <g id="Layer_1-2" data-name="Layer 1">
    <g>
      <path class="cls-1" d="M1,3.66s.09-.06.14-.06h4.89c.09,0,.13.11.07.17l-.97.97s-.09.06-.14.06H.1c-.09,0-.13-.11-.07-.17l.97-.97Z"/>
      <path class="cls-1" d="M1,.06s.09-.06.14-.06h4.89c.09,0,.13.11.07.17l-.97.97s-.09.06-.14.06H.1c-.09,0-.13-.11-.07-.17L1,.06Z"/>
      <path class="cls-1" d="M5.13,1.85s-.09-.06-.14-.06H.1c-.09,0-.13.11-.07.17l.97.97s.09.06.14.06h4.89c.09,0,.13-.11.07-.17l-.97-.97h0Z"/>
    </g>
  </g>
</svg>