<?xml version="1.0" encoding="UTF-8"?>
<svg id="Layer_2" data-name="Layer 2" xmlns="http://www.w3.org/2000/svg" viewBox="0 0 11.41 14">
  <defs>
    <style>
      .cls-1 {
        fill: #665f59;
      }
    </style>
  </defs>
  <g id="Layer_1-2" data-name="Layer 1">
    <g>
      <path class="cls-1" d="M11.41,11.14c0-.1-.02-.19-.06-.27-.04-.08-.1-.16-.17-.22-.7-.55-1.1-1.39-1.1-2.28v-2.8c0-1.21-.49-2.3-1.28-3.09-.62-.62-1.42-1.05-2.32-1.21v-.5c0-.43-.35-.77-.77-.77s-.77.35-.77.77v.5c-2.04.37-3.6,2.19-3.6,4.33v2.78c0,.44-.1.88-.29,1.27-.19.39-.46.74-.81,1.01-.07.06-.13.13-.17.22-.04.08-.06.18-.06.27,0,.34.28.62.62.62h10.16c.34,0,.62-.28.62-.62Z"/>
      <path class="cls-1" d="M7.52,12.19h-3.62c0,1,.81,1.81,1.81,1.81s1.81-.81,1.81-1.81Z"/>
    </g>
  </g>
</svg>