<?xml version="1.0" encoding="UTF-8"?>
<svg id="Layer_2" data-name="Layer 2" xmlns="http://www.w3.org/2000/svg" viewBox="0 0 13.01 10">
  <defs>
    <style>
      .cls-1 {
        fill: #3d3935;
      }
    </style>
  </defs>
  <g id="Layer_1-2" data-name="Layer 1">
    <g>
      <path class="cls-1" d="M3.55,4.21c1,0,1.8-.81,1.8-1.8s-.81-1.8-1.8-1.8-1.8.81-1.8,1.8.81,1.8,1.8,1.8Z"/>
      <circle class="cls-1" cx="8.59" cy="2.23" r="2.23"/>
      <path class="cls-1" d="M8.59,5.53c-.88,0-1.7.26-2.39.7-.44.28-.83.64-1.15,1.05-.04.05-.08.1-.12.16,0,0,0,0,0,0-.04.05-.07.11-.11.16,0,0,0,0,0,0-.03.05-.07.11-.1.17,0,0,0,0,0,0-.03.06-.06.11-.09.17,0,0,0,0,0,0-.03.06-.06.12-.09.18,0,0,0,0,0,0-.06.12-.11.24-.15.37h0c-.02.06-.04.13-.06.19-.07.22-.12.45-.15.68-.05.33.21.63.55.63h7.72c.35,0,.62-.31.57-.66-.32-2.15-2.17-3.81-4.42-3.81ZM5.55,8.8c.02-.06.05-.11.07-.17l.07-.14.14-.24.08-.12.09-.12c.23-.3.52-.56.84-.77.52-.33,1.13-.51,1.75-.51,1.35,0,2.55.85,3.04,2.06h-6.07Z"/>
      <path class="cls-1" d="M3.36,8.39c.02-.08.05-.16.08-.23.06-.16.12-.31.19-.45.03-.07.07-.14.1-.21l.12-.21c.04-.07.08-.14.12-.2.05-.07.09-.14.14-.2.05-.07.1-.13.15-.2.32-.41.71-.77,1.14-1.08-.54-.32-1.16-.51-1.84-.51C1.8,5.08.33,6.33.01,7.99c-.07.36.2.69.56.69h2.72c.02-.1.04-.2.07-.3Z"/>
    </g>
  </g>
</svg>