<?xml version="1.0" encoding="UTF-8"?>
<svg id="Layer_2" data-name="Layer 2" xmlns="http://www.w3.org/2000/svg" viewBox="0 0 60 60">
  <defs>
    <style>
      .cls-1 {
        fill: #fff;
      }

      .cls-2 {
        fill: #e93427;
      }
    </style>
  </defs>
  <g id="Layer_1-2" data-name="Layer 1">
    <g>
      <circle class="cls-2" cx="30" cy="30" r="30"/>
      <g id="tron">
        <path class="cls-1" d="M50.14,25.63c-1.74-1.6-4.14-4.06-6.1-5.79l-.12-.08c-.19-.15-.41-.28-.64-.36h0c-4.72-.88-26.7-4.99-27.12-4.94-.12.02-.23.06-.34.13l-.11.09c-.14.14-.24.3-.3.49l-.03.08v.48c2.47,6.89,12.24,29.45,14.16,34.75.12.36.34,1.04.75,1.08h.09c.22,0,1.16-1.24,1.16-1.24,0,0,16.78-20.35,18.47-22.51.22-.27.41-.55.58-.86.09-.48-.09-.98-.46-1.3ZM35.85,28l7.16-5.94,4.2,3.87-11.36,2.07ZM33.07,27.61l-12.33-10.1,19.95,3.68-7.62,6.42ZM34.18,30.26l12.62-2.03-14.43,17.38,1.81-15.35ZM19.07,18.52l12.97,11.01-1.88,16.09-11.09-27.1Z"/>
      </g>
    </g>
  </g>
</svg>