<?xml version="1.0" encoding="UTF-8"?>
<svg id="Layer_2" data-name="Layer 2" xmlns="http://www.w3.org/2000/svg" viewBox="0 0 6.71 5.16">
  <defs>
    <style>
      .cls-1 {
        fill: #665f59;
      }
    </style>
  </defs>
  <g id="Layer_1-2" data-name="Layer 1">
    <g>
      <path class="cls-1" d="M1.83,2.17c.51,0,.93-.42.93-.93s-.42-.93-.93-.93-.93.42-.93.93.42.93.93.93Z"/>
      <circle class="cls-1" cx="4.43" cy="1.15" r="1.15"/>
      <path class="cls-1" d="M6.7,4.82c-.16-1.11-1.12-1.96-2.28-1.96-.45,0-.88.13-1.23.36,0,0,0,0,0,0,0,0,0,0,0,0-.23.15-.43.33-.59.54,0,0,0,0,0,0,0,0,0,0,0,0-.02.03-.04.05-.06.08,0,0,0,0,0,0-.02.03-.04.06-.06.08,0,0,0,0,0,0-.02.03-.04.06-.05.09h0s-.03.06-.05.09c0,0,0,0,0,0-.02.03-.03.06-.04.09,0,0,0,0,0,0-.03.06-.05.12-.08.19,0,0,0,0,0,0-.01.03-.02.06-.03.1,0,0,0,0,0,0,0,0,0,0,0,0-.04.11-.06.23-.08.35-.02.17.11.33.28.33h3.98c.18,0,.32-.16.29-.34ZM2.54,3.84s0,0,0,0c0,0,0,0,0,0Z"/>
      <path class="cls-1" d="M2.72,3.2c.08-.07.16-.13.25-.19-.31-.24-.71-.39-1.14-.39C.93,2.62.17,3.26,0,4.12c-.04.18.1.36.29.36h1.62c.13-.49.41-.94.8-1.28Z"/>
    </g>
  </g>
</svg>