<?xml version="1.0" encoding="UTF-8"?>
<svg id="Layer_2" data-name="Layer 2" xmlns="http://www.w3.org/2000/svg" viewBox="0 0 11.4 10.27">
  <defs>
    <style>
      .cls-1 {
        fill: #fc9;
      }
    </style>
  </defs>
  <g id="Layer_1-2" data-name="Layer 1">
    <path class="cls-1" d="M11.19,8.02L7,.75c-.27-.47-.76-.75-1.3-.75s-1.03.28-1.3.75L.2,8.02c-.27.47-.27,1.03,0,1.5s.76.75,1.3.75h8.39c.54,0,1.03-.28,1.3-.75.27-.47.27-1.03,0-1.5ZM4.87,9.13c0-.12.02-.23.06-.32.05-.11.11-.19.19-.27.07-.08.17-.14.26-.18.11-.05.21-.07.32-.07s.21.02.32.07c.1.04.19.1.27.18.07.08.13.17.18.27.04.09.06.2.06.32,0,.11-.02.21-.06.31-.05.11-.11.19-.18.27-.08.08-.18.14-.27.18-.2.08-.43.08-.64,0-.1-.03-.19-.1-.26-.18-.08-.08-.14-.17-.19-.27-.04-.1-.06-.2-.06-.31ZM6.53,6.65c0,.46-.37.83-.83.83s-.83-.37-.83-.83V2.3c0-.46.37-.83.83-.83s.83.37.83.83v4.35Z"/>
  </g>
</svg>