<?xml version="1.0" encoding="UTF-8"?>
<svg id="Layer_2" data-name="Layer 2" xmlns="http://www.w3.org/2000/svg" viewBox="0 0 35.33 24.46">
  <defs>
    <style>
      .cls-1, .cls-2 {
        fill: #b2a18f;
      }

      .cls-2 {
        font-family: Inter-Light, Inter;
        font-size: 9px;
        font-variation-settings: 'wght' 300, 'slnt' 0;
        font-weight: 300;
      }
    </style>
  </defs>
  <g id="Layer_1-2" data-name="Layer 1">
    <g>
      <text class="cls-2" transform="translate(0 21.59)"><tspan x="0" y="0">Transfer</tspan></text>
      <g>
        <path class="cls-1" d="M21.09,8.17l3.12-3.37s.05-.08.07-.12c0,0,0,0,0,0,.03-.04.06-.07.08-.12,0,0,0-.02,0-.03.02-.05.02-.1.03-.15,0-.05.03-.1.03-.15,0,0,0,0,0-.01s0,0,0-.01c0-.05-.02-.1-.03-.15,0-.05-.01-.1-.03-.15,0,0,0-.02,0-.03-.02-.04-.05-.08-.08-.12,0,0,0,0,0,0-.03-.04-.04-.08-.07-.12l-3.12-3.37c-.32-.34-.86-.36-1.2-.05-.18.17-.27.4-.27.62,0,.21.07.41.23.58l1.8,1.94h-4.07c-.47,0-.85.38-.85.85s.38.85.85.85h4.07l-1.8,1.94c-.15.16-.23.37-.23.58,0,.23.09.46.27.62.34.32.88.3,1.2-.05Z"/>
        <path class="cls-1" d="M14.24,3.08l-3.12,3.37s-.05.08-.07.12c0,0,0,0,0,0-.03.04-.06.07-.08.12,0,0,0,.02,0,.03-.02.05-.02.1-.03.15,0,.05-.03.1-.03.15,0,0,0,0,0,.01s0,0,0,.01c0,.05.02.1.03.15,0,.05.01.1.03.15,0,0,0,.02,0,.03.02.04.05.08.08.12,0,0,0,0,0,0,.03.04.04.08.07.12l3.12,3.37c.32.34.86.36,1.2.05.18-.17.27-.4.27-.62s-.07-.41-.23-.58l-1.8-1.94h4.07c.47,0,.85-.38.85-.85s-.38-.85-.85-.85h-4.07s1.8-1.94,1.8-1.94c.15-.16.23-.37.23-.58s-.09-.46-.27-.62c-.34-.32-.88-.3-1.2.05Z"/>
      </g>
    </g>
  </g>
</svg>