<?xml version="1.0" encoding="UTF-8"?>
<svg id="Layer_2" data-name="Layer 2" xmlns="http://www.w3.org/2000/svg" viewBox="0 0 13.53 11.24">
  <defs>
    <style>
      .cls-1 {
        fill: #b2a18f;
      }
    </style>
  </defs>
  <g id="Layer_1-2" data-name="Layer 1">
    <g>
      <path class="cls-1" d="M10.19,8.17l3.12-3.37s.05-.08.07-.12c0,0,0,0,0,0,.03-.04.06-.07.08-.12,0,0,0-.02,0-.03.02-.05.02-.1.03-.15,0-.05.03-.1.03-.15,0,0,0,0,0-.01s0,0,0-.01c0-.05-.02-.1-.03-.15,0-.05-.01-.1-.03-.15,0,0,0-.02,0-.03-.02-.04-.05-.08-.08-.12,0,0,0,0,0,0-.03-.04-.04-.08-.07-.12L10.19.27c-.32-.34-.86-.36-1.2-.05-.18.17-.27.4-.27.62,0,.21.07.41.23.58l1.8,1.94h-4.07c-.47,0-.85.38-.85.85s.38.85.85.85h4.07l-1.8,1.94c-.15.16-.23.37-.23.58,0,.23.09.46.27.62.34.32.88.3,1.2-.05Z"/>
      <path class="cls-1" d="M3.35,3.08L.23,6.44s-.05.08-.07.12c0,0,0,0,0,0-.03.04-.06.07-.08.12,0,0,0,.02,0,.03-.02.05-.02.1-.03.15,0,.05-.03.1-.03.15,0,0,0,0,0,.01s0,0,0,.01c0,.05.02.1.03.15,0,.05.01.1.03.15,0,0,0,.02,0,.03.02.04.05.08.08.12,0,0,0,0,0,0,.03.04.04.08.07.12l3.12,3.37c.32.34.86.36,1.2.05.18-.17.27-.4.27-.62s-.07-.41-.23-.58l-1.8-1.94h4.07c.47,0,.85-.38.85-.85s-.38-.85-.85-.85H2.8s1.8-1.94,1.8-1.94c.15-.16.23-.37.23-.58s-.09-.46-.27-.62c-.34-.32-.88-.3-1.2.05Z"/>
    </g>
  </g>
</svg>