<?xml version="1.0" encoding="UTF-8"?>
<svg id="Layer_2" data-name="Layer 2" xmlns="http://www.w3.org/2000/svg" viewBox="0 0 10 10">
  <defs>
    <style>
      .cls-1 {
        fill: #3d3935;
      }
    </style>
  </defs>
  <g id="Layer_1-2" data-name="Layer 1">
    <g>
      <path class="cls-1" d="M5,3.69c-.72,0-1.31.59-1.31,1.31s.59,1.31,1.31,1.31,1.31-.59,1.31-1.31-.59-1.31-1.31-1.31ZM5,5.53c-.29,0-.53-.24-.53-.53s.24-.53.53-.53.53.24.53.53-.24.53-.53.53Z"/>
      <path class="cls-1" d="M9.5,4.5h-1.05c-.22-1.53-1.42-2.73-2.95-2.95V.5c0-.28-.22-.5-.5-.5s-.5.22-.5.5v1.05c-1.53.22-2.73,1.42-2.95,2.95H.5c-.28,0-.5.22-.5.5s.22.5.5.5h1.05c.22,1.53,1.42,2.73,2.95,2.95v1.05c0,.28.22.5.5.5s.5-.22.5-.5v-1.05c1.53-.22,2.73-1.42,2.95-2.95h1.05c.28,0,.5-.22.5-.5s-.22-.5-.5-.5ZM5,7.5c-1.38,0-2.5-1.12-2.5-2.5s1.12-2.5,2.5-2.5,2.5,1.12,2.5,2.5-1.12,2.5-2.5,2.5Z"/>
    </g>
  </g>
</svg>