<?xml version="1.0" encoding="UTF-8"?>
<svg id="Layer_2" data-name="Layer 2" xmlns="http://www.w3.org/2000/svg" viewBox="0 0 14.6 16">
  <defs>
    <style>
      .cls-1 {
        fill: #665f59;
      }
    </style>
  </defs>
  <g id="Layer_1-2" data-name="Layer 1">
    <path class="cls-1" d="M11.82,10.44c-.81,0-1.53.36-2.04.91l-4.36-2.52c.08-.27.14-.54.14-.84s-.06-.57-.14-.84l4.36-2.52c.51.56,1.23.91,2.04.91,1.53,0,2.78-1.25,2.78-2.78s-1.25-2.78-2.78-2.78-2.78,1.25-2.78,2.78c0,.29.06.57.14.83l-4.37,2.52c-.51-.56-1.23-.91-2.04-.91-1.53,0-2.78,1.25-2.78,2.78s1.25,2.78,2.78,2.78c.81,0,1.54-.36,2.04-.91l4.37,2.52c-.08.27-.14.54-.14.83,0,1.53,1.25,2.78,2.78,2.78s2.78-1.25,2.78-2.78-1.25-2.78-2.78-2.78Z"/>
  </g>
</svg>