<?xml version="1.0" encoding="UTF-8"?>
<svg id="Layer_2" data-name="Layer 2" xmlns="http://www.w3.org/2000/svg" viewBox="0 0 7.37 9">
  <defs>
    <style>
      .cls-1 {
        fill: #3d3935;
      }
    </style>
  </defs>
  <g id="Layer_1-2" data-name="Layer 1">
    <g>
      <path class="cls-1" d="M7.34,7.18c-.08-.4-.19-.76-.31-1.07-.12-.3-.25-.55-.4-.76-.29-.4-.62-.61-.95-.61,0,0,0,0,0,0,0,0-.01,0-.02,0-.22-.19-.53-.35-.89-.44.13-.02.26-.04.37-.06.33-.07.61-.16.83-.28.3-.16.49-.46.51-.8h.06c.13-.03.24-.09.33-.19.08-.1.13-.22.13-.35v-.47c0-.13-.05-.25-.13-.35-.08-.1-.2-.16-.33-.18h-.06c0-.36-.2-.68-.51-.85-.22-.12-.5-.21-.83-.28-.12-.02-.25-.04-.38-.06-.04-.14-.12-.23-.26-.3-.16-.08-.41-.12-.76-.12s-.59.04-.75.12c-.14.06-.22.16-.26.29-.17.02-.33.04-.48.07-.33.07-.61.16-.83.28-.31.17-.5.49-.51.84h-.05c-.13.03-.24.09-.33.19-.08.1-.13.22-.13.35v.47c0,.13.05.25.13.35.08.1.2.16.33.18h.05c.02.34.21.65.51.81.22.12.5.21.83.28.14.03.28.05.44.07-.36.1-.66.25-.88.45-.03,0-.06,0-.08,0-.07,0-.15,0-.22.03-.3.08-.59.33-.84.72-.26.42-.47.99-.62,1.7-.06.28-.02.55.1.74.08.13.2.21.34.24.02,0,.06.01.11.01.09,0,.21-.02.33-.1.19-.12.32-.35.39-.68.02-.08.04-.17.06-.28,0-.05.02-.09.03-.14.02-.11.04-.22.06-.32,0,.04.02.09.03.13,0,.03.01.07.02.1.08.33.19.64.34.91.14.26.31.48.51.66.39.36.87.55,1.39.55s1-.19,1.39-.55c.2-.18.37-.41.51-.66.15-.27.26-.57.34-.91,0,0,0-.02,0-.03,0,.04.01.07.02.11.03.14.05.28.08.43.07.33.2.56.39.68.12.08.24.1.33.1.05,0,.08,0,.11-.01.14-.03.26-.11.34-.24.12-.19.16-.46.1-.74ZM2.03,3.63c-.17-.11-.28-.32-.28-.55v-1.05c0-.23.11-.44.28-.55.44-.28,1.16-.34,1.69-.34s1.25.06,1.69.34c.17.11.28.32.28.55v1.05c0,.23-.11.44-.28.55-.44.28-1.16.34-1.69.34s-1.25-.06-1.69-.34Z"/>
      <path class="cls-1" d="M3.02,2.58c0,.27-.22.13-.49.13s-.49.13-.49-.13.22-.49.49-.49.49.22.49.49Z"/>
      <path class="cls-1" d="M4.43,2.58c0,.27.22.13.49.13s.49.13.49-.13c0-.27-.22-.49-.49-.49s-.49.22-.49.49Z"/>
      <path class="cls-1" d="M4.75,3.01c0,.2-.11.38-.3.51s-.44.21-.72.21c-.56,0-1.02-.32-1.02-.72,0-.03.02-.05.04-.07.03-.02.06-.03.1-.03h1.75c.08,0,.15.05.15.1Z"/>
    </g>
  </g>
</svg>