<?xml version="1.0" encoding="UTF-8"?>
<svg id="Layer_2" data-name="Layer 2" xmlns="http://www.w3.org/2000/svg" viewBox="0 0 16.18 14.91">
  <defs>
    <style>
      .cls-1 {
        fill: #fff;
      }
    </style>
  </defs>
  <g id="Layer_1-2" data-name="Layer 1">
    <g>
      <path class="cls-1" d="M12.07,5.66l-2.79.11,2.05-4.49c.41-.89-.69-1.7-1.42-1.05L3.53,5.87c-.59.52-.2,1.5.59,1.47l2.79-.11-2.05,4.49c-.41.89.69,1.7,1.42,1.05l6.38-5.64c.59-.52.2-1.5-.59-1.47Z"/>
      <path class="cls-1" d="M12.82,14.91H3.36c-.81,0-1.5-.55-1.69-1.34L.01,6.36c-.06-.27.11-.54.38-.6.27-.06.54.11.6.38l1.66,7.21c.08.33.37.57.71.57h9.46c.34,0,.63-.23.71-.57l1.66-7.21c.06-.27.33-.44.6-.38.27.06.44.33.38.6l-1.66,7.21c-.18.79-.88,1.34-1.69,1.34Z"/>
    </g>
  </g>
</svg>