<?xml version="1.0" encoding="UTF-8"?>
<svg id="Layer_2" data-name="Layer 2" xmlns="http://www.w3.org/2000/svg" viewBox="0 0 8.48 8.5">
  <defs>
    <style>
      .cls-1 {
        fill: #b2a18f;
      }
    </style>
  </defs>
  <g id="Layer_1-2" data-name="Layer 1">
    <g>
      <path class="cls-1" d="M4.04,4.75c-1.14-1.17-1.29-2.94-.48-4.3.14-.23-.08-.51-.33-.44C1.36.52,0,2.19,0,4.18c0,2.39,1.97,4.32,4.4,4.32,1.82,0,3.38-1.09,4.05-2.64.11-.25-.15-.5-.39-.39-1.34.61-2.95.37-4.02-.73h0Z"/>
      <path class="cls-1" d="M8.07,2.85h0c-.62-.36-.83-1.16-.47-1.78h0c.09-.15.04-.34-.11-.43-.15-.09-.34-.04-.43.11h0c-.36.62-1.16.83-1.78.47h0c-.15-.09-.34-.04-.43.11-.09.15-.04.34.11.43h0c.62.36.83,1.16.47,1.78h0c-.09.15-.04.34.11.43.05.03.1.04.16.04.11,0,.21-.06.27-.16h0c.36-.62,1.16-.83,1.78-.47h0s.1.04.16.04c.11,0,.21-.06.27-.16.09-.15.04-.34-.11-.43h0Z"/>
    </g>
  </g>
</svg>