<?xml version="1.0" encoding="UTF-8"?>
<svg id="Layer_2" data-name="Layer 2" xmlns="http://www.w3.org/2000/svg" viewBox="0 0 13.53 10.74">
  <defs>
    <style>
      .cls-1 {
        fill: #b2a18f;
      }
    </style>
  </defs>
  <g id="Layer_1-2" data-name="Layer 1">
    <g>
      <g>
        <path class="cls-1" d="M2.52,5.26c.54,0,1.01.35,1.18.86l.39,1.23h5.35l.19-.61h-.91c-.75,0-1.37-.61-1.37-1.37v-1.09c0-.75.61-1.37,1.37-1.37h2.09v-.45c0-.75-.61-1.37-1.37-1.37H2.8c-.75,0-1.37.61-1.37,1.37v2.79h1.09Z"/>
        <path class="cls-1" d="M11.36,2.47v.46c.28.02.53.11.74.27v-1.84c0-.75-.61-1.37-1.37-1.37h-6.65c-.45,0-.85.22-1.1.56h6.46c1.05,0,1.91.86,1.91,1.91Z"/>
        <path class="cls-1" d="M8.72,6.2h1.09l.02-.08c.16-.51.64-.86,1.18-.86h1.09v-.98c0-.45-.37-.82-.82-.82h-2.56c-.45,0-.82.37-.82.82v1.09c0,.45.37.82.82.82ZM10,4.15c.38,0,.69.31.69.68s-.31.68-.69.68-.69-.31-.69-.68.31-.68.69-.68Z"/>
      </g>
      <path class="cls-1" d="M10.36,7.03l-.51,1.62H3.69l-.51-1.62c-.09-.28-.35-.48-.65-.48H.68c-.38,0-.68.31-.68.68v2.82c0,.38.31.68.68.68h12.16c.38,0,.68-.31.68-.68v-2.82c0-.38-.31-.68-.68-.68h-1.84c-.3,0-.56.19-.65.48Z"/>
    </g>
  </g>
</svg>