<?xml version="1.0" encoding="UTF-8"?>
<svg id="Layer_2" data-name="Layer 2" xmlns="http://www.w3.org/2000/svg" viewBox="0 0 12.19 10">
  <defs>
    <style>
      .cls-1 {
        fill: #ffc700;
      }
    </style>
  </defs>
  <g id="Layer_1-2" data-name="Layer 1">
    <g>
      <path class="cls-1" d="M10.27,7.82l1.3-4.73s.04,0,.08,0c.3,0,.54-.24.54-.54,0-.3-.24-.54-.54-.54s-.54.24-.54.54c0,.23.14.42.31.49l-2.93,2.01-2.33-3.61c.37-.03.65-.34.65-.72,0-.4-.32-.72-.72-.72s-.72.32-.72.72c0,.38.29.68.65.72l-2.33,3.61L.77,3.04c.17-.07.31-.26.31-.49,0-.3-.24-.54-.54-.54s-.54.24-.54.54.24.54.54.54c.04,0,.08,0,.08,0l1.3,4.73h8.35Z"/>
      <path class="cls-1" d="M1.92,9.57c0,.24.19.43.43.43h7.49c.24,0,.43-.19.43-.43v-1.18H1.92v1.18Z"/>
    </g>
  </g>
</svg>