<?xml version="1.0" encoding="UTF-8"?>
<svg id="Layer_2" data-name="Layer 2" xmlns="http://www.w3.org/2000/svg" viewBox="0 0 24 24">
  <defs>
    <style>
      .cls-1 {
        fill: #181616;
      }

      .cls-2 {
        fill: #b2a18f;
      }
    </style>
  </defs>
  <g id="Layer_1-2" data-name="Layer 1">
    <g>
      <rect class="cls-1" x="0" y="0" width="24" height="24" rx="4" ry="4"/>
      <path class="cls-2" d="M6.78,11.37s5.27-2.16,7.09-2.92c.7-.3,3.07-1.28,3.07-1.28,0,0,1.1-.43,1,.61-.03.43-.27,1.92-.52,3.53-.37,2.28-.76,4.78-.76,4.78,0,0-.06.7-.58.82-.52.12-1.37-.43-1.52-.55-.12-.09-2.28-1.46-3.07-2.13-.21-.18-.46-.55.03-.97,1.1-1,2.4-2.25,3.2-3.04.37-.37.73-1.22-.79-.18-2.16,1.49-4.29,2.89-4.29,2.89,0,0-.49.3-1.4.03-.91-.27-1.98-.64-1.98-.64,0,0-.73-.46.52-.94h0Z"/>
    </g>
  </g>
</svg>