<?xml version="1.0" encoding="UTF-8"?>
<svg id="Layer_2" data-name="Layer 2" xmlns="http://www.w3.org/2000/svg" viewBox="0 0 13.53 11.24">
  <defs>
    <style>
      .cls-1 {
        fill: #b2a18f;
      }
    </style>
  </defs>
  <g id="Layer_1-2" data-name="Layer 1">
    <g>
      <path class="cls-1" d="M10.36,7.53l-.51,1.62H3.69l-.51-1.62c-.09-.28-.35-.48-.65-.48H.68c-.38,0-.68.31-.68.68v2.82c0,.38.31.68.68.68h12.16c.38,0,.68-.31.68-.68v-2.82c0-.38-.31-.68-.68-.68h-1.84c-.3,0-.56.19-.65.48Z"/>
      <path class="cls-1" d="M10.71,4.37l-3.37,3.12s-.08.05-.12.07c0,0,0,0,0,0-.04.03-.07.06-.12.08,0,0-.02,0-.03,0-.05.02-.1.02-.15.03-.05,0-.1.03-.15.03,0,0,0,0-.01,0s0,0-.01,0c-.05,0-.1-.02-.15-.03-.05,0-.1-.01-.15-.03,0,0-.02,0-.03,0-.04-.02-.08-.05-.12-.08,0,0,0,0,0,0-.04-.03-.08-.04-.12-.07l-3.37-3.12c-.34-.32-.36-.86-.05-1.2.17-.18.4-.27.62-.27.21,0,.41.07.58.23l1.94,1.8V.85c0-.47.38-.85.85-.85s.85.38.85.85v4.07l1.94-1.8c.16-.15.37-.23.58-.23.23,0,.46.09.62.27.32.34.3.88-.05,1.2Z"/>
    </g>
  </g>
</svg>