<?xml version="1.0" encoding="UTF-8"?>
<svg id="Layer_2" data-name="Layer 2" xmlns="http://www.w3.org/2000/svg" viewBox="0 0 8.46 8.46">
  <defs>
    <style>
      .cls-1 {
        fill: #b2a18f;
      }
    </style>
  </defs>
  <g id="Layer_1-2" data-name="Layer 1">
    <path class="cls-1" d="M8.32,5.31s.02-.06.02-.09c.02-.08.04-.16.05-.24.01-.06.02-.12.03-.18,0-.06.02-.12.02-.18.01-.13.02-.26.02-.39s0-.26-.02-.39c0-.06-.02-.12-.02-.18,0-.06-.02-.12-.03-.18-.01-.08-.03-.16-.05-.24,0-.03-.02-.06-.02-.09-.02-.09-.05-.18-.08-.27,0,0,0,0,0,0h0C7.7,1.28,6.24.12,4.49.01h0c-.09,0-.17-.01-.26-.01s-.18,0-.26.01h0C2.22.12.77,1.28.23,2.87H.23s0,0,0,0c-.03.09-.06.18-.08.27,0,.03-.02.06-.02.09-.02.08-.04.16-.05.24-.01.06-.02.12-.03.18,0,.06-.02.12-.02.18-.01.13-.02.26-.02.39s0,.26.02.39c0,.06.02.12.02.18,0,.06.02.12.03.18.01.08.03.16.05.24,0,.03.02.06.02.09.46,1.73,1.98,3.02,3.82,3.14h0c.09,0,.17.01.26.01s.18,0,.26-.01h0c1.84-.11,3.37-1.41,3.82-3.14ZM7.15,6.19s-.06.08-.09.12c-.04.05-.07.1-.11.15-.03.04-.07.08-.1.11-.04.05-.08.09-.12.14-.04.04-.07.07-.11.1-.04.04-.09.08-.14.12-.04.03-.08.06-.12.09-.05.04-.1.07-.15.11-.04.03-.09.06-.13.08-.05.03-.1.06-.16.09-.05.03-.09.05-.14.07-.05.03-.11.05-.16.08-.05.02-.1.04-.15.06-.06.02-.11.04-.17.06-.05.02-.1.03-.16.04,0,0-.01,0-.02,0,.35-.53.61-1.11.79-1.73.5-.04,1-.1,1.5-.17,0,0,0,0,0,0-.03.06-.05.12-.08.17-.02.04-.05.09-.08.13-.03.05-.06.11-.1.16ZM3.16,7.58c-.06-.02-.11-.04-.17-.06-.05-.02-.1-.04-.15-.06-.06-.02-.11-.05-.16-.08-.05-.02-.1-.05-.14-.07-.05-.03-.1-.06-.15-.09-.04-.03-.09-.05-.13-.08-.05-.03-.1-.07-.14-.11-.04-.03-.08-.06-.12-.09-.05-.04-.09-.08-.13-.12-.04-.03-.08-.07-.11-.11-.04-.04-.08-.09-.12-.14-.03-.04-.07-.07-.1-.11-.04-.05-.07-.1-.11-.15-.03-.04-.06-.08-.09-.12-.03-.05-.07-.11-.1-.16-.03-.04-.05-.08-.08-.13-.03-.06-.06-.11-.08-.17,0,0,0,0,0,0,.49.07.99.13,1.5.17.17.62.44,1.21.79,1.73,0,0-.01,0-.02,0-.05-.01-.11-.03-.16-.04ZM1.21,2.44c.03-.05.06-.11.1-.16.03-.04.06-.08.09-.12.04-.05.07-.1.11-.15.03-.04.07-.08.1-.11.04-.05.08-.09.12-.14.04-.04.07-.07.11-.1.04-.04.09-.08.14-.12.04-.03.08-.06.12-.09.05-.04.1-.07.15-.11.04-.03.09-.06.13-.08.05-.03.1-.06.15-.09.05-.03.09-.05.14-.07.05-.03.11-.05.16-.08.05-.02.1-.04.15-.06.06-.02.11-.04.17-.06.05-.02.1-.03.16-.04,0,0,.01,0,.02,0-.35.53-.61,1.11-.79,1.73-.5.04-1,.1-1.5.17.03-.06.05-.12.08-.17.02-.04.05-.09.08-.13ZM5.3.88c.06.02.11.04.17.06.05.02.1.04.15.06.06.02.11.05.16.08.05.02.09.04.14.07.05.03.1.06.16.09.04.03.09.05.13.08.05.03.1.07.15.11.04.03.08.06.12.09.05.04.09.08.14.12.04.03.08.07.11.1.04.04.08.09.12.14.03.04.07.07.1.11.04.05.08.1.11.15.03.04.06.08.09.12.04.05.07.11.1.16.03.04.05.08.08.13.03.06.06.11.08.17-.49-.07-.99-.13-1.5-.17-.17-.62-.44-1.21-.79-1.73,0,0,.01,0,.02,0,.05.01.11.03.16.04ZM7.67,4.97c-.53.09-1.07.16-1.6.2.05-.31.08-.62.08-.94s-.03-.63-.08-.94c.53.05,1.07.12,1.6.2.05.24.08.49.08.73s-.03.49-.08.73ZM4.23,5.26c-.37,0-.74-.01-1.11-.03-.06-.32-.09-.66-.09-.99s.03-.67.09-.99c.37-.02.74-.03,1.11-.03s.74.01,1.11.03c.06.32.09.66.09.99s-.03.67-.09.99c-.37.02-.74.03-1.11.03ZM5.15,5.95c-.2.62-.51,1.19-.92,1.71-.41-.52-.72-1.09-.92-1.71.31.01.61.02.92.02s.62,0,.92-.02ZM3.31,2.52c.2-.62.51-1.19.92-1.71.41.52.72,1.09.92,1.71-.31-.01-.61-.02-.92-.02s-.62,0-.92.02ZM.79,3.5c.53-.09,1.07-.16,1.6-.2-.05.31-.08.62-.08.94s.03.63.08.94c-.53-.05-1.07-.12-1.6-.2-.05-.24-.08-.49-.08-.73s.03-.49.08-.73Z"/>
  </g>
</svg>