<?xml version="1.0" encoding="UTF-8"?>
<svg id="Layer_2" data-name="Layer 2" xmlns="http://www.w3.org/2000/svg" viewBox="0 0 12.46 10">
  <defs>
    <style>
      .cls-1 {
        fill: #b2a18f;
      }
    </style>
  </defs>
  <g id="Layer_1-2" data-name="Layer 1">
    <g>
      <path class="cls-1" d="M8.52,7.88c-.88,0-1.6-.72-1.6-1.6v-1.27c0-.88.72-1.6,1.6-1.6h2.44v-.53c0-.88-.71-1.6-1.6-1.6H1.6c-.88,0-1.6.71-1.6,1.6v5.52c0,.88.71,1.6,1.6,1.6h7.77c.88,0,1.6-.71,1.6-1.6v-.53h-2.44Z"/>
      <g>
        <path class="cls-1" d="M11.6,2.89v.54c.32.02.62.13.86.32V1.6c0-.88-.71-1.6-1.6-1.6H3.1c-.53,0-.99.26-1.28.65h7.55c1.23,0,2.23,1,2.23,2.23Z"/>
        <path class="cls-1" d="M11.6,7.87v.54s-.01.08-.01.12c.37-.19.65-.52.79-.91-.23.15-.49.24-.78.25Z"/>
      </g>
      <path class="cls-1" d="M11.5,4.05h-2.98c-.53,0-.96.43-.96.96v1.27c0,.53.43.96.96.96h2.98c.53,0,.96-.43.96-.96v-1.27c0-.53-.43-.96-.96-.96ZM10.01,6.45c-.44,0-.8-.36-.8-.8s.36-.8.8-.8.8.36.8.8-.36.8-.8.8Z"/>
    </g>
  </g>
</svg>