<?xml version="1.0" encoding="UTF-8"?>
<svg id="Layer_2" data-name="Layer 2" xmlns="http://www.w3.org/2000/svg" viewBox="0 0 13.96 14">
  <defs>
    <style>
      .cls-1 {
        fill: #defd52;
      }
    </style>
  </defs>
  <g id="Layer_1-2" data-name="Layer 1">
    <g>
      <path class="cls-1" d="M6.65,7.82c-1.88-1.93-2.13-4.84-.79-7.08.22-.38-.13-.83-.55-.72C2.25.85,0,3.61,0,6.88c0,3.93,3.24,7.12,7.25,7.12,3,0,5.57-1.79,6.67-4.34.18-.41-.24-.83-.65-.64-2.2,1.01-4.86.6-6.62-1.2h0Z"/>
      <path class="cls-1" d="M13.29,4.69h0c-1.02-.6-1.36-1.91-.77-2.93h0c.14-.25.06-.56-.18-.71-.25-.14-.56-.06-.71.18h0c-.6,1.02-1.91,1.36-2.93.77h0c-.25-.14-.56-.06-.71.18-.14.25-.06.56.18.71h0c1.02.6,1.36,1.91.77,2.93h0c-.14.25-.06.56.18.71.08.05.17.07.26.07.18,0,.35-.09.45-.26h0c.6-1.02,1.91-1.36,2.93-.77h0c.08.05.17.07.26.07.18,0,.35-.09.45-.26.14-.25.06-.56-.18-.71h0Z"/>
    </g>
  </g>
</svg>