<?xml version="1.0" encoding="UTF-8"?>
<svg id="Layer_2" data-name="Layer 2" xmlns="http://www.w3.org/2000/svg" viewBox="0 0 13.69 15">
  <defs>
    <style>
      .cls-1 {
        fill: #665f59;
      }
    </style>
  </defs>
  <g id="Layer_1-2" data-name="Layer 1">
    <path class="cls-1" d="M11.08,9.79c-.76,0-1.44.33-1.92.85l-4.09-2.36c.08-.25.13-.51.13-.78s-.05-.53-.13-.78l4.09-2.36c.48.52,1.16.85,1.92.85,1.44,0,2.61-1.17,2.61-2.6s-1.17-2.6-2.61-2.6-2.6,1.17-2.6,2.6c0,.27.05.53.13.78l-4.09,2.36c-.48-.52-1.16-.85-1.92-.85-1.44,0-2.6,1.17-2.6,2.6s1.17,2.6,2.6,2.6c.76,0,1.44-.33,1.92-.85l4.09,2.36c-.08.25-.13.51-.13.78,0,1.44,1.17,2.6,2.6,2.6s2.61-1.17,2.61-2.6-1.17-2.6-2.61-2.6Z"/>
  </g>
</svg>