<?xml version="1.0" encoding="UTF-8"?>
<svg id="Layer_2" data-name="Layer 2" xmlns="http://www.w3.org/2000/svg" viewBox="0 0 11.9 9">
  <defs>
    <style>
      .cls-1 {
        fill: #3d3935;
      }
    </style>
  </defs>
  <g id="Layer_1-2" data-name="Layer 1">
    <g>
      <circle class="cls-1" cx="5.95" cy="2.36" r="2.36"/>
      <path class="cls-1" d="M2.34,9c0-1.99,1.62-3.61,3.61-3.61s3.61,1.62,3.61,3.61H2.34Z"/>
      <path class="cls-1" d="M2.49,2.36c0-.49.11-.96.29-1.38-.09-.01-.18-.03-.27-.03-.99,0-1.79.8-1.79,1.79s.8,1.79,1.79,1.79c.23,0,.45-.05.65-.13-.42-.57-.68-1.27-.68-2.04Z"/>
      <path class="cls-1" d="M3.28,5.14c-.24-.07-.5-.11-.76-.11-1.06,0-1.97.6-2.43,1.48-.29.57.18,1.25.83,1.25h.52c.3-1.07.95-2,1.84-2.62Z"/>
      <path class="cls-1" d="M9.38.95c-.09,0-.18.01-.27.03.19.42.29.89.29,1.38,0,.77-.26,1.47-.68,2.04.2.08.42.13.66.13.99,0,1.79-.8,1.79-1.79s-.8-1.79-1.79-1.79Z"/>
      <path class="cls-1" d="M11.81,6.52c-.45-.88-1.37-1.48-2.43-1.48-.26,0-.52.04-.76.11.89.62,1.55,1.55,1.84,2.62h.52c.64,0,1.12-.68.83-1.25Z"/>
    </g>
  </g>
</svg>