<?xml version="1.0" encoding="UTF-8"?>
<svg id="Layer_2" data-name="Layer 2" xmlns="http://www.w3.org/2000/svg" viewBox="0 0 10.07 8.33">
  <defs>
    <style>
      .cls-1 {
        fill: #b2a18f;
      }
    </style>
  </defs>
  <g id="Layer_1-2" data-name="Layer 1">
    <path class="cls-1" d="M.62,3.63S5.07,1.8,6.62,1.16c.59-.26,2.6-1.08,2.6-1.08,0,0,.93-.36.85.52-.03.36-.23,1.62-.44,2.99-.31,1.93-.64,4.04-.64,4.04,0,0-.05.59-.49.7-.44.1-1.16-.36-1.29-.46-.1-.08-1.93-1.24-2.6-1.8-.18-.15-.39-.46.03-.82.93-.85,2.03-1.91,2.7-2.58.31-.31.62-1.03-.67-.15-1.83,1.26-3.63,2.45-3.63,2.45,0,0-.41.26-1.18.03-.77-.23-1.67-.54-1.67-.54,0,0-.62-.39.44-.8h0Z"/>
  </g>
</svg>