<svg width="100" height="100" viewBox="0 0 100 100" fill="none" xmlns="http://www.w3.org/2000/svg">
<path d="M72.13 5.74H27.87C15.6479 5.74 5.74 15.6479 5.74 27.87V72.13C5.74 84.3521 15.6479 94.26 27.87 94.26H72.13C84.3521 94.26 94.26 84.3521 94.26 72.13V27.87C94.26 15.6479 84.3521 5.74 72.13 5.74Z" fill="#242021"/>
<path d="M72.13 95H27.87C15.26 95 5 84.74 5 72.13V27.87C5 15.26 15.26 5 27.87 5H72.13C84.74 5 95 15.26 95 27.87V72.13C95 84.74 84.74 95 72.13 95ZM27.87 6.48C16.07 6.48 6.48 16.08 6.48 27.87V72.13C6.48 83.93 16.08 93.52 27.87 93.52H72.13C83.93 93.52 93.52 83.92 93.52 72.13V27.87C93.52 16.07 83.92 6.48 72.13 6.48H27.87Z" fill="#665F59"/>
<path d="M25.92 64.88V62.32L36.51 50.61C37.8 49.17 38.85 47.93 39.68 46.88C40.5 45.83 41.11 44.86 41.5 43.95C41.89 43.04 42.08 42.09 42.08 41.1C42.08 39.93 41.8 38.91 41.25 38.04C40.69 37.18 39.94 36.51 38.99 36.04C38.04 35.57 36.96 35.33 35.75 35.33C34.48 35.33 33.38 35.59 32.43 36.12C31.49 36.65 30.76 37.39 30.24 38.33C29.72 39.27 29.46 40.36 29.46 41.6H26.11C26.11 39.77 26.54 38.14 27.39 36.73C28.24 35.32 29.41 34.22 30.88 33.43C32.35 32.64 34.01 32.24 35.86 32.24C37.71 32.24 39.36 32.63 40.79 33.42C42.22 34.21 43.34 35.27 44.16 36.6C44.98 37.94 45.39 39.43 45.39 41.09C45.39 42.27 45.18 43.42 44.76 44.54C44.34 45.66 43.61 46.9 42.58 48.27C41.55 49.64 40.13 51.32 38.31 53.3L30.76 61.5V61.74H46.12V64.87H25.92V64.88Z" fill="#665F59"/>
<path d="M52.04 58.16V55.28L66.26 32.69H68.37V37.26H66.91L55.87 54.79V55.03H74.84V58.16H52.03H52.04ZM67.15 64.88V32.69H70.5V64.88H67.15Z" fill="#665F59"/>
</svg>
