<svg width="100" height="100" viewBox="0 0 100 100" fill="none" xmlns="http://www.w3.org/2000/svg">
<path d="M72.13 5.74H27.87C15.6479 5.74 5.74 15.6479 5.74 27.87V72.13C5.74 84.3521 15.6479 94.26 27.87 94.26H72.13C84.3521 94.26 94.26 84.3521 94.26 72.13V27.87C94.26 15.6479 84.3521 5.74 72.13 5.74Z" fill="#181616"/>
<path d="M72.13 95H27.87C15.26 95 5 84.74 5 72.13V27.87C5 15.26 15.26 5 27.87 5H72.13C84.74 5 95 15.26 95 27.87V72.13C95 84.74 84.74 95 72.13 95ZM27.87 6.48C16.07 6.48 6.48 16.08 6.48 27.87V72.13C6.48 83.93 16.08 93.52 27.87 93.52H72.13C83.93 93.52 93.52 83.92 93.52 72.13V27.87C93.52 16.07 83.92 6.48 72.13 6.48H27.87Z" fill="#665F59"/>
<path d="M24.09 64.88V60.38L35.38 49.57C36.41 48.54 37.27 47.63 37.97 46.83C38.67 46.03 39.19 45.25 39.54 44.48C39.89 43.72 40.07 42.9 40.07 42.03C40.07 41.05 39.84 40.2 39.39 39.48C38.94 38.77 38.32 38.22 37.54 37.83C36.76 37.44 35.87 37.25 34.88 37.25C33.89 37.25 32.95 37.46 32.18 37.88C31.41 38.3 30.81 38.9 30.4 39.67C29.98 40.45 29.77 41.37 29.77 42.44H23.84C23.84 40.38 24.31 38.58 25.25 37.06C26.19 35.54 27.5 34.35 29.17 33.52C30.84 32.69 32.76 32.26 34.93 32.26C37.1 32.26 39.09 32.66 40.76 33.47C42.43 34.28 43.72 35.39 44.65 36.81C45.58 38.23 46.04 39.85 46.04 41.67C46.04 42.87 45.8 44.06 45.33 45.24C44.86 46.41 44.03 47.71 42.85 49.14C41.67 50.56 40.01 52.28 37.87 54.3L32.67 59.52V59.74H46.49V64.9H24.08L24.09 64.88Z" fill="#B2A18F"/>
<path d="M51.2 59.04V54.12L64.76 32.7H68.94V39.63H66.43L57.52 53.73V53.98H76.6V59.04H51.2ZM66.59 64.88V57.52L66.68 55.33V32.68H72.53V64.87H66.59V64.88Z" fill="#B2A18F"/>
</svg>
