<svg width="100" height="100" viewBox="0 0 100 100" fill="none" xmlns="http://www.w3.org/2000/svg">
<path d="M72.13 5.74H27.87C15.6479 5.74 5.74 15.6479 5.74 27.87V72.13C5.74 84.3521 15.6479 94.26 27.87 94.26H72.13C84.3521 94.26 94.26 84.3521 94.26 72.13V27.87C94.26 15.6479 84.3521 5.74 72.13 5.74Z" fill="#242021"/>
<path d="M72.13 95H27.87C15.26 95 5 84.74 5 72.13V27.87C5 15.26 15.26 5 27.87 5H72.13C84.74 5 95 15.26 95 27.87V72.13C95 84.74 84.74 95 72.13 95ZM27.87 6.48C16.07 6.48 6.48 16.08 6.48 27.87V72.13C6.48 83.93 16.08 93.52 27.87 93.52H72.13C83.93 93.52 93.52 83.92 93.52 72.13V27.87C93.52 16.07 83.92 6.48 72.13 6.48H27.87Z" fill="#665F59"/>
<path d="M30.29 65.32C28.47 65.32 26.83 64.95 25.38 64.22C23.93 63.49 22.77 62.48 21.9 61.2C21.03 59.92 20.56 58.47 20.5 56.83H23.89C24.02 58.38 24.68 59.66 25.89 60.67C27.09 61.68 28.56 62.19 30.29 62.19C31.66 62.19 32.88 61.86 33.94 61.22C35 60.57 35.84 59.68 36.45 58.56C37.06 57.43 37.36 56.16 37.36 54.73C37.36 53.3 37.04 51.94 36.41 50.8C35.78 49.66 34.91 48.76 33.81 48.1C32.71 47.44 31.46 47.11 30.05 47.1C29.03 47.09 28.01 47.25 26.97 47.59C25.93 47.93 25.07 48.35 24.39 48.86L21.03 48.45L22.98 32.68H39.37V35.81H25.93L24.72 45.82H24.91C25.59 45.26 26.43 44.81 27.43 44.44C28.43 44.08 29.49 43.9 30.6 43.9C32.54 43.9 34.28 44.36 35.81 45.29C37.34 46.22 38.56 47.49 39.44 49.1C40.33 50.71 40.77 52.56 40.77 54.65C40.77 56.74 40.32 58.52 39.41 60.12C38.5 61.72 37.26 62.99 35.68 63.92C34.1 64.85 32.3 65.31 30.29 65.31V65.32Z" fill="#665F59"/>
<path d="M47.8 32.69H51.95L63.17 59.95H63.52L74.76 32.69H78.91V64.88H75.61V39.81H75.33L64.96 64.88H61.77L51.4 39.81H51.1V64.88H47.81V32.69H47.8Z" fill="#665F59"/>
</svg>
