<svg width="100" height="100" viewBox="0 0 100 100" fill="none" xmlns="http://www.w3.org/2000/svg">
<path d="M72.13 5.74H27.87C15.6479 5.74 5.74 15.6479 5.74 27.87V72.13C5.74 84.3521 15.6479 94.26 27.87 94.26H72.13C84.3521 94.26 94.26 84.3521 94.26 72.13V27.87C94.26 15.6479 84.3521 5.74 72.13 5.74Z" fill="#181616"/>
<path d="M72.13 95H27.87C15.26 95 5 84.74 5 72.13V27.87C5 15.26 15.26 5 27.87 5H72.13C84.74 5 95 15.26 95 27.87V72.13C95 84.74 84.74 95 72.13 95ZM27.87 6.48C16.07 6.48 6.48 16.08 6.48 27.87V72.13C6.48 83.93 16.08 93.52 27.87 93.52H72.13C83.93 93.52 93.52 83.92 93.52 72.13V27.87C93.52 16.07 83.92 6.48 72.13 6.48H27.87Z" fill="#665F59"/>
<path d="M29.94 65.32C27.79 65.32 25.87 64.92 24.19 64.12C22.51 63.32 21.17 62.22 20.18 60.81C19.2 59.41 18.67 57.8 18.61 55.98H24.65C24.74 57.27 25.3 58.32 26.31 59.13C27.32 59.94 28.53 60.35 29.95 60.35C31.06 60.35 32.05 60.1 32.91 59.6C33.77 59.1 34.45 58.4 34.95 57.49C35.45 56.58 35.69 55.56 35.69 54.39C35.69 53.22 35.44 52.16 34.94 51.25C34.44 50.34 33.75 49.63 32.87 49.11C31.99 48.6 30.98 48.33 29.84 48.32C28.88 48.32 27.94 48.51 27.03 48.88C26.12 49.25 25.4 49.75 24.88 50.38L19.3 49.44L20.92 32.68H40V37.84H26.06L25.16 46.19H25.35C25.94 45.45 26.79 44.83 27.9 44.34C29.01 43.85 30.24 43.61 31.59 43.61C33.53 43.61 35.26 44.07 36.78 44.98C38.3 45.89 39.51 47.15 40.39 48.74C41.27 50.34 41.71 52.17 41.71 54.23C41.71 56.29 41.21 58.29 40.22 59.95C39.23 61.61 37.85 62.93 36.09 63.88C34.32 64.83 32.28 65.31 29.97 65.31L29.94 65.32Z" fill="#B2A18F"/>
<path d="M46.99 32.69H54.63L63.92 55.34H64.3L73.57 32.69H81.21V64.88H75.22V43.24H74.92L66.26 64.76H61.95L53.27 43.18H52.99V64.89H46.99V32.69Z" fill="#B2A18F"/>
</svg>
