<svg width="100" height="100" viewBox="0 0 100 100" fill="none" xmlns="http://www.w3.org/2000/svg">
<path d="M72.13 5.74H27.87C15.6479 5.74 5.74 15.6479 5.74 27.87V72.13C5.74 84.3521 15.6479 94.26 27.87 94.26H72.13C84.3521 94.26 94.26 84.3521 94.26 72.13V27.87C94.26 15.6479 84.3521 5.74 72.13 5.74Z" fill="#242021"/>
<path d="M72.13 95H27.87C15.26 95 5 84.74 5 72.13V27.87C5 15.26 15.26 5 27.87 5H72.13C84.74 5 95 15.26 95 27.87V72.13C95 84.74 84.74 95 72.13 95ZM27.87 6.48C16.07 6.48 6.48 16.08 6.48 27.87V72.13C6.48 83.93 16.08 93.52 27.87 93.52H72.13C83.93 93.52 93.52 83.92 93.52 72.13V27.87C93.52 16.07 83.92 6.48 72.13 6.48H27.87Z" fill="#665F59"/>
<path d="M33.87 65.32C32.54 65.3 31.22 65.04 29.92 64.54C28.62 64.04 27.44 63.21 26.38 62.05C25.32 60.89 24.47 59.33 23.83 57.37C23.19 55.42 22.87 52.98 22.87 50.07C22.87 47.31 23.12 44.84 23.63 42.64C24.14 40.44 24.88 38.57 25.85 37.03C26.82 35.48 28.02 34.3 29.44 33.48C30.86 32.66 32.49 32.25 34.32 32.25C36.15 32.25 37.67 32.61 39.05 33.33C40.43 34.05 41.55 35.05 42.41 36.32C43.27 37.6 43.82 39.07 44.06 40.74H40.6C40.28 39.19 39.58 37.91 38.53 36.9C37.47 35.89 36.07 35.38 34.32 35.38C31.76 35.38 29.77 36.52 28.33 38.8C26.89 41.08 26.17 44.29 26.16 48.44H26.4C26.96 47.53 27.64 46.74 28.45 46.08C29.26 45.42 30.17 44.91 31.18 44.55C32.19 44.19 33.25 44.01 34.37 44.01C36.19 44.01 37.86 44.47 39.37 45.38C40.88 46.29 42.09 47.55 43 49.14C43.91 50.74 44.37 52.56 44.37 54.6C44.37 56.64 43.93 58.37 43.06 60.01C42.18 61.64 40.96 62.94 39.39 63.91C37.82 64.87 35.97 65.35 33.86 65.32H33.87ZM33.87 62.2C35.21 62.2 36.42 61.86 37.49 61.18C38.56 60.5 39.42 59.58 40.04 58.44C40.67 57.29 40.98 56.02 40.98 54.61C40.98 53.2 40.67 51.99 40.06 50.85C39.45 49.72 38.61 48.82 37.55 48.15C36.49 47.48 35.28 47.14 33.93 47.14C32.9 47.14 31.95 47.34 31.07 47.75C30.19 48.16 29.42 48.72 28.76 49.42C28.1 50.12 27.59 50.94 27.24 51.85C26.88 52.76 26.72 53.72 26.74 54.73C26.79 56.08 27.13 57.33 27.75 58.46C28.37 59.6 29.21 60.5 30.27 61.18C31.33 61.86 32.53 62.19 33.87 62.19V62.2Z" fill="#665F59"/>
<path d="M51.38 64.88V32.69H54.88V47.2H72.48V32.69H76V64.88H72.48V50.32H54.88V64.88H51.38Z" fill="#665F59"/>
</svg>
