<svg width="100" height="100" viewBox="0 0 100 100" fill="none" xmlns="http://www.w3.org/2000/svg">
<path d="M72.13 5.74H27.87C15.6479 5.74 5.74 15.6479 5.74 27.87V72.13C5.74 84.3521 15.6479 94.26 27.87 94.26H72.13C84.3521 94.26 94.26 84.3521 94.26 72.13V27.87C94.26 15.6479 84.3521 5.74 72.13 5.74Z" fill="#181616"/>
<path d="M72.13 95H27.87C15.26 95 5 84.74 5 72.13V27.87C5 15.26 15.26 5 27.87 5H72.13C84.74 5 95 15.26 95 27.87V72.13C95 84.74 84.74 95 72.13 95ZM27.87 6.48C16.07 6.48 6.48 16.08 6.48 27.87V72.13C6.48 83.93 16.08 93.52 27.87 93.52H72.13C83.93 93.52 93.52 83.92 93.52 72.13V27.87C93.52 16.07 83.92 6.48 72.13 6.48H27.87Z" fill="#665F59"/>
<path d="M33.84 65.32C32.26 65.31 30.72 65.04 29.22 64.5C27.72 63.97 26.38 63.09 25.19 61.88C24 60.67 23.06 59.06 22.36 57.06C21.66 55.05 21.32 52.57 21.33 49.62C21.33 46.89 21.63 44.44 22.23 42.3C22.83 40.15 23.69 38.33 24.81 36.85C25.93 35.36 27.28 34.22 28.85 33.44C30.42 32.65 32.19 32.26 34.15 32.26C36.21 32.26 38.05 32.67 39.64 33.48C41.24 34.29 42.53 35.4 43.51 36.79C44.49 38.18 45.09 39.76 45.31 41.51H39.2C38.92 40.32 38.34 39.37 37.46 38.67C36.58 37.97 35.48 37.63 34.16 37.63C31.98 37.63 30.31 38.58 29.16 40.47C28.01 42.36 27.42 44.95 27.4 48.24H27.62C28.12 47.3 28.78 46.49 29.6 45.83C30.42 45.17 31.35 44.65 32.39 44.29C33.43 43.93 34.54 43.75 35.7 43.75C37.6 43.75 39.29 44.2 40.78 45.1C42.27 46 43.46 47.24 44.33 48.81C45.2 50.38 45.64 52.18 45.63 54.2C45.64 56.34 45.15 58.25 44.16 59.94C43.17 61.63 41.79 62.95 40.03 63.92C38.26 64.88 36.21 65.36 33.86 65.35L33.84 65.32ZM33.81 60.36C34.91 60.36 35.9 60.09 36.77 59.56C37.64 59.03 38.33 58.3 38.84 57.39C39.34 56.48 39.59 55.46 39.58 54.33C39.59 53.22 39.35 52.21 38.86 51.31C38.37 50.41 37.69 49.69 36.83 49.16C35.97 48.63 34.99 48.37 33.87 48.37C33.05 48.37 32.29 48.53 31.58 48.84C30.87 49.15 30.25 49.59 29.73 50.14C29.2 50.69 28.79 51.33 28.49 52.05C28.19 52.77 28.04 53.55 28.04 54.38C28.04 55.46 28.29 56.45 28.79 57.37C29.29 58.28 29.98 59.01 30.85 59.55C31.72 60.09 32.7 60.37 33.81 60.37V60.36Z" fill="#B2A18F"/>
<path d="M50.99 64.88V32.69H57.21V46.18H71.69V32.69H77.91V64.88H71.69V51.36H57.21V64.88H50.99Z" fill="#B2A18F"/>
</svg>
