<svg width="100" height="40" viewBox="0 0 100 40" fill="none" xmlns="http://www.w3.org/2000/svg">
<path d="M80.33 6.00004H19.67C17.0908 6.00004 15 8.09087 15 10.67V29.33C15 31.9092 17.0908 34 19.67 34H80.33C82.9092 34 85 31.9092 85 29.33V10.67C85 8.09087 82.9092 6.00004 80.33 6.00004Z" fill="#181616"/>
<path d="M19.67 34.47C16.84 34.47 14.54 32.17 14.54 29.34V10.67C14.54 7.84004 16.84 5.54004 19.67 5.54004H80.34C83.17 5.54004 85.47 7.84004 85.47 10.67V29.34C85.47 32.17 83.17 34.47 80.34 34.47H19.67ZM19.67 6.47004C17.35 6.47004 15.47 8.35004 15.47 10.67V29.34C15.47 31.66 17.35 33.54 19.67 33.54H80.34C82.66 33.54 84.54 31.66 84.54 29.34V10.67C84.54 8.35004 82.66 6.47004 80.34 6.47004H19.67Z" fill="#665F59"/>
<path d="M27.25 25.88H26.76L32.06 13.15H32.7L38 25.88H37.51L32.41 13.65H32.35L27.25 25.88ZM28.93 21.18H35.83V21.58H28.93V21.18Z" fill="#B2A18F"/>
<path d="M40.99 13.16H41.4L47.46 25.29H47.52L53.58 13.16H53.99V25.89H53.53V14.41H53.47L47.73 25.89H47.27L41.53 14.41H41.47V25.89H41.01V13.16H40.99Z" fill="#B2A18F"/>
<path d="M58.61 13.16H59.02L65.08 25.29H65.14L71.2 13.16H71.61V25.89H71.15V14.41H71.09L65.35 25.89H64.89L59.15 14.41H59.09V25.89H58.63V13.16H58.61Z" fill="#B2A18F"/>
</svg>
