<svg width="140" height="260" viewBox="0 0 140 260" fill="none" xmlns="http://www.w3.org/2000/svg">
<rect x="0.5" y="0.5" width="139" height="259" rx="4.5" stroke="#9747FF" stroke-dasharray="10 5"/>
<path d="M69.9901 117.37C69.7301 117.37 69.4601 117.34 69.2001 117.28C49.7601 112.64 31.9801 105.59 27.9801 70.8599C26.4701 57.4999 27.9201 44.1899 27.9801 43.6399C28.1701 41.9299 29.6201 40.6299 31.3401 40.6299C56.5101 40.6299 66.6901 24.8899 67.1101 24.2199C67.7301 23.2299 68.8201 22.6299 69.9801 22.6299H69.9901C71.1601 22.6299 72.2501 23.2399 72.8601 24.2299C73.2701 24.8899 83.4501 40.6199 108.62 40.6199C110.34 40.6199 111.79 41.9199 111.98 43.6299C112.04 44.1899 113.49 57.4899 111.98 70.8499C107.98 105.62 90.2001 112.65 70.7601 117.28C70.5001 117.34 70.2401 117.37 69.9801 117.37H69.9901ZM34.4601 47.3199C34.1301 51.8799 33.6901 61.0999 34.7101 70.0899C38.1701 100.13 52.0801 106.16 69.9901 110.51C87.9001 106.17 101.81 100.15 105.27 70.0899C106.29 61.0999 105.86 51.8899 105.52 47.3299C86.0201 46.4099 74.8301 36.9199 69.9801 31.5099C65.1301 36.9299 53.9501 46.4099 34.4401 47.3299L34.4601 47.3199Z" fill="#00FFB7"/>
<path d="M68.8401 93.6199C67.9701 93.6199 67.1101 93.2899 66.4501 92.6299L46.2101 72.3899C44.8901 71.0699 44.8901 68.9299 46.2101 67.5999C47.5301 66.2799 49.6701 66.2799 51.0001 67.5999L68.8401 85.4399L106.92 47.3599C108.24 46.0399 110.38 46.0399 111.71 47.3599C113.03 48.6799 113.03 50.8199 111.71 52.1499L71.2401 92.6199C70.5801 93.2799 69.7101 93.6099 68.8501 93.6099L68.8401 93.6199Z" fill="#00FFB7"/>
</svg>
