<svg width="100" height="100" viewBox="0 0 100 100" fill="none" xmlns="http://www.w3.org/2000/svg">
<path d="M50 98C76.5097 98 98 76.5097 98 50C98 23.4903 76.5097 2 50 2C23.4903 2 2 23.4903 2 50C2 76.5097 23.4903 98 50 98Z" fill="black"/>
<path d="M37.42 44.79L44.78 37.45L50.01 32.22L62.54 44.79L69.83 37.45L50.01 17.6L30.13 37.45L37.42 44.79Z" fill="#EDB70D"/>
<path d="M50.0148 42.6702L42.6892 49.9959L50.0148 57.3215L57.3404 49.9959L50.0148 42.6702Z" fill="#EDB70D"/>
<path d="M62.54 55.25L50.01 67.78L44.8 62.57L37.42 55.25L30.13 62.55L50.01 82.4L69.83 62.55L62.54 55.25Z" fill="#EDB70D"/>
<path d="M24.9035 42.6898L17.5779 50.0154L24.9035 57.3411L32.2291 50.0154L24.9035 42.6898Z" fill="#EDB70D"/>
<path d="M75.0961 42.6972L67.7705 50.0228L75.0961 57.3485L82.4218 50.0228L75.0961 42.6972Z" fill="#EDB70D"/>
</svg>
