<svg width="100" height="100" viewBox="0 0 100 100" fill="none" xmlns="http://www.w3.org/2000/svg">
<path d="M50 2C76.51 2 98 23.49 98 50C98 76.51 76.51 98 50 98C23.49 98 2 76.51 2 50C2 23.49 23.49 2 50 2Z" fill="#EDB70D"/>
<path d="M37.58 44.84L44.85 37.6L50.01 32.44L62.38 44.84L69.58 37.6L50.01 18L30.38 37.6L37.58 44.84Z" fill="white"/>
<path d="M50.0177 42.7622L42.7911 49.9888L50.0177 57.2154L57.2444 49.9888L50.0177 42.7622Z" fill="white"/>
<path d="M62.38 55.17L50.01 67.54L45.66 63.2L44.86 62.4L37.58 55.17L30.38 62.37L50.01 81.97L69.58 62.37L62.38 55.17Z" fill="white"/>
<path d="M25.2327 42.7855L18.0061 50.0121L25.2327 57.2387L32.4593 50.0121L25.2327 42.7855Z" fill="white"/>
<path d="M74.7657 42.7783L67.5391 50.005L74.7657 57.2316L81.9923 50.005L74.7657 42.7783Z" fill="white"/>
</svg>
