<svg width="100" height="100" viewBox="0 0 100 100" fill="none" xmlns="http://www.w3.org/2000/svg">
<path d="M34.47 43.57L43.56 34.51L45.47 32.6L50.01 28.05L65.48 43.57L74.48 34.51L50.01 10L25.46 34.51L34.47 43.57Z" fill="#665F59"/>
<path d="M50.0219 40.962L40.978 50.0059L50.0219 59.0498L59.0658 50.0059L50.0219 40.962Z" fill="#665F59"/>
<path d="M65.48 56.49L50.01 71.96L43.58 65.52L34.47 56.49L25.46 65.49L50.01 90L74.48 65.49L65.48 56.49Z" fill="#665F59"/>
<path d="M19.0257 40.9764L9.98181 50.0203L19.0257 59.0642L28.0696 50.0203L19.0257 40.9764Z" fill="#665F59"/>
<path d="M80.988 40.9741L71.9441 50.018L80.988 59.0619L90.0319 50.018L80.988 40.9741Z" fill="#665F59"/>
</svg>
