<svg width="100" height="100" viewBox="0 0 100 100" fill="none" xmlns="http://www.w3.org/2000/svg">
<path d="M50 97.3699C49.74 97.3699 49.47 97.3399 49.21 97.2799C29.77 92.6399 11.99 85.5899 7.98999 50.8599C6.46999 37.4999 7.92999 24.1899 7.98999 23.6399C8.17999 21.9299 9.62999 20.6299 11.35 20.6299C36.52 20.6299 46.7 4.88988 47.12 4.21988C47.74 3.22988 48.83 2.62988 49.99 2.62988H50C51.17 2.62988 52.26 3.23988 52.87 4.22988C53.28 4.88988 63.46 20.6199 88.63 20.6199C90.35 20.6199 91.8 21.9199 91.99 23.6299C92.05 24.1899 93.5 37.4899 91.99 50.8499C87.99 85.6199 70.21 92.6499 50.77 97.2799C50.51 97.3399 50.25 97.3699 49.99 97.3699H50ZM14.46 27.3199C14.13 31.8799 13.69 41.0999 14.71 50.0899C18.17 80.1299 32.08 86.1599 49.99 90.5099C67.9 86.1699 81.81 80.1499 85.27 50.0899C86.29 41.0999 85.86 31.8899 85.52 27.3299C66.02 26.4099 54.83 16.9199 49.98 11.5099C45.13 16.9299 33.95 26.4099 14.44 27.3299L14.46 27.3199Z" fill="#FD008B"/>
<path d="M29.76 73.6199C28.89 73.6199 28.03 73.2899 27.37 72.6299C26.05 71.3099 26.05 69.1699 27.37 67.8399L67.84 27.3699C69.16 26.0499 71.3 26.0499 72.63 27.3699C73.95 28.6899 73.95 30.8299 72.63 32.1599L32.16 72.6299C31.5 73.2899 30.63 73.6199 29.77 73.6199H29.76Z" fill="#FD008B"/>
<path d="M70.24 73.6199C69.37 73.6199 68.51 73.2899 67.85 72.6299L27.37 32.1599C26.05 30.8399 26.05 28.6999 27.37 27.3699C28.69 26.0499 30.83 26.0499 32.16 27.3699L72.63 67.8399C73.95 69.1599 73.95 71.2999 72.63 72.6299C71.97 73.2899 71.1 73.6199 70.24 73.6199Z" fill="#FD008B"/>
</svg>
