<svg width="100" height="40" viewBox="0 0 100 40" fill="none" xmlns="http://www.w3.org/2000/svg">
<path d="M80.8 6.47H20.14C17.5608 6.47 15.47 8.56083 15.47 11.14V29.8C15.47 32.3792 17.5608 34.47 20.14 34.47H80.8C83.3792 34.47 85.47 32.3792 85.47 29.8V11.14C85.47 8.56083 83.3792 6.47 80.8 6.47Z" fill="#181616"/>
<path d="M80.8 34.93H20.13C17.3 34.93 15 32.63 15 29.8V11.13C15 8.3 17.3 6 20.13 6H80.8C83.63 6 85.93 8.3 85.93 11.13V29.8C85.93 32.63 83.63 34.93 80.8 34.93ZM20.13 6.93C17.82 6.93 15.93 8.82 15.93 11.13V29.8C15.93 32.12 17.81 34 20.13 34H80.8C83.12 34 85 32.12 85 29.8V11.13C85 8.81 83.12 6.93 80.8 6.93H20.13Z" fill="#665F59"/>
<path d="M35.51 17.6H35.09C35.01 17.18 34.86 16.75 34.63 16.31C34.4 15.87 34.1 15.46 33.72 15.09C33.34 14.72 32.9 14.42 32.38 14.19C31.87 13.96 31.28 13.85 30.63 13.85C29.76 13.85 28.96 14.09 28.21 14.56C27.47 15.03 26.88 15.73 26.43 16.64C25.98 17.55 25.76 18.67 25.76 19.99C25.76 21.31 25.99 22.45 26.43 23.36C26.88 24.27 27.47 24.96 28.21 25.43C28.95 25.9 29.75 26.13 30.63 26.13C31.28 26.13 31.86 26.02 32.38 25.79C32.89 25.56 33.34 25.27 33.72 24.89C34.1 24.52 34.4 24.11 34.63 23.67C34.86 23.23 35.01 22.79 35.09 22.37H35.51C35.43 22.82 35.27 23.28 35.04 23.77C34.8 24.25 34.48 24.7 34.08 25.12C33.68 25.54 33.19 25.88 32.62 26.14C32.05 26.4 31.39 26.53 30.64 26.53C29.6 26.53 28.68 26.26 27.89 25.71C27.1 25.16 26.48 24.4 26.04 23.42C25.6 22.44 25.37 21.3 25.37 20C25.37 18.7 25.59 17.56 26.04 16.58C26.48 15.6 27.1 14.83 27.89 14.29C28.68 13.74 29.6 13.47 30.64 13.47C31.39 13.47 32.05 13.6 32.62 13.86C33.19 14.12 33.68 14.45 34.08 14.87C34.48 15.29 34.8 15.74 35.04 16.22C35.28 16.7 35.43 17.17 35.51 17.63V17.6Z" fill="#B2A18F"/>
<path d="M38.75 26.35V13.62H39.15V25.95H45.51V26.35H38.75Z" fill="#B2A18F"/>
<path d="M48.59 13.62H48.94L54.14 25.75H54.19L59.39 13.62H59.74V26.35H59.34V14.87H59.29L54.37 26.35H53.97L49.05 14.87H49V26.35H48.6V13.62H48.59Z" fill="#B2A18F"/>
<path d="M63.7 13.62H64.05L69.25 25.75H69.3L74.5 13.62H74.85V26.35H74.45V14.87H74.4L69.48 26.35H69.08L64.16 14.87H64.11V26.35H63.71V13.62H63.7Z" fill="#B2A18F"/>
</svg>
