<svg width="100" height="40" viewBox="0 0 100 40" fill="none" xmlns="http://www.w3.org/2000/svg">
<path d="M91.99 6.00004H8C5.42083 6.00004 3.33 8.09087 3.33 10.67V29.33C3.33 31.9092 5.42083 34 8 34H91.99C94.5692 34 96.66 31.9092 96.66 29.33V10.67C96.66 8.09087 94.5692 6.00004 91.99 6.00004Z" fill="#181616"/>
<path d="M92 34.47H8C5.17 34.47 2.87 32.17 2.87 29.34V10.67C2.87 7.84004 5.17 5.54004 8 5.54004H92C94.83 5.54004 97.13 7.84004 97.13 10.67V29.34C97.13 32.17 94.83 34.47 92 34.47ZM8 6.47004C5.68 6.47004 3.8 8.35004 3.8 10.67V29.34C3.8 31.66 5.68 33.54 8 33.54H92C94.32 33.54 96.2 31.66 96.2 29.34V10.67C96.2 8.35004 94.32 6.47004 92 6.47004H8Z" fill="#665F59"/>
<path d="M15.4 25.88V13.15H19.38C20.09 13.15 20.7 13.28 21.21 13.54C21.72 13.8 22.11 14.17 22.38 14.65C22.65 15.13 22.79 15.71 22.79 16.38C22.79 16.88 22.71 17.34 22.56 17.75C22.41 18.17 22.19 18.52 21.9 18.8C21.61 19.08 21.26 19.28 20.85 19.38V19.43C21.31 19.47 21.72 19.63 22.09 19.91C22.46 20.19 22.75 20.56 22.96 21.03C23.17 21.49 23.28 22.02 23.28 22.61C23.28 23.26 23.14 23.84 22.87 24.33C22.6 24.82 22.2 25.2 21.68 25.47C21.16 25.74 20.54 25.87 19.81 25.87H15.41L15.4 25.88ZM15.79 19.22H19.79C20.37 19.22 20.85 19.09 21.23 18.83C21.61 18.57 21.9 18.22 22.09 17.79C22.28 17.36 22.38 16.89 22.38 16.39C22.38 15.49 22.11 14.79 21.57 14.3C21.03 13.81 20.3 13.56 19.37 13.56H15.79V19.23V19.22ZM15.79 25.48H19.79C20.72 25.48 21.47 25.22 22.03 24.69C22.59 24.17 22.87 23.48 22.87 22.62C22.87 22.03 22.74 21.51 22.47 21.06C22.2 20.61 21.84 20.25 21.38 20C20.92 19.75 20.39 19.61 19.79 19.61H15.79V25.48Z" fill="#B2A18F"/>
<path d="M26.83 25.96C26.71 25.96 26.6 25.92 26.51 25.83C26.42 25.74 26.38 25.64 26.38 25.51C26.38 25.38 26.42 25.28 26.51 25.19C26.6 25.1 26.7 25.06 26.83 25.06C26.96 25.06 27.06 25.1 27.15 25.19C27.24 25.28 27.28 25.38 27.28 25.51C27.28 25.59 27.26 25.67 27.22 25.74C27.18 25.81 27.13 25.86 27.06 25.9C26.99 25.94 26.92 25.96 26.83 25.96Z" fill="#B2A18F"/>
<path d="M40.45 17.13H40.03C39.95 16.71 39.8 16.28 39.57 15.84C39.34 15.4 39.04 14.99 38.66 14.62C38.28 14.25 37.84 13.95 37.32 13.72C36.81 13.49 36.22 13.38 35.57 13.38C34.7 13.38 33.9 13.62 33.15 14.09C32.41 14.56 31.82 15.26 31.37 16.17C30.92 17.08 30.7 18.2 30.7 19.52C30.7 20.84 30.93 21.98 31.37 22.89C31.82 23.8 32.41 24.49 33.15 24.96C33.89 25.43 34.69 25.66 35.57 25.66C36.22 25.66 36.8 25.55 37.32 25.32C37.83 25.09 38.28 24.8 38.66 24.42C39.04 24.05 39.34 23.64 39.57 23.2C39.8 22.76 39.95 22.32 40.03 21.9H40.45C40.37 22.35 40.21 22.81 39.98 23.3C39.74 23.78 39.42 24.23 39.02 24.65C38.62 25.07 38.13 25.41 37.56 25.67C36.99 25.93 36.33 26.06 35.58 26.06C34.54 26.06 33.62 25.79 32.83 25.24C32.04 24.69 31.42 23.93 30.98 22.95C30.54 21.97 30.31 20.83 30.31 19.53C30.31 18.23 30.53 17.09 30.98 16.11C31.42 15.13 32.04 14.36 32.83 13.82C33.62 13.27 34.54 13 35.58 13C36.33 13 36.99 13.13 37.56 13.39C38.13 13.65 38.62 13.98 39.02 14.4C39.42 14.82 39.74 15.27 39.98 15.75C40.22 16.23 40.37 16.7 40.45 17.16V17.13Z" fill="#B2A18F"/>
<path d="M52.83 13.16V21.59C52.83 22.45 52.63 23.22 52.23 23.9C51.83 24.58 51.29 25.11 50.6 25.5C49.91 25.89 49.13 26.09 48.26 26.09C47.39 26.09 46.62 25.89 45.92 25.5C45.23 25.11 44.68 24.57 44.28 23.89C43.88 23.21 43.68 22.45 43.68 21.59V13.16H44.08V21.59C44.08 22.38 44.26 23.08 44.62 23.7C44.98 24.32 45.48 24.8 46.11 25.16C46.74 25.52 47.45 25.69 48.25 25.69C49.05 25.69 49.76 25.51 50.39 25.16C51.02 24.8 51.52 24.32 51.88 23.7C52.24 23.08 52.42 22.38 52.42 21.59V13.16H52.83Z" fill="#B2A18F"/>
<path d="M56.81 25.88V13.15H60.54C61.25 13.15 61.88 13.3 62.43 13.6C62.98 13.9 63.41 14.33 63.72 14.87C64.03 15.41 64.19 16.05 64.19 16.78C64.19 17.51 64.03 18.13 63.72 18.67C63.41 19.21 62.98 19.63 62.43 19.93C61.88 20.23 61.25 20.38 60.54 20.38H57.01V19.98H60.54C61.18 19.98 61.74 19.85 62.23 19.58C62.72 19.31 63.1 18.94 63.38 18.46C63.66 17.98 63.8 17.42 63.8 16.77C63.8 16.12 63.66 15.55 63.38 15.07C63.1 14.59 62.72 14.21 62.23 13.94C61.74 13.67 61.18 13.54 60.54 13.54H57.21V25.87H56.81V25.88ZM61.66 20.09L64.79 25.88H64.34L61.21 20.09H61.66Z" fill="#B2A18F"/>
<path d="M66.58 13.16L70.96 25.39H71.01L75.39 13.16H75.81L71.26 25.89H70.71L66.16 13.16H66.58Z" fill="#B2A18F"/>
<path d="M78.36 13.15H85.15V13.55H78.76V19.32H84.78V19.72H78.76V25.49H85.32V25.89H78.36V13.15Z" fill="#B2A18F"/>
</svg>
