<svg width="100" height="100" viewBox="0 0 100 100" fill="none" xmlns="http://www.w3.org/2000/svg">
<path d="M72.13 5.74H27.87C15.6479 5.74 5.74 15.6479 5.74 27.87V72.13C5.74 84.3521 15.6479 94.26 27.87 94.26H72.13C84.3521 94.26 94.26 84.3521 94.26 72.13V27.87C94.26 15.6479 84.3521 5.74 72.13 5.74Z" fill="#242021"/>
<path d="M72.13 95H27.87C15.26 95 5 84.74 5 72.13V27.87C5 15.26 15.26 5 27.87 5H72.13C84.74 5 95 15.26 95 27.87V72.13C95 84.74 84.74 95 72.13 95ZM27.87 6.48C16.07 6.48 6.48 16.08 6.48 27.87V72.13C6.48 83.93 16.08 93.52 27.87 93.52H72.13C83.93 93.52 93.52 83.92 93.52 72.13V27.87C93.52 16.07 83.92 6.48 72.13 6.48H27.87Z" fill="#665F59"/>
<path d="M38.16 64.88V32.69H48.38C51.48 32.69 54.14 33.33 56.34 34.62C58.55 35.9 60.24 37.74 61.42 40.13C62.6 42.52 63.19 45.38 63.19 48.71C63.18 52.07 62.58 54.96 61.39 57.38C60.2 59.8 58.47 61.65 56.19 62.94C53.91 64.23 51.15 64.88 47.9 64.88H38.16ZM41.67 61.76H47.67C50.37 61.76 52.62 61.23 54.41 60.18C56.2 59.13 57.54 57.63 58.43 55.68C59.32 53.73 59.77 51.41 59.77 48.71C59.77 46.01 59.33 43.75 58.46 41.83C57.58 39.9 56.29 38.42 54.57 37.38C52.85 36.34 50.71 35.82 48.16 35.82H41.67V61.76Z" fill="#665F59"/>
</svg>
