<svg width="100" height="100" viewBox="0 0 100 100" fill="none" xmlns="http://www.w3.org/2000/svg">
<path d="M71.45 19.84C71.09 18.94 70.4 18.37 69.26 18.38C68.3 18.38 67.44 18.99 67.11 19.89L55.45 50.98L48.22 29.28C47.91 28.35 47.06 27.72 46.08 27.69C45.12 27.72 44.21 28.24 43.85 29.15L36.46 47.61L34.12 42.94C33.72 42.15 32.92 41.65 32.04 41.65H25.06C23.77 41.65 22.73 42.69 22.73 43.98C22.73 45.27 23.77 46.31 25.06 46.31H30.6L34.61 54.33C35.02 55.15 35.81 55.59 36.79 55.62C37.7 55.58 38.51 55.01 38.85 54.16L45.8 36.78L53.1 58.68C53.41 59.62 54.28 60.25 55.26 60.27H55.3C56.27 60.27 57.14 59.67 57.48 58.76L69.34 27.14L76.42 44.84C76.77 45.72 77.62 46.3 78.57 46.3L85.55 46.34C86.84 46.34 87.88 45.31 87.89 44.03C87.89 42.74 86.86 41.7 85.58 41.69L80.16 41.66L71.43 19.84H71.45Z" fill="#B2A18F"/>
<path d="M88.56 72.15L70.99 54.58C69.23 52.82 66.38 52.82 64.63 54.58C62.87 56.34 62.87 59.19 64.63 60.94L82.2 78.51C82.72 79.03 83 79.72 83 80.45C83 81.18 82.71 81.87 82.2 82.39C81.16 83.43 79.32 83.39 78.35 82.42L61.08 64.78L61.01 64.71C60.94 64.64 60.85 64.58 60.78 64.51C60.64 64.39 60.51 64.26 60.36 64.16C60.25 64.08 60.12 64.02 60 63.95C59.87 63.88 59.74 63.79 59.6 63.73C59.46 63.67 59.32 63.63 59.18 63.59C59.04 63.55 58.91 63.5 58.77 63.46C58.63 63.43 58.49 63.42 58.35 63.4C58.2 63.38 58.05 63.36 57.9 63.35C57.77 63.35 57.64 63.36 57.51 63.37C57.35 63.37 57.19 63.38 57.04 63.41C56.9 63.43 56.77 63.48 56.64 63.51C56.49 63.55 56.35 63.58 56.2 63.64C56.05 63.7 55.9 63.78 55.76 63.85C55.65 63.9 55.54 63.94 55.44 64C47.45 68.89 37.45 69.03 29.35 64.35C23.45 60.94 19.23 55.45 17.47 48.87C15.71 42.29 16.61 35.42 20.02 29.52C27.05 17.34 42.67 13.15 54.85 20.19C57 21.43 59.75 20.69 61 18.54C62.24 16.39 61.5 13.64 59.35 12.39C42.87 2.90999 21.72 8.57998 12.21 25.05C7.6 33.03 6.38 42.33 8.76 51.23C11.14 60.13 16.85 67.57 24.83 72.18C30.18 75.27 36.13 76.8 42.08 76.8C47.16 76.8 52.22 75.66 56.92 73.43L71.94 88.77C74.16 90.99 77.11 92.21 80.25 92.21C83.39 92.21 86.34 90.99 88.55 88.77C90.76 86.55 91.99 83.6 91.99 80.46C91.99 77.32 90.77 74.37 88.55 72.15H88.56Z" fill="#B2A18F"/>
</svg>
