<svg width="100" height="100" viewBox="0 0 100 100" fill="none" xmlns="http://www.w3.org/2000/svg">
<path d="M81.95 73.2101C81.95 72.6801 81.83 72.1601 81.6 71.6901C81.37 71.2201 81.04 70.8001 80.63 70.4701C76.74 67.3701 74.4701 62.6701 74.4701 57.7001V42.0001C74.4701 35.2401 71.7301 29.1301 67.3001 24.7001C63.8401 21.2401 59.3501 18.8101 54.3301 17.9201V15.1401C54.3301 12.7501 52.39 10.8101 50 10.8101C47.6101 10.8101 45.67 12.7501 45.67 15.1401V17.9301C34.25 20.0101 25.5301 30.1701 25.5301 42.1701V57.7101C25.5301 60.2001 24.96 62.6201 23.91 64.8001C22.86 66.9801 21.3101 68.9301 19.3701 70.4801C18.9501 70.8101 18.62 71.2301 18.4 71.7001C18.17 72.1701 18.05 72.6901 18.05 73.2201C18.05 75.1501 19.6201 76.7101 21.5401 76.7101H78.45C80.38 76.7101 81.9401 75.1501 81.9401 73.2201L81.95 73.2101Z" fill="#665F59"/>
<path d="M60.1301 79.0701H39.87C39.87 84.6701 44.41 89.2001 50 89.2001C55.59 89.2001 60.1301 84.6601 60.1301 79.0701Z" fill="#665F59"/>
</svg>
