<svg width="100" height="100" viewBox="0 0 100 100" fill="none" xmlns="http://www.w3.org/2000/svg">
<path d="M90.85 60.85C90.85 60.85 91.05 60.25 91.05 59.95C91.25 59.15 91.45 58.35 91.55 57.55C91.65 56.95 91.75 56.35 91.85 55.75C91.85 55.15 92.05 54.55 92.05 53.95C92.15 52.65 92.25 51.35 92.25 50.05C92.25 48.75 92.25 47.45 92.05 46.15C92.05 45.55 91.85 44.95 91.85 44.35C91.85 43.75 91.65 43.15 91.55 42.55C91.45 41.75 91.25 40.95 91.05 40.15C91.05 39.85 90.85 39.55 90.85 39.25C90.65 38.35 90.35 37.45 90.05 36.55C84.65 20.55 70.05 8.95 52.55 7.85C51.65 7.85 50.85 7.75 49.95 7.75C49.05 7.75 48.15 7.75 47.35 7.85C29.85 8.95 15.35 20.55 9.95 36.45C9.65 37.35 9.35 38.25 9.15 39.15C9.15 39.45 8.95 39.75 8.95 40.05C8.75 40.85 8.55 41.65 8.45 42.45C8.35 43.05 8.25 43.65 8.15 44.25C8.15 44.85 7.95 45.45 7.95 46.05C7.85 47.35 7.75 48.65 7.75 49.95C7.75 51.25 7.75 52.55 7.95 53.85C7.95 54.45 8.15 55.05 8.15 55.65C8.15 56.25 8.35 56.85 8.45 57.45C8.55 58.25 8.75 59.05 8.95 59.85C8.95 60.15 9.15 60.45 9.15 60.75C13.75 78.05 28.95 90.95 47.35 92.15C48.25 92.15 49.05 92.25 49.95 92.25C50.85 92.25 51.75 92.25 52.55 92.15C70.95 91.05 86.25 78.05 90.75 60.75L90.85 60.85ZM79.15 69.65C79.15 69.65 78.55 70.45 78.25 70.85C77.85 71.35 77.55 71.85 77.15 72.35C76.85 72.75 76.45 73.15 76.15 73.45C75.75 73.95 75.35 74.35 74.95 74.85C74.55 75.25 74.25 75.55 73.85 75.85C73.45 76.25 72.95 76.65 72.45 77.05C72.05 77.35 71.65 77.65 71.25 77.95C70.75 78.35 70.25 78.65 69.75 79.05C69.35 79.35 68.85 79.65 68.45 79.85C67.95 80.15 67.45 80.45 66.85 80.75C66.35 81.05 65.95 81.25 65.45 81.45C64.95 81.75 64.35 81.95 63.85 82.25C63.35 82.45 62.85 82.65 62.35 82.85C61.75 83.05 61.25 83.25 60.65 83.45C60.15 83.65 59.65 83.75 59.05 83.85H58.85C62.35 78.55 64.95 72.75 66.75 66.55C71.75 66.15 76.75 65.55 81.75 64.85C81.45 65.45 81.25 66.05 80.95 66.55C80.75 66.95 80.45 67.45 80.15 67.85C79.85 68.35 79.55 68.95 79.15 69.45V69.65ZM39.25 83.55C38.65 83.35 38.15 83.15 37.55 82.95C37.05 82.75 36.55 82.55 36.05 82.35C35.45 82.15 34.95 81.85 34.45 81.55C33.95 81.35 33.45 81.05 33.05 80.85C32.55 80.55 32.05 80.25 31.55 79.95C31.15 79.65 30.65 79.45 30.25 79.15C29.75 78.85 29.25 78.45 28.85 78.05C28.45 77.75 28.05 77.45 27.65 77.15C27.15 76.75 26.75 76.35 26.35 75.95C25.95 75.65 25.55 75.25 25.25 74.85C24.85 74.45 24.45 73.95 24.05 73.45C23.75 73.05 23.35 72.75 23.05 72.35C22.65 71.85 22.35 71.35 21.95 70.85C21.65 70.45 21.35 70.05 21.05 69.65C20.75 69.15 20.35 68.55 20.05 68.05C19.75 67.65 19.55 67.25 19.25 66.75C18.95 66.15 18.65 65.65 18.45 65.05C23.35 65.75 28.35 66.35 33.45 66.75C35.15 72.95 37.85 78.85 41.35 84.05H41.15C40.65 83.95 40.05 83.75 39.55 83.65L39.25 83.55ZM19.75 32.15C20.05 31.65 20.35 31.05 20.75 30.55C21.05 30.15 21.35 29.75 21.65 29.35C22.05 28.85 22.35 28.35 22.75 27.85C23.05 27.45 23.45 27.05 23.75 26.75C24.15 26.25 24.55 25.85 24.95 25.35C25.35 24.95 25.65 24.65 26.05 24.35C26.45 23.95 26.95 23.55 27.45 23.15C27.85 22.85 28.25 22.55 28.65 22.25C29.15 21.85 29.65 21.55 30.15 21.15C30.55 20.85 31.05 20.55 31.45 20.35C31.95 20.05 32.45 19.75 32.95 19.45C33.45 19.15 33.85 18.95 34.35 18.75C34.85 18.45 35.45 18.25 35.95 17.95C36.45 17.75 36.95 17.55 37.45 17.35C38.05 17.15 38.55 16.95 39.15 16.75C39.65 16.55 40.15 16.45 40.75 16.35H40.95C37.45 21.65 34.85 27.45 33.05 33.65C28.05 34.05 23.05 34.65 18.05 35.35C18.35 34.75 18.55 34.15 18.85 33.65C19.05 33.25 19.35 32.75 19.65 32.35L19.75 32.15ZM60.65 16.55C61.25 16.75 61.75 16.95 62.35 17.15C62.85 17.35 63.35 17.55 63.85 17.75C64.45 17.95 64.95 18.25 65.45 18.55C65.95 18.75 66.35 18.95 66.85 19.25C67.35 19.55 67.85 19.85 68.45 20.15C68.85 20.45 69.35 20.65 69.75 20.95C70.25 21.25 70.75 21.65 71.25 22.05C71.65 22.35 72.05 22.65 72.45 22.95C72.95 23.35 73.35 23.75 73.85 24.15C74.25 24.45 74.65 24.85 74.95 25.15C75.35 25.55 75.75 26.05 76.15 26.55C76.45 26.95 76.85 27.25 77.15 27.65C77.55 28.15 77.95 28.65 78.25 29.15C78.55 29.55 78.85 29.95 79.15 30.35C79.55 30.85 79.85 31.45 80.15 31.95C80.45 32.35 80.65 32.75 80.95 33.25C81.25 33.85 81.55 34.35 81.75 34.95C76.85 34.25 71.85 33.65 66.75 33.25C65.05 27.05 62.35 21.15 58.85 15.95H59.05C59.55 16.05 60.15 16.25 60.65 16.35V16.55ZM84.35 57.45C79.05 58.35 73.65 59.05 68.35 59.45C68.85 56.35 69.15 53.25 69.15 50.05C69.15 46.85 68.85 43.75 68.35 40.65C73.65 41.15 79.05 41.85 84.35 42.65C84.85 45.05 85.15 47.55 85.15 49.95C85.15 52.35 84.85 54.85 84.35 57.25V57.45ZM49.95 60.35C46.25 60.35 42.55 60.25 38.85 60.05C38.25 56.85 37.95 53.45 37.95 50.15C37.95 46.85 38.25 43.45 38.85 40.25C42.55 40.05 46.25 39.95 49.95 39.95C53.65 39.95 57.35 40.05 61.05 40.25C61.65 43.45 61.95 46.85 61.95 50.15C61.95 53.45 61.65 56.85 61.05 60.05C57.35 60.25 53.65 60.35 49.95 60.35ZM59.15 67.25C57.15 73.45 54.05 79.15 49.95 84.35C45.85 79.15 42.75 73.45 40.75 67.25C43.85 67.35 46.85 67.45 49.95 67.45C53.05 67.45 56.15 67.45 59.15 67.25ZM40.75 32.95C42.75 26.75 45.85 21.05 49.95 15.85C54.05 21.05 57.15 26.75 59.15 32.95C56.05 32.85 53.05 32.75 49.95 32.75C46.85 32.75 43.75 32.75 40.75 32.95ZM15.55 42.75C20.85 41.85 26.25 41.15 31.55 40.75C31.05 43.85 30.75 46.95 30.75 50.15C30.75 53.35 31.05 56.45 31.55 59.55C26.25 59.05 20.85 58.35 15.55 57.55C15.05 55.15 14.75 52.65 14.75 50.25C14.75 47.85 15.05 45.35 15.55 42.95V42.75Z" fill="#B2A18F"/>
</svg>
