<svg width="100" height="100" viewBox="0 0 100 100" fill="none" xmlns="http://www.w3.org/2000/svg">
<path d="M8.22997 44.8499C8.22997 44.8499 50.26 27.5599 64.91 21.5199C70.48 19.0599 89.47 11.3199 89.47 11.3199C89.47 11.3199 98.25 7.91995 97.5 16.2299C97.22 19.6299 95.33 31.53 93.34 44.47C90.41 62.7 87.29 82.6299 87.29 82.6299C87.29 82.6299 86.82 88.1999 82.66 89.2399C78.5 90.1799 71.7 85.8399 70.47 84.8899C69.53 84.1299 52.24 73.18 45.91 67.8899C44.21 66.47 42.23 63.54 46.19 60.1399C54.97 52.11 65.37 42.0999 71.69 35.7699C74.62 32.8399 77.55 26.0399 65.36 34.3499C48.07 46.2499 31.07 57.49 31.07 57.49C31.07 57.49 27.2 59.95 19.92 57.77C12.65 55.6 4.14997 52.6699 4.14997 52.6699C4.14997 52.6699 -1.71003 48.99 8.30997 45.11L8.21997 44.83L8.22997 44.8499Z" fill="#B2A18F"/>
</svg>
