<svg width="100" height="100" viewBox="0 0 100 100" fill="none" xmlns="http://www.w3.org/2000/svg">
<path d="M73.7401 61.7101C69.48 61.7101 65.6801 63.5801 63.0101 66.4901L40.0901 53.2601C40.5301 51.8701 40.8401 50.4101 40.8401 48.8701C40.8401 47.3301 40.5401 45.8801 40.0901 44.4801L63.0101 31.2501C65.6801 34.1701 69.48 36.0401 73.7401 36.0401C81.7901 36.0401 88.3301 29.5001 88.3301 21.4501C88.3301 13.4001 81.7901 6.87012 73.7401 6.87012C65.6901 6.87012 59.1601 13.4101 59.1601 21.4501C59.1601 22.9901 59.4601 24.4401 59.9101 25.8301L36.9901 39.0601C34.3201 36.1401 30.5201 34.2801 26.2601 34.2801C18.2201 34.2801 11.6801 40.8201 11.6801 48.8701C11.6801 56.9201 18.2201 63.4501 26.2601 63.4501C30.5201 63.4501 34.3201 61.5901 36.9901 58.6701L59.9101 71.9001C59.4701 73.2901 59.1601 74.7401 59.1601 76.2801C59.1601 84.3201 65.7001 90.8701 73.7401 90.8701C81.7801 90.8701 88.3301 84.3301 88.3301 76.2801C88.3301 68.2301 81.7901 61.7001 73.7401 61.7001V61.7101Z" fill="#665F59"/>
</svg>
