<svg width="100" height="100" viewBox="0 0 100 100" fill="none" xmlns="http://www.w3.org/2000/svg">
<path d="M74.45 5.55005H44.4501C37.55 5.55005 31.45 9.05005 27.85 14.45H55.55C72.05 14.45 85.55 27.9501 85.55 44.4501V72.15C90.9501 68.55 94.45 62.4501 94.45 55.55V25.55C94.45 14.55 85.45 5.55005 74.45 5.55005Z" fill="#B2A18F"/>
<path d="M55.55 24.4501H25.55C14.5044 24.4501 5.55005 33.4044 5.55005 44.4501V74.45C5.55005 85.4957 14.5044 94.4501 25.55 94.4501H55.55C66.5957 94.4501 75.55 85.4957 75.55 74.45V44.4501C75.55 33.4044 66.5957 24.4501 55.55 24.4501Z" fill="#B2A18F"/>
</svg>
