<svg width="100" height="100" viewBox="0 0 100 100" fill="none" xmlns="http://www.w3.org/2000/svg">
<path d="M22 61.2C15.82 61.2 10.8 56.18 10.8 50C10.8 43.82 15.82 38.8 22 38.8H78C84.18 38.8 89.2 43.82 89.2 50C89.2 56.18 84.18 61.2 78 61.2H22Z" fill="#242021"/>
<path d="M78 39.6C83.73 39.6 88.4 44.27 88.4 50C88.4 55.73 83.73 60.4 78 60.4H22C16.27 60.4 11.6 55.73 11.6 50C11.6 44.27 16.27 39.6 22 39.6H78ZM78 38H22C15.37 38 10 43.37 10 50C10 56.63 15.37 62 22 62H78C84.63 62 90 56.63 90 50C90 43.37 84.63 38 78 38Z" fill="#665F59"/>
<path d="M34 74C47.2548 74 58 63.2548 58 50C58 36.7452 47.2548 26 34 26C20.7452 26 10 36.7452 10 50C10 63.2548 20.7452 74 34 74Z" fill="#B2A18F"/>
</svg>
