<svg width="240" height="100" viewBox="0 0 240 100" fill="none" xmlns="http://www.w3.org/2000/svg">
<mask id="path-1-inside-1_8_95" fill="white">
<path d="M0 9C0 4.02943 4.02944 0 9 0H231C235.971 0 240 4.02944 240 9V91C240 95.9706 235.971 100 231 100H9.00001C4.02944 100 0 95.9706 0 91V9Z"/>
</mask>
<path d="M0 9C0 4.02943 4.02944 0 9 0H231C235.971 0 240 4.02944 240 9V91C240 95.9706 235.971 100 231 100H9.00001C4.02944 100 0 95.9706 0 91V9Z" fill="#181616"/>
<path d="M9 0.4H231V-0.4H9V0.4ZM239.6 9V91H240.4V9H239.6ZM231 99.6H9.00001V100.4H231V99.6ZM0.4 91V9H-0.4V91H0.4ZM9.00001 99.6C4.25036 99.6 0.4 95.7496 0.4 91H-0.4C-0.4 96.1915 3.80853 100.4 9.00001 100.4V99.6ZM239.6 91C239.6 95.7496 235.75 99.6 231 99.6V100.4C236.191 100.4 240.4 96.1915 240.4 91H239.6ZM231 0.4C235.75 0.4 239.6 4.25035 239.6 9H240.4C240.4 3.80852 236.191 -0.4 231 -0.4V0.4ZM9 -0.4C3.80852 -0.4 -0.4 3.80852 -0.4 9H0.4C0.4 4.25035 4.25035 0.4 9 0.4V-0.4Z" fill="#141212" mask="url(#path-1-inside-1_8_95)"/>
<g clip-path="url(#clip0_8_95)">
<path d="M58.6315 46.1159C61.7182 46.1159 64.2205 43.5872 64.2205 40.4678C64.2205 37.3485 61.7182 34.8198 58.6315 34.8198C55.5448 34.8198 53.0425 37.3485 53.0425 40.4678C53.0425 43.5872 55.5448 46.1159 58.6315 46.1159Z" fill="#FF7700"/>
<path d="M47.9531 57.4523C45.9879 57.4523 44.0228 56.6444 42.6106 55.0557C41.3249 53.6151 40.6721 51.7504 40.772 49.8183C40.8719 47.8796 41.7113 46.1024 43.1368 44.8031L44.236 43.8001C44.3492 43.6991 44.4625 43.5981 44.5757 43.5039C45.0487 43.1269 45.2885 42.5412 45.2219 41.9353C45.1553 41.2824 44.7889 40.7573 44.236 40.4611C44.1427 40.4139 44.0561 40.3601 43.9629 40.313L42.5773 39.5051C39.1599 37.4923 37.9808 33.0426 39.9593 29.5757C41.9444 26.1088 46.341 24.9172 49.7783 26.9166L51.0573 27.6638C51.6102 27.987 52.1298 28.3909 52.5828 28.8486C52.8959 29.165 52.8959 29.6766 52.5828 29.9863C52.2697 30.3027 51.7635 30.3027 51.4504 29.9863C51.0906 29.6228 50.691 29.3131 50.2513 29.0573L48.9723 28.3101C46.301 26.755 42.877 27.6773 41.3382 30.3768C39.7994 33.0762 40.712 36.5364 43.3833 38.0915L44.7689 38.8993C44.8422 38.9397 44.9088 38.9801 44.9821 39.0205C46.0079 39.559 46.6941 40.562 46.814 41.693C46.9405 42.9115 46.4809 44.0357 45.5816 44.7627C45.495 44.8368 45.4017 44.9108 45.3151 44.9916L44.216 45.9946C43.1035 47.0044 42.4507 48.3912 42.3774 49.8991C42.3041 51.4071 42.8038 52.8544 43.803 53.9719C45.8614 56.2876 49.4053 56.4761 51.6968 54.3893L52.8826 53.3122C53.2356 52.989 53.5487 52.6255 53.8019 52.2351C54.0483 51.8648 54.5413 51.7638 54.9077 52.0062C55.2741 52.2553 55.374 52.7534 55.1342 53.1237C54.8011 53.6353 54.4014 54.0998 53.9484 54.5104L52.7627 55.5875C51.3904 56.8329 49.6717 57.4523 47.9597 57.4523H47.9531Z" fill="url(#paint0_linear_8_95)"/>
<path d="M71.335 46.3852C70.9819 46.3852 70.6288 46.3582 70.2758 46.3044C69.8428 46.2371 69.5363 45.8264 69.603 45.3888C69.6696 44.9445 70.0759 44.6483 70.5089 44.7089C70.9752 44.7762 71.4482 44.7897 71.9212 44.7358L73.5066 44.5676C74.9921 44.4127 76.3244 43.6789 77.2637 42.5076C78.2029 41.3363 78.6359 39.862 78.4761 38.3608C78.1563 35.2641 75.3985 33.009 72.3342 33.3321L70.862 33.4869C70.7421 33.5004 70.6288 33.5139 70.5089 33.5341C69.3765 33.7293 68.244 33.3254 67.4713 32.457C66.6786 31.5616 66.4054 30.3835 66.6919 29.2459C66.7119 29.1651 66.7319 29.091 66.7452 29.0103L67.0783 27.4283C67.7178 24.3787 65.7859 21.3763 62.7749 20.7301C59.7573 20.0838 56.7863 22.0361 56.1468 25.0789L55.8403 26.5397C55.7337 27.0378 55.6938 27.5494 55.7271 28.0611C55.7537 28.5054 55.414 28.8891 54.9743 28.9093C54.548 28.9497 54.1616 28.5929 54.135 28.1486C54.1017 27.4956 54.1483 26.8359 54.2815 26.2031L54.588 24.7423C55.414 20.8378 59.2443 18.3268 63.1147 19.1616C66.9917 19.9963 69.4764 23.8604 68.6504 27.7716L68.3173 29.3536C68.2973 29.4546 68.2707 29.5555 68.244 29.6565C68.0908 30.2624 68.2307 30.8952 68.6237 31.3395C69.07 31.8376 69.6629 32.053 70.2491 31.9521C70.3957 31.9251 70.5489 31.9049 70.6954 31.8915L72.1676 31.7366C76.1112 31.326 79.6552 34.2207 80.0682 38.1992C80.268 40.1313 79.7151 42.0229 78.5027 43.5308C77.2903 45.0388 75.5783 45.9812 73.6665 46.1832L72.081 46.3515C71.8279 46.3784 71.5748 46.3919 71.3283 46.3919L71.335 46.3852Z" fill="url(#paint1_linear_8_95)"/>
<path d="M64.4869 61C61.7357 61 59.1044 59.391 57.912 56.6916L57.3125 55.325C57.1326 54.9211 57.3125 54.4431 57.7188 54.2614C58.1252 54.0796 58.5915 54.2614 58.7714 54.672L59.3709 56.0386C60.6232 58.8862 63.934 60.1719 66.7518 58.8996C68.1174 58.287 69.1633 57.1695 69.6962 55.7626C70.2291 54.3556 70.1891 52.8208 69.583 51.4407L68.9368 49.9665C68.7569 49.5625 68.9368 49.0846 69.3431 48.9028C69.7495 48.7211 70.2158 48.9028 70.3957 49.3135L71.0418 50.7877C71.8212 52.5582 71.8745 54.5306 71.1884 56.3415C70.5022 58.1524 69.1566 59.5863 67.4046 60.3739C66.4587 60.798 65.4662 61 64.4936 61H64.4869Z" fill="url(#paint2_linear_8_95)"/>
<path d="M64.4869 61C61.7357 61 59.1044 59.3911 57.912 56.6916L57.3125 55.325C56.8329 54.2412 56.6197 53.0362 56.6863 51.8514C56.7463 50.8214 56.1401 49.8722 55.1742 49.4953C52.796 48.5663 50.9175 46.7554 49.8783 44.406C48.8058 41.9691 48.7658 39.2629 49.765 36.7855C50.7709 34.3149 52.6828 32.4166 55.1475 31.4404C59.7506 29.6228 65.0598 31.7097 67.2315 36.1999C68.3972 38.6099 68.5305 41.3228 67.6112 43.8338C67.2448 44.8368 67.5312 45.9476 68.3306 46.6006C69.2232 47.3276 69.916 48.2364 70.389 49.3068L71.0352 50.781C71.8146 52.5515 71.8679 54.524 71.1817 56.3348C70.4956 58.1457 69.15 59.5796 67.398 60.3672C66.4521 60.7913 65.4595 60.9933 64.4869 60.9933V61ZM58.6048 32.4031C57.6456 32.4031 56.673 32.5781 55.7404 32.9484C53.682 33.7629 52.0899 35.3449 51.2505 37.4049C50.4112 39.4648 50.4445 41.72 51.3438 43.753C52.2098 45.712 53.7753 47.2199 55.7537 47.9941C57.3725 48.6269 58.3917 50.2156 58.2851 51.9524C58.2318 52.8814 58.3983 53.8171 58.7714 54.6721L59.3709 56.0386C60.6233 58.8862 63.934 60.172 66.7518 58.8997C68.1174 58.2871 69.1633 57.1696 69.6962 55.7626C70.2291 54.3557 70.1892 52.8208 69.583 51.4408L68.9368 49.9665C68.5704 49.1385 68.0308 48.4249 67.338 47.8662C65.9991 46.7823 65.5128 44.9378 66.119 43.2818C66.8917 41.1882 66.7785 38.933 65.8059 36.9202C64.4403 34.0928 61.5759 32.4098 58.6048 32.4098V32.4031Z" fill="url(#paint3_linear_8_95)"/>
<path d="M94.9032 46.641C96.1089 46.641 96.6952 46.0822 96.6952 45.3889C96.6952 44.8301 96.3687 44.3656 94.9632 43.7396L94.0172 43.3087C91.2727 42.0566 90.3001 40.1784 90.3001 38.4281C90.3001 35.5604 92.7449 33.2513 96.4687 33.2513C98.8535 33.2513 100.779 34.1736 101.725 35.594C101.984 35.9912 102.184 36.3884 102.184 36.9808C102.184 38.2329 101.465 39.2562 99.9326 39.2562C99.0866 39.2562 98.2007 38.758 97.8742 37.7684C97.7077 37.3039 97.0549 36.7452 96.1423 36.7452C95.163 36.7452 94.6101 37.4049 94.6101 37.93C94.6101 38.657 95.0698 39.0542 96.4687 39.7139L97.6411 40.2727C100.579 41.6931 101.265 43.5039 101.265 45.0253C101.265 47.9268 98.7536 50.2358 94.9032 50.2358C92.2586 50.2358 90.0403 49.1789 88.9612 47.5296C88.7014 47.0988 88.4083 46.4727 88.4083 45.7457C88.4083 44.4599 89.3209 43.5376 90.6265 43.5376C91.7723 43.5376 92.5184 44.231 92.7182 45.2879C92.8781 46.1428 93.7974 46.641 94.9032 46.641Z" fill="white"/>
<path d="M104.043 42.7164C104.043 37.0414 107.96 33.285 112.629 33.285C117.006 33.285 119.744 36.55 119.744 40.7372C119.744 46.54 115.927 50.2358 111.224 50.2358C106.914 50.2358 104.043 46.8362 104.043 42.7164ZM115.108 40.8314C115.108 39.1821 114.388 37.2703 112.363 37.2703C110.338 37.2703 108.673 39.2158 108.673 42.6827C108.673 44.433 109.519 46.1159 111.417 46.1159C113.475 46.1159 115.108 44.0695 115.108 40.8382V40.8314Z" fill="white"/>
<path d="M127.971 46.641C129.177 46.641 129.763 46.0822 129.763 45.3889C129.763 44.8301 129.436 44.3656 128.031 43.7396L127.085 43.3087C124.34 42.0566 123.368 40.1784 123.368 38.4281C123.368 35.5604 125.813 33.2513 129.536 33.2513C131.921 33.2513 133.846 34.1736 134.792 35.594C135.052 35.9912 135.252 36.3884 135.252 36.9808C135.252 38.2329 134.532 39.2562 133 39.2562C132.154 39.2562 131.268 38.758 130.942 37.7684C130.775 37.3039 130.123 36.7452 129.21 36.7452C128.231 36.7452 127.678 37.4049 127.678 37.93C127.678 38.657 128.137 39.0542 129.536 39.7139L130.709 40.2727C133.646 41.6931 134.333 43.5039 134.333 45.0253C134.333 47.9268 131.821 50.2358 127.971 50.2358C125.326 50.2358 123.108 49.1789 122.029 47.5296C121.769 47.0988 121.476 46.4727 121.476 45.7457C121.476 44.4599 122.389 43.5376 123.694 43.5376C124.84 43.5376 125.586 44.231 125.786 45.2879C125.946 46.1428 126.865 46.641 127.971 46.641Z" fill="white"/>
<path d="M147.716 47.9268C146.836 49.2126 145.138 50.2358 143.146 50.2358C139.782 50.2358 137.11 47.4623 137.11 42.9453C137.11 37.2703 141.061 33.2783 145.431 33.2783C146.929 33.2783 148.268 33.9044 149.054 34.7593C149.547 34.1669 150.194 33.7697 151.013 33.7697C152.452 33.7697 153.364 34.9209 153.265 36.274C153.231 37.0684 152.712 37.9906 152.578 38.7782L151.632 44.3186C151.466 45.2408 151.499 45.5707 151.732 45.5707C151.892 45.5707 151.992 45.5034 152.319 45.5034C153.524 45.5034 154.244 46.4256 154.244 47.4825C154.244 48.8693 152.938 49.9262 151.013 49.9262C149.574 49.9262 148.335 49.2665 147.716 47.9134V47.9268ZM147.029 43.2751L147.942 37.9973C147.449 37.4049 146.736 37.1087 145.85 37.1087C143.699 37.1087 141.833 39.7813 141.833 43.0462C141.833 45.2543 142.879 46.1765 144.118 46.1765C145.357 46.1765 146.696 45.2879 147.023 43.2751H147.029Z" fill="white"/>
<path d="M162.144 45.5841C162.337 45.5841 162.504 45.5168 162.731 45.5168C163.87 45.5168 164.656 46.4054 164.656 47.4623C164.656 48.8154 163.417 49.9329 161.491 49.9329C159.047 49.9329 157.381 48.0884 157.381 45.2139C157.381 44.4195 157.515 43.403 157.641 42.6423L159.733 30.4375C159.833 29.8114 159.899 28.6535 159.959 28.0611C160.119 26.5465 161.332 25.4222 162.731 25.4222C164.129 25.4222 165.115 26.5734 165.015 28.0611C164.982 28.7208 164.589 29.8114 164.496 30.4375L162.344 42.5077C162.051 44.1233 161.951 44.7494 161.951 45.0792C161.951 45.3754 162.018 45.5774 162.144 45.5774V45.5841Z" fill="white"/>
<path d="M167.174 47.4623C167.174 45.8803 168.579 44.7224 169.952 44.7224C171.324 44.7224 172.37 45.8466 172.37 47.193C172.37 48.775 170.964 49.9329 169.592 49.9329C168.22 49.9329 167.174 48.8086 167.174 47.4623Z" fill="white"/>
<path d="M177.226 45.5168C177.226 44.4263 177.419 43.403 177.779 42.023L178.498 39.3505C178.791 38.2936 178.758 37.6338 178.465 37.6338C178.272 37.6338 178.105 37.7012 177.879 37.7012C176.74 37.7012 175.954 36.8125 175.954 35.7556C175.954 34.4025 177.193 33.2851 179.118 33.2851C181.043 33.2851 182.415 34.342 182.968 36.1528C183.328 37.3713 183.228 38.7581 182.775 40.7036L182.315 42.6491C181.922 44.2984 181.796 44.8571 181.796 45.3216C181.796 45.5168 181.929 45.5842 181.989 45.5842C182.182 45.5842 182.349 45.5168 182.575 45.5168C183.714 45.5168 184.5 46.4054 184.5 47.4623C184.5 48.8154 183.261 49.9329 181.336 49.9329C178.985 49.9329 177.226 48.1826 177.226 45.5101V45.5168ZM179.411 28.4987C179.411 27.011 180.65 25.8262 182.155 25.8262C183.661 25.8262 184.933 27.011 184.933 28.4987C184.933 29.9865 183.694 31.2049 182.155 31.2049C180.617 31.2049 179.411 30.0201 179.411 28.4987Z" fill="white"/>
<path d="M186.299 42.7164C186.299 37.0414 190.216 33.285 194.885 33.285C199.262 33.285 202 36.55 202 40.7372C202 46.54 198.183 50.2358 193.48 50.2358C189.17 50.2358 186.299 46.8362 186.299 42.7164ZM197.364 40.8314C197.364 39.1821 196.644 37.2703 194.619 37.2703C192.594 37.2703 190.929 39.2158 190.929 42.6827C190.929 44.433 191.775 46.1159 193.673 46.1159C195.732 46.1159 197.364 44.0695 197.364 40.8382V40.8314Z" fill="white"/>
</g>
<path d="M77.7159 78H75.1591V69.2727H77.8693C78.7017 69.2727 79.4134 69.446 80.0043 69.7926C80.598 70.1392 81.0526 70.6364 81.3679 71.2841C81.6832 71.9318 81.8409 72.7088 81.8409 73.6151C81.8409 74.5298 81.679 75.3153 81.3551 75.9716C81.0341 76.625 80.5653 77.1264 79.9489 77.4759C79.3352 77.8253 78.5909 78 77.7159 78ZM75.956 77.2841H77.669C78.419 77.2841 79.0469 77.1364 79.5526 76.8409C80.0582 76.5455 80.4375 76.1236 80.6903 75.5753C80.9432 75.027 81.0696 74.3736 81.0696 73.6151C81.0668 72.8622 80.9418 72.2145 80.6946 71.6719C80.4503 71.1293 80.0866 70.7131 79.6037 70.4233C79.1236 70.1335 78.5298 69.9886 77.8224 69.9886H75.956V77.2841ZM83.7724 78V69.2727H88.8349V69.9886H84.5692V73.2741H88.5664V73.9901H84.5692V77.2841H88.9201V78H83.7724ZM91.0337 69.2727L93.4499 73.0611H93.5053L95.9215 69.2727H96.8633L94.055 73.6364L96.8633 78H95.9215L93.5053 74.2543H93.4499L91.0337 78H90.092L92.9428 73.6364L90.092 69.2727H91.0337ZM101.221 69.9886V69.2727H107.549V69.9886H104.783V78H103.986V69.9886H101.221ZM108.505 78V71.4545H109.243V72.4602H109.298C109.429 72.1307 109.656 71.8651 109.98 71.6634C110.306 71.4588 110.676 71.3565 111.088 71.3565C111.15 71.3565 111.22 71.358 111.297 71.3608C111.373 71.3636 111.437 71.3665 111.488 71.3693V72.1406C111.454 72.1349 111.395 72.1264 111.309 72.1151C111.224 72.1037 111.132 72.098 111.032 72.098C110.691 72.098 110.387 72.1705 110.12 72.3153C109.856 72.4574 109.647 72.6548 109.494 72.9077C109.341 73.1605 109.264 73.4489 109.264 73.7727V78H108.505ZM114.611 78.1491C114.216 78.1491 113.855 78.0724 113.528 77.919C113.202 77.7628 112.942 77.5384 112.749 77.2457C112.555 76.9503 112.459 76.5923 112.459 76.1719C112.459 75.848 112.52 75.5753 112.642 75.3537C112.764 75.1321 112.938 74.9503 113.162 74.8082C113.386 74.6662 113.652 74.554 113.959 74.4716C114.266 74.3892 114.604 74.3253 114.973 74.2798C115.339 74.2344 115.649 74.1946 115.902 74.1605C116.158 74.1264 116.352 74.0724 116.486 73.9986C116.619 73.9247 116.686 73.8054 116.686 73.6406V73.4872C116.686 73.0412 116.553 72.6903 116.286 72.4347C116.021 72.1761 115.641 72.0469 115.143 72.0469C114.672 72.0469 114.287 72.1506 113.989 72.358C113.693 72.5653 113.486 72.8097 113.366 73.0909L112.646 72.831C112.794 72.473 112.999 72.1875 113.26 71.9744C113.521 71.7585 113.814 71.6037 114.138 71.5099C114.462 71.4134 114.79 71.3651 115.122 71.3651C115.372 71.3651 115.632 71.3977 115.902 71.4631C116.175 71.5284 116.428 71.642 116.661 71.804C116.893 71.9631 117.082 72.1861 117.227 72.473C117.372 72.7571 117.445 73.1179 117.445 73.5554V78H116.686V76.9645H116.639C116.548 77.1577 116.413 77.3452 116.234 77.527C116.055 77.7088 115.831 77.858 115.561 77.9744C115.291 78.0909 114.974 78.1491 114.611 78.1491ZM114.713 77.4545C115.116 77.4545 115.466 77.3651 115.761 77.1861C116.057 77.0071 116.284 76.7699 116.443 76.4744C116.605 76.1761 116.686 75.848 116.686 75.4901V74.544C116.629 74.598 116.534 74.6463 116.401 74.6889C116.27 74.7315 116.118 74.7699 115.945 74.804C115.774 74.8352 115.604 74.8622 115.433 74.8849C115.263 74.9077 115.109 74.9276 114.973 74.9446C114.604 74.9901 114.288 75.0611 114.027 75.1577C113.766 75.2543 113.565 75.3878 113.426 75.5582C113.287 75.7259 113.217 75.9418 113.217 76.206C113.217 76.6037 113.359 76.9119 113.643 77.1307C113.928 77.3466 114.284 77.4545 114.713 77.4545ZM121.819 78.1364C121.282 78.1364 120.812 77.9943 120.408 77.7102C120.005 77.4261 119.69 77.0298 119.462 76.5213C119.238 76.0128 119.126 75.4205 119.126 74.7443C119.126 74.071 119.238 73.4815 119.462 72.9759C119.69 72.4673 120.006 72.0724 120.413 71.7912C120.819 71.5071 121.292 71.3651 121.832 71.3651C122.229 71.3651 122.56 71.4361 122.825 71.5781C123.089 71.7173 123.3 71.8906 123.46 72.098C123.619 72.3054 123.742 72.5071 123.83 72.7031H123.898V69.2727H124.661V78H123.92V76.7855H123.83C123.742 76.9844 123.617 77.1889 123.455 77.3991C123.293 77.6065 123.079 77.7812 122.812 77.9233C122.548 78.0653 122.217 78.1364 121.819 78.1364ZM121.908 77.4418C122.332 77.4418 122.692 77.3267 122.991 77.0966C123.289 76.8636 123.516 76.544 123.673 76.1378C123.832 75.7287 123.911 75.2599 123.911 74.7315C123.911 74.2088 123.833 73.7472 123.677 73.3466C123.521 72.9432 123.293 72.6278 122.995 72.4006C122.697 72.1705 122.335 72.0554 121.908 72.0554C121.471 72.0554 121.102 72.1747 120.8 72.4134C120.502 72.6491 120.275 72.9687 120.119 73.3722C119.965 73.7756 119.888 74.2287 119.888 74.7315C119.888 75.2401 119.967 75.6989 120.123 76.108C120.279 76.517 120.506 76.8423 120.805 77.0838C121.106 77.3224 121.474 77.4418 121.908 77.4418ZM126.83 78V71.4545H127.593V78H126.83ZM127.218 70.3295C127.062 70.3295 126.928 70.277 126.817 70.1719C126.707 70.0639 126.651 69.9347 126.651 69.7841C126.651 69.6335 126.707 69.5057 126.817 69.4006C126.928 69.2926 127.062 69.2386 127.218 69.2386C127.374 69.2386 127.508 69.2926 127.619 69.4006C127.729 69.5057 127.785 69.6335 127.785 69.7841C127.785 69.9347 127.729 70.0639 127.619 70.1719C127.508 70.277 127.374 70.3295 127.218 70.3295ZM130.358 73.9091V78H129.599V71.4545H130.336V72.4815H130.404C130.558 72.1463 130.797 71.8778 131.12 71.6761C131.447 71.4716 131.85 71.3693 132.331 71.3693C132.771 71.3693 133.157 71.4616 133.49 71.6463C133.825 71.8281 134.085 72.0966 134.27 72.4517C134.457 72.8068 134.551 73.2429 134.551 73.7599V78H133.792V73.8068C133.792 73.2699 133.642 72.8452 133.341 72.5327C133.042 72.2202 132.642 72.0639 132.139 72.0639C131.795 72.0639 131.49 72.1378 131.223 72.2855C130.956 72.4332 130.744 72.6463 130.588 72.9247C130.434 73.2003 130.358 73.5284 130.358 73.9091ZM139.045 80.5909C138.599 80.5909 138.209 80.5327 137.874 80.4162C137.538 80.3026 137.256 80.1463 137.026 79.9474C136.795 79.7486 136.616 79.5256 136.489 79.2784L137.111 78.8693C137.205 79.0341 137.33 79.196 137.486 79.3551C137.645 79.5142 137.851 79.6463 138.104 79.7514C138.359 79.8565 138.673 79.9091 139.045 79.9091C139.625 79.9091 140.092 79.7642 140.447 79.4744C140.805 79.1847 140.984 78.7344 140.984 78.1236V76.6491H140.916C140.828 76.848 140.702 77.0469 140.537 77.2457C140.372 77.4418 140.156 77.6051 139.889 77.7358C139.625 77.8665 139.297 77.9318 138.905 77.9318C138.382 77.9318 137.918 77.8026 137.511 77.544C137.108 77.2855 136.79 76.9162 136.557 76.4361C136.327 75.9531 136.212 75.3778 136.212 74.7102C136.212 74.0483 136.324 73.4659 136.548 72.9631C136.776 72.4602 137.092 72.0682 137.499 71.7869C137.905 71.5057 138.378 71.3651 138.918 71.3651C139.318 71.3651 139.651 71.4361 139.915 71.5781C140.179 71.7173 140.391 71.8906 140.55 72.098C140.712 72.3054 140.838 72.5071 140.929 72.7031H141.006V71.4545H141.747V78.1705C141.747 78.7244 141.629 79.1804 141.393 79.5384C141.158 79.8963 140.837 80.1605 140.43 80.331C140.024 80.5043 139.563 80.5909 139.045 80.5909ZM138.994 77.2372C139.415 77.2372 139.774 77.1364 140.072 76.9347C140.371 76.7301 140.599 76.4375 140.759 76.0568C140.918 75.6761 140.997 75.223 140.997 74.6974C140.997 74.1861 140.919 73.733 140.763 73.3381C140.607 72.9403 140.379 72.6278 140.081 72.4006C139.786 72.1705 139.423 72.0554 138.994 72.0554C138.557 72.0554 138.188 72.1733 137.886 72.4091C137.585 72.6449 137.358 72.9631 137.205 73.3636C137.051 73.7614 136.974 74.206 136.974 74.6974C136.974 75.1974 137.053 75.6392 137.209 76.0227C137.365 76.4034 137.594 76.7017 137.895 76.9176C138.196 77.1307 138.563 77.2372 138.994 77.2372ZM147.288 78V69.2727H150.233C150.801 69.2727 151.274 69.3722 151.652 69.571C152.032 69.7699 152.318 70.0412 152.508 70.3849C152.699 70.7287 152.794 71.1193 152.794 71.5568C152.794 71.9205 152.733 72.2315 152.61 72.4901C152.488 72.7486 152.322 72.9574 152.112 73.1165C151.902 73.2756 151.667 73.3906 151.409 73.4616V73.5298C151.69 73.5497 151.963 73.6491 152.227 73.8281C152.491 74.0043 152.708 74.2514 152.879 74.5696C153.049 74.8878 153.135 75.2685 153.135 75.7116C153.135 76.152 153.037 76.5455 152.841 76.892C152.645 77.2358 152.343 77.5071 151.937 77.706C151.534 77.902 151.02 78 150.395 78H147.288ZM148.085 77.2841H150.395C151.068 77.2841 151.565 77.1349 151.886 76.8366C152.21 76.5384 152.372 76.1634 152.372 75.7116C152.372 75.3793 152.291 75.0781 152.129 74.8082C151.97 74.5355 151.744 74.3196 151.451 74.1605C151.162 74.0014 150.821 73.9219 150.429 73.9219H148.085V77.2841ZM148.085 73.2145H150.305C150.649 73.2145 150.95 73.1435 151.208 73.0014C151.467 72.8594 151.669 72.6634 151.814 72.4134C151.958 72.1634 152.031 71.8778 152.031 71.5568C152.031 71.0937 151.88 70.7173 151.579 70.4276C151.278 70.1349 150.829 69.9886 150.233 69.9886H148.085V73.2145ZM157.444 78.1364C156.879 78.1364 156.379 77.9929 155.944 77.706C155.512 77.419 155.174 77.0227 154.93 76.517C154.685 76.0085 154.563 75.4219 154.563 74.7571C154.563 74.0866 154.685 73.4972 154.93 72.9886C155.174 72.4773 155.512 72.0795 155.944 71.7955C156.379 71.5085 156.879 71.3651 157.444 71.3651C158.009 71.3651 158.508 71.5085 158.94 71.7955C159.371 72.0824 159.71 72.4801 159.954 72.9886C160.201 73.4972 160.325 74.0866 160.325 74.7571C160.325 75.4219 160.202 76.0085 159.958 76.517C159.714 77.0227 159.374 77.419 158.94 77.706C158.508 77.9929 158.009 78.1364 157.444 78.1364ZM157.444 77.4418C157.898 77.4418 158.283 77.3196 158.599 77.0753C158.914 76.831 159.153 76.5057 159.315 76.0994C159.479 75.6932 159.562 75.2457 159.562 74.7571C159.562 74.2685 159.479 73.8196 159.315 73.4105C159.153 73.0014 158.914 72.6733 158.599 72.4261C158.283 72.179 157.898 72.0554 157.444 72.0554C156.992 72.0554 156.607 72.179 156.289 72.4261C155.974 72.6733 155.734 73.0014 155.569 73.4105C155.407 73.8196 155.326 74.2685 155.326 74.7571C155.326 75.2457 155.407 75.6932 155.569 76.0994C155.734 76.5057 155.974 76.831 156.289 77.0753C156.604 77.3196 156.989 77.4418 157.444 77.4418ZM164.568 71.4545V72.1151H161.444V71.4545H164.568ZM162.42 69.8864H163.183V76.2912C163.183 76.5639 163.23 76.7784 163.324 76.9347C163.417 77.0881 163.539 77.1974 163.69 77.2628C163.841 77.3253 164.001 77.3565 164.172 77.3565C164.271 77.3565 164.356 77.3509 164.427 77.3395C164.498 77.3253 164.561 77.3111 164.615 77.2969L164.777 77.983C164.703 78.0114 164.612 78.0369 164.504 78.0597C164.396 78.0852 164.262 78.098 164.103 78.098C163.825 78.098 163.556 78.0369 163.298 77.9148C163.042 77.7926 162.832 77.6108 162.667 77.3693C162.502 77.1278 162.42 76.8281 162.42 76.4702V69.8864Z" fill="white"/>
<defs>
<linearGradient id="paint0_linear_8_95" x1="38.116" y1="45.725" x2="56.509" y2="37.6215" gradientUnits="userSpaceOnUse">
<stop stop-color="#FFC400"/>
<stop offset="0.09" stop-color="#FFA900"/>
<stop offset="0.17" stop-color="#FF9800"/>
<stop offset="0.23" stop-color="#FF9300"/>
<stop offset="0.53" stop-color="#FF7700"/>
<stop offset="0.89" stop-color="#FF4600"/>
<stop offset="1" stop-color="#EB3D00"/>
</linearGradient>
<linearGradient id="paint1_linear_8_95" x1="76.2248" y1="28.5883" x2="57.8318" y2="36.6918" gradientUnits="userSpaceOnUse">
<stop stop-color="#FFC400"/>
<stop offset="0.09" stop-color="#FFA900"/>
<stop offset="0.17" stop-color="#FF9800"/>
<stop offset="0.23" stop-color="#FF9300"/>
<stop offset="0.53" stop-color="#FF7700"/>
<stop offset="0.89" stop-color="#FF4600"/>
<stop offset="1" stop-color="#EB3D00"/>
</linearGradient>
<linearGradient id="paint2_linear_8_95" x1="63.5047" y1="51.5304" x2="67.4697" y2="60.3429" gradientUnits="userSpaceOnUse">
<stop stop-color="#FFC400"/>
<stop offset="0.09" stop-color="#FFA900"/>
<stop offset="0.17" stop-color="#FF9800"/>
<stop offset="0.23" stop-color="#FF9300"/>
<stop offset="0.53" stop-color="#FF7700"/>
<stop offset="0.89" stop-color="#FF4600"/>
<stop offset="1" stop-color="#EB3D00"/>
</linearGradient>
<linearGradient id="paint3_linear_8_95" x1="54.7341" y1="31.6234" x2="67.6246" y2="60.2733" gradientUnits="userSpaceOnUse">
<stop stop-color="#FFC400"/>
<stop offset="0.09" stop-color="#FFA900"/>
<stop offset="0.17" stop-color="#FF9800"/>
<stop offset="0.23" stop-color="#FF9300"/>
<stop offset="0.53" stop-color="#FF7700"/>
<stop offset="0.89" stop-color="#FF4600"/>
<stop offset="1" stop-color="#EB3D00"/>
</linearGradient>
<clipPath id="clip0_8_95">
<rect width="163" height="42" fill="white" transform="translate(39 19)"/>
</clipPath>
</defs>
</svg>
