<svg width="100" height="100" viewBox="0 0 100 100" fill="none" xmlns="http://www.w3.org/2000/svg">
<path d="M81.15 44.18C78.59 36.5 78.03 35.46 75.33 30.75C74.15 40.44 67.99 44.53 66.4 45.7C66.4 44.45 62.66 30.54 56.98 22.16C51.37 13.99 43.83 8.58999 39.33 4.98999C39.33 11.57 37.53 21.12 34.97 26.52C37.25 28.32 40.3 30.81 42.65 34.27C45.63 38.63 47.57 45.9 47.57 46.52C48.4 45.9 51.65 43.75 52.21 38.7C53.59 41.19 53.87 41.68 55.26 45.76C56.58 49.78 56.71 52.41 56.71 54.76C56.71 64.59 48.75 72.28 39.06 72.28C29.37 72.28 21.41 65.01 21.41 55.18C21.41 52.76 21.69 49.5 23.21 47.01C24.73 44.52 25.56 43.89 27.36 41.89C29.16 39.88 29.44 39.74 30.89 37.04C31.72 35.45 32.41 32.89 32.83 30.32C31.31 32.88 30.34 33.71 27.71 36.69C24.25 40.57 22.66 41.81 19.75 46.52C16.84 51.23 16.29 57.53 16.29 62.17C16.29 81 31.52 94.99 50.01 94.99C68.5 94.99 83.73 80.31 83.73 61.48C83.73 56.84 83.52 51.93 80.96 44.17H81.17L81.15 44.18Z" fill="url(#paint0_linear_127_1014)"/>
<defs>
<linearGradient id="paint0_linear_127_1014" x1="50" y1="95" x2="50" y2="4.99999" gradientUnits="userSpaceOnUse">
<stop stop-color="#FF5CE4"/>
<stop offset="0.08" stop-color="#EE46E4"/>
<stop offset="0.16" stop-color="#E135E4"/>
<stop offset="0.23" stop-color="#DD30E4"/>
<stop offset="0.53" stop-color="#A330E4"/>
<stop offset="0.89" stop-color="#870FF7"/>
<stop offset="1" stop-color="#6000CF"/>
</linearGradient>
</defs>
</svg>
