<svg width="100" height="100" viewBox="0 0 100 100" fill="none" xmlns="http://www.w3.org/2000/svg">
<path d="M80.91 70.88L90.55 35.84C90.55 35.84 90.86 35.89 91.12 35.89C93.33 35.89 95.12 34.1 95.12 31.89C95.12 29.68 93.33 27.89 91.12 27.89C88.91 27.89 87.12 29.68 87.12 31.89C87.12 33.57 88.13 34.99 89.41 35.51L67.71 50.39L50.48 23.63C53.19 23.38 55.32 21.1 55.32 18.32C55.32 15.37 52.93 12.99 49.99 12.99C47.04 12.99 44.66 15.38 44.66 18.32C44.66 21.1 46.78 23.38 49.5 23.63L32.27 50.39L10.57 35.51C11.86 35 12.86 33.57 12.86 31.89C12.86 29.68 11.07 27.89 8.86 27.89C6.65 27.89 4.86 29.68 4.86 31.89C4.86 34.1 6.65 35.89 8.86 35.89C9.12 35.89 9.43 35.84 9.43 35.84L19.07 70.88H80.91Z" fill="#FFC700"/>
<path d="M19.09 83.85C19.09 85.6 20.51 87.02 22.26 87.02H77.75C79.5 87.02 80.92 85.6 80.92 83.85V75.15H19.09V83.85Z" fill="#FFC700"/>
</svg>
