<svg width="100" height="100" viewBox="0 0 100 100" fill="none" xmlns="http://www.w3.org/2000/svg">
<path d="M89.2 4.4899C88.11 3.6899 86.58 3.9099 85.77 4.9299L79.94 12.5799C73.31 13.4499 66.89 15.3499 60.84 18.2699C52.38 22.3499 44.8 28.3999 38.68 36.4199C37 38.6099 35.55 40.8699 34.23 43.1999L24.53 41.8099C23.22 41.5899 21.91 42.1699 21.1 43.1999L10.46 57.1199C9.65999 58.1399 9.50999 59.5299 10.02 60.6899C10.53 61.8499 11.62 62.7299 12.86 62.9499L27 64.9899L28.6 66.2299L27.87 68.3399L44.27 80.6599L46.02 79.4899L47.62 80.7299L53.38 93.7799C53.89 94.9499 54.98 95.7499 56.3 95.9699C57.61 96.1199 58.85 95.6099 59.65 94.5799L70.22 80.6599C71.02 79.6399 71.17 78.1799 70.66 77.0199L66.72 68.0499C68.62 66.1499 70.36 64.1099 72.04 61.9299C78.09 53.9799 81.88 44.9399 83.56 35.7599C84.73 29.1299 84.87 22.4199 83.92 15.7899L89.75 8.1399C90.55 7.0499 90.33 5.5199 89.31 4.7099L89.16 4.4899H89.2ZM67.84 47.3499C64.85 51.2899 59.24 52.0199 55.3 49.0299C51.36 46.0399 50.63 40.4299 53.62 36.4899C56.61 32.5499 62.22 31.8199 66.16 34.8099C70.1 37.7999 70.83 43.4099 67.84 47.3499ZM24.03 68.7799C24.03 68.7799 26.29 75.9199 32.12 80.3699C37.95 84.8199 45.46 85.0399 45.46 85.0399C41.96 87.8099 27.89 91.4599 25.12 89.4099C22.35 87.2999 22.13 73.0799 23.95 68.7799H24.03Z" fill="url(#paint0_linear_127_1011)"/>
<defs>
<linearGradient id="paint0_linear_127_1011" x1="46.7338" y1="9.73285" x2="58.7973" y2="95.5693" gradientUnits="userSpaceOnUse">
<stop stop-color="#2B95E4"/>
<stop offset="0.03" stop-color="#2BA5E5"/>
<stop offset="0.11" stop-color="#2BCCEA"/>
<stop offset="0.19" stop-color="#2BE8ED"/>
<stop offset="0.25" stop-color="#2BF9EF"/>
<stop offset="0.3" stop-color="#2BFFF0"/>
<stop offset="0.53" stop-color="#2BFFBC"/>
<stop offset="0.81" stop-color="#2BFF81"/>
<stop offset="1" stop-color="#18C074"/>
</linearGradient>
</defs>
</svg>
