<svg width="100" height="100" viewBox="0 0 100 100" fill="none" xmlns="http://www.w3.org/2000/svg">
<path d="M79.03 6.45H20.97C12.9508 6.45 6.45 12.9508 6.45 20.97V79.03C6.45 87.0492 12.9508 93.55 20.97 93.55H79.03C87.0492 93.55 93.55 87.0492 93.55 79.03V20.97C93.55 12.9508 87.0492 6.45 79.03 6.45Z" fill="#181616"/>
<path d="M79.03 95H20.97C12.17 95 5 87.84 5 79.03V20.97C5 12.17 12.16 5 20.97 5H79.03C87.83 5 95 12.16 95 20.97V79.03C95 87.83 87.84 95 79.03 95ZM20.97 7.9C13.77 7.9 7.91 13.76 7.91 20.96V79.02C7.91 86.22 13.77 92.08 20.97 92.08H79.03C86.23 92.08 92.09 86.22 92.09 79.02V20.97C92.09 13.77 86.23 7.91 79.03 7.91H20.97V7.9Z" fill="#665F59"/>
</svg>
