<svg width="100" height="100" viewBox="0 0 100 100" fill="none" xmlns="http://www.w3.org/2000/svg">
<path d="M90.07 71.0301L59.47 18.0301C57.5 14.6001 53.96 12.5701 50 12.5701C46.04 12.5701 42.5 14.6101 40.53 18.0301L9.92 71.0301C7.95 74.4601 7.95 78.5401 9.92 81.9701C11.9 85.4001 15.44 87.4401 19.39 87.4401H80.59C84.54 87.4401 88.09 85.4001 90.06 81.9701C92.04 78.5501 92.04 74.4601 90.06 71.0301H90.07ZM83.76 78.3201C83.44 78.8701 82.5 80.1401 80.6 80.1401H19.4C17.5 80.1401 16.56 78.8701 16.24 78.3201C15.92 77.7701 15.29 76.3201 16.24 74.6701L46.84 21.6701C47.79 20.0201 49.37 19.8501 50 19.8501C50.63 19.8501 52.2 20.0201 53.16 21.6701L83.76 74.6701C84.71 76.3201 84.07 77.7701 83.76 78.3201Z" fill="#665F59"/>
<path d="M50 30.9501C47.48 30.9501 45.44 32.9901 45.44 35.5101V59.3401C45.44 61.8601 47.48 63.9001 50 63.9001C52.52 63.9001 54.56 61.8601 54.56 59.3401V35.5101C54.56 32.9901 52.52 30.9501 50 30.9501Z" fill="#665F59"/>
<path d="M53.25 69.7101C52.79 69.2501 52.27 68.9301 51.75 68.7301C51.17 68.4701 50.58 68.3401 49.99 68.3401C49.4 68.3401 48.81 68.4701 48.23 68.7301C47.71 68.9301 47.19 69.2501 46.8 69.7101C46.34 70.1701 46.02 70.6201 45.76 71.2101C45.56 71.7301 45.44 72.3201 45.44 72.9701C45.44 73.5601 45.57 74.1401 45.76 74.6601C46.02 75.2501 46.34 75.7001 46.8 76.1601C47.19 76.6101 47.71 76.9401 48.23 77.1301C49.41 77.5901 50.64 77.5901 51.75 77.1301C52.27 76.9401 52.79 76.6101 53.25 76.1601C53.64 75.7001 53.96 75.2401 54.22 74.6601C54.42 74.1401 54.55 73.5501 54.55 72.9701C54.55 72.3201 54.42 71.7301 54.22 71.2101C53.96 70.6201 53.63 70.1701 53.25 69.7101Z" fill="#665F59"/>
</svg>
