<svg width="100" height="100" viewBox="0 0 100 100" fill="none" xmlns="http://www.w3.org/2000/svg">
<path d="M89.6 70.78L59.35 18.4C57.4 15.01 53.9 13 50 13C46.1 13 42.59 15.01 40.64 18.4L10.39 70.78C8.43999 74.17 8.43999 78.21 10.39 81.59C12.35 84.98 15.85 87 19.75 87H80.24C84.15 87 87.65 84.98 89.6 81.59C91.56 78.21 91.56 74.16 89.6 70.78ZM44.01 78.8C44.01 77.95 44.18 77.17 44.44 76.49C44.78 75.71 45.21 75.12 45.81 74.52C46.32 73.92 47.01 73.49 47.69 73.23C48.46 72.89 49.24 72.72 50 72.72C50.76 72.72 51.54 72.89 52.31 73.23C53 73.49 53.68 73.92 54.28 74.52C54.79 75.12 55.22 75.72 55.56 76.49C55.82 77.17 55.99 77.94 55.99 78.8C55.99 79.57 55.81 80.34 55.56 81.02C55.22 81.79 54.79 82.39 54.28 82.99C53.68 83.58 52.99 84.02 52.31 84.27C50.85 84.87 49.24 84.87 47.69 84.27C47 84.02 46.32 83.58 45.81 82.99C45.21 82.39 44.78 81.79 44.44 81.02C44.18 80.33 44.01 79.57 44.01 78.8ZM56 60.91C56 64.22 53.32 66.9 50.01 66.9C46.7 66.9 44.02 64.22 44.02 60.91V29.59C44.02 26.28 46.7 23.6 50.01 23.6C53.32 23.6 56 26.28 56 29.59V60.91Z" fill="#FF9999"/>
</svg>
