<svg width="100" height="100" viewBox="0 0 100 100" fill="none" xmlns="http://www.w3.org/2000/svg">
<path d="M50 10C27.94 10 10 27.94 10 50C10 72.06 27.94 90 50 90C72.06 90 90 72.06 90 50C90 27.94 72.06 10 50 10ZM50 82.8C31.92 82.8 17.2 68.08 17.2 50C17.2 31.92 31.92 17.2 50 17.2C68.08 17.2 82.8 31.92 82.8 50C82.8 68.08 68.08 82.8 50 82.8Z" fill="#3D3935"/>
<path d="M50 40.69C47.24 40.69 45 42.93 45 45.69V71.84C45 74.6 47.24 76.84 50 76.84C52.76 76.84 55 74.6 55 71.84V45.69C55 42.93 52.76 40.69 50 40.69Z" fill="#3D3935"/>
<path d="M53.51 27.25C53.08 26.75 52.51 26.39 51.94 26.18C50.65 25.68 49.3 25.68 48.08 26.18C47.51 26.39 46.94 26.75 46.43 27.25C46 27.75 45.65 28.25 45.36 28.9C45.14 29.47 45 30.11 45 30.76C45 31.47 45.15 32.12 45.36 32.69C45.65 33.34 46 33.83 46.43 34.34C46.93 34.84 47.5 35.2 48.08 35.41C48.72 35.7 49.36 35.84 50.01 35.84C50.66 35.84 51.3 35.7 51.94 35.41C52.51 35.19 53.08 34.84 53.51 34.34C54.01 33.84 54.37 33.34 54.65 32.69C54.87 32.12 55.01 31.48 55.01 30.76C55.01 30.12 54.87 29.48 54.65 28.9C54.36 28.26 54.01 27.76 53.51 27.25Z" fill="#3D3935"/>
</svg>
