<svg width="100" height="100" viewBox="0 0 100 100" fill="none" xmlns="http://www.w3.org/2000/svg">
<path d="M49.9999 39.6699C44.2999 39.6699 39.6699 44.2999 39.6699 49.9999C39.6699 55.6999 44.2999 60.3399 49.9999 60.3399C55.6999 60.3399 60.3299 55.6999 60.3299 49.9999C60.3299 44.2999 55.6999 39.6699 49.9999 39.6699ZM49.9999 54.1399C47.7199 54.1399 45.8599 52.2799 45.8599 49.9999C45.8599 47.7199 47.7199 45.8599 49.9999 45.8599C52.2799 45.8599 54.1399 47.7199 54.1399 49.9999C54.1399 52.2799 52.2799 54.1399 49.9999 54.1399Z" fill="#3E3935"/>
<path d="M85.3999 46.0699H77.1399C75.3999 34.0599 65.9499 24.6099 53.9399 22.8699V14.6099C53.9399 12.4399 52.1799 10.6799 50.0099 10.6799C47.8399 10.6799 46.0799 12.4399 46.0799 14.6099V22.8699C34.0699 24.6099 24.6199 34.0599 22.8799 46.0699H14.6199C12.4499 46.0699 10.6899 47.8299 10.6899 49.9999C10.6899 52.1699 12.4499 53.9299 14.6199 53.9299H22.8799C24.6199 65.9399 34.0699 75.3899 46.0799 77.1299V85.3899C46.0799 87.5599 47.8399 89.3199 50.0099 89.3199C52.1799 89.3199 53.9399 87.5599 53.9399 85.3899V77.1299C65.9499 75.3899 75.3999 65.9399 77.1399 53.9299H85.3999C87.5699 53.9299 89.3299 52.1699 89.3299 49.9999C89.3299 47.8299 87.5699 46.0699 85.3999 46.0699ZM49.9999 69.6699C39.1499 69.6699 30.3299 60.8499 30.3299 49.9999C30.3299 39.1499 39.1499 30.3299 49.9999 30.3299C60.8499 30.3299 69.6699 39.1499 69.6699 49.9999C69.6699 60.8499 60.8499 69.6699 49.9999 69.6699Z" fill="#3E3935"/>
</svg>
