<svg width="62" height="63" viewBox="0 0 62 63" fill="none" xmlns="http://www.w3.org/2000/svg">
<path d="M29.4841 40.2779C34.1178 40.2779 37.8741 36.5216 37.8741 31.8879C37.8741 27.2543 34.1178 23.4979 29.4841 23.4979C24.8504 23.4979 21.0941 27.2543 21.0941 31.8879C21.0941 36.5216 24.8504 40.2779 29.4841 40.2779Z" fill="#FF7700"/>
<path d="M13.4541 57.118C10.5041 57.118 7.55407 55.918 5.43407 53.548C3.50408 51.408 2.52407 48.638 2.67407 45.768C2.82407 42.888 4.08407 40.248 6.22407 38.318L7.87407 36.828C8.04408 36.678 8.21408 36.528 8.38408 36.388C9.09408 35.828 9.45408 34.958 9.35408 34.058C9.25408 33.088 8.70407 32.308 7.87407 31.868C7.74407 31.798 7.60407 31.728 7.47407 31.648L5.39407 30.448C2.89407 29.008 1.11407 26.678 0.364075 23.898C-0.365925 21.108 0.00407493 18.208 1.45407 15.708C4.42408 10.558 11.0341 8.78802 16.1941 11.758L18.1141 12.868C18.9541 13.348 19.7241 13.948 20.4041 14.628C20.8741 15.098 20.8741 15.858 20.4041 16.328C19.9341 16.798 19.1741 16.798 18.7041 16.328C18.1641 15.788 17.5641 15.328 16.9041 14.948L14.9841 13.838C10.9841 11.528 5.83407 12.898 3.52407 16.908C2.40407 18.848 2.10407 21.108 2.68407 23.278C3.26407 25.448 4.65408 27.248 6.59408 28.368L8.67408 29.568C8.77408 29.628 8.88408 29.688 8.99407 29.738C10.5341 30.538 11.5641 32.028 11.7441 33.698C11.9341 35.518 11.2441 37.178 9.89408 38.258C9.76408 38.368 9.62407 38.478 9.49407 38.598L7.84408 40.088C4.40408 43.188 4.12407 48.498 7.22407 51.938C8.72408 53.608 10.7841 54.588 13.0241 54.698C15.2741 54.808 17.4141 54.058 19.0741 52.558L20.8541 50.958C21.3841 50.488 21.8441 49.948 22.2441 49.358C22.6141 48.808 23.3541 48.658 23.9041 49.018C24.4541 49.388 24.6041 50.128 24.2441 50.678C23.7441 51.438 23.1441 52.128 22.4641 52.738L20.6841 54.338C18.6241 56.188 16.0441 57.108 13.4741 57.108L13.4541 57.118Z" fill="url(#paint0_linear_8_26)"/>
<path d="M48.5541 40.678C48.0241 40.678 47.4941 40.638 46.9641 40.558C46.3041 40.458 45.8541 39.848 45.9541 39.198C46.0541 38.538 46.6541 38.088 47.3141 38.188C48.0141 38.2879 48.7341 38.308 49.4341 38.228L51.8241 37.978C56.4241 37.498 59.7741 33.3579 59.2941 28.7579C59.0641 26.528 57.9741 24.528 56.2341 23.118C54.4941 21.708 52.3041 21.0579 50.0741 21.2979L47.8641 21.528C47.6841 21.548 47.5141 21.5679 47.3341 21.5979C45.6341 21.888 43.9241 21.2879 42.7741 19.9979C41.5841 18.6679 41.1741 16.9179 41.6041 15.228C41.6341 15.108 41.6641 14.998 41.6841 14.878L42.1841 12.528C43.1441 7.99795 40.2441 3.53795 35.7241 2.57795C31.2041 1.61795 26.7341 4.51795 25.7741 9.03795L25.3141 11.208C25.1541 11.948 25.0941 12.708 25.1341 13.468C25.1641 14.128 24.6641 14.698 24.0041 14.728C23.3041 14.748 22.7741 14.258 22.7441 13.598C22.6941 12.618 22.7741 11.648 22.9641 10.718L23.4241 8.54795C24.6541 2.72795 30.3941 -1.00205 36.2141 0.23795C42.0341 1.47795 45.7641 7.21795 44.5241 13.038L44.0241 15.388C43.9941 15.538 43.9541 15.688 43.9141 15.838C43.6841 16.738 43.8941 17.6779 44.4841 18.3379C45.1541 19.0779 46.0541 19.3879 46.9241 19.2479C47.1441 19.2079 47.3741 19.1779 47.6041 19.1579L49.8141 18.9279C52.6841 18.628 55.4941 19.458 57.7341 21.278C59.9741 23.0879 61.3741 25.6679 61.6741 28.538C62.2941 34.458 57.9841 39.778 52.0741 40.398L49.6941 40.648C49.3141 40.688 48.9341 40.708 48.5641 40.708L48.5541 40.678Z" fill="url(#paint1_linear_8_26)"/>
<path d="M38.264 62.398C36.954 62.398 35.654 62.158 34.394 61.678C31.704 60.648 29.574 58.628 28.404 55.998L27.504 53.968C27.234 53.368 27.504 52.658 28.114 52.388C28.724 52.118 29.424 52.388 29.694 52.998L30.594 55.028C31.504 57.078 33.164 58.648 35.254 59.448C37.344 60.248 39.624 60.188 41.674 59.278C43.724 58.368 45.294 56.708 46.094 54.618C46.894 52.528 46.834 50.248 45.924 48.198L44.954 46.008C44.684 45.408 44.954 44.698 45.564 44.428C46.174 44.158 46.874 44.428 47.144 45.038L48.114 47.228C49.284 49.858 49.364 52.788 48.334 55.478C47.304 58.168 45.284 60.298 42.654 61.468C41.254 62.088 39.764 62.408 38.274 62.408L38.264 62.398Z" fill="url(#paint2_linear_8_26)"/>
<path d="M38.2642 62.398C36.9542 62.398 35.6542 62.158 34.3942 61.678C31.7042 60.648 29.5742 58.628 28.4042 55.998L27.5042 53.968C26.7842 52.358 26.4642 50.568 26.5642 48.808C26.6542 47.278 25.7442 45.868 24.2942 45.308C20.7242 43.928 17.9042 41.238 16.3442 37.748C14.7342 34.128 14.6742 30.108 16.1742 26.428C17.6842 22.758 20.5542 19.938 24.2542 18.488C31.1642 15.788 39.1342 18.888 42.3942 25.558C44.1442 29.138 44.3442 33.168 42.9642 36.898C42.4142 38.388 42.8442 40.038 44.0442 41.008C45.3642 42.068 46.4342 43.458 47.1342 45.028L48.1042 47.218C49.2742 49.848 49.3542 52.778 48.3242 55.468C47.2942 58.158 45.2742 60.288 42.6442 61.458C41.2442 62.078 39.7542 62.398 38.2642 62.398ZM29.4342 19.908C27.9942 19.908 26.5342 20.168 25.1342 20.718C22.0442 21.928 19.6542 24.278 18.3942 27.338C17.1342 30.398 17.1842 33.748 18.5342 36.768C19.8342 39.678 22.1842 41.918 25.1542 43.068C27.5842 44.008 29.1142 46.368 28.9542 48.948C28.8742 50.328 29.1242 51.718 29.6842 52.988L30.5842 55.018C32.4642 59.248 37.4342 61.148 41.6642 59.268C43.7142 58.358 45.2842 56.698 46.0842 54.608C46.8842 52.518 46.8242 50.238 45.9142 48.188L44.9442 45.998C44.3942 44.768 43.5842 43.708 42.5442 42.878C40.5342 41.268 39.8042 38.528 40.7142 36.068C41.8742 32.958 41.7042 29.608 40.2442 26.618C38.1942 22.418 33.8942 19.918 29.4342 19.918V19.908Z" fill="url(#paint3_linear_8_26)"/>
<defs>
<linearGradient id="paint0_linear_8_26" x1="-1.31148" y1="39.7076" x2="26.2045" y2="27.4566" gradientUnits="userSpaceOnUse">
<stop stop-color="#FFC400"/>
<stop offset="0.09" stop-color="#FFA900"/>
<stop offset="0.17" stop-color="#FF9800"/>
<stop offset="0.23" stop-color="#FF9300"/>
<stop offset="0.53" stop-color="#FF7700"/>
<stop offset="0.89" stop-color="#FF4600"/>
<stop offset="1" stop-color="#EB3D00"/>
</linearGradient>
<linearGradient id="paint1_linear_8_26" x1="55.8926" y1="14.232" x2="28.3766" y2="26.4829" gradientUnits="userSpaceOnUse">
<stop stop-color="#FFC400"/>
<stop offset="0.09" stop-color="#FFA900"/>
<stop offset="0.17" stop-color="#FF9800"/>
<stop offset="0.23" stop-color="#FF9300"/>
<stop offset="0.53" stop-color="#FF7700"/>
<stop offset="0.89" stop-color="#FF4600"/>
<stop offset="1" stop-color="#EB3D00"/>
</linearGradient>
<linearGradient id="paint2_linear_8_26" x1="36.797" y1="48.3221" x2="42.6459" y2="61.4589" gradientUnits="userSpaceOnUse">
<stop stop-color="#FFC400"/>
<stop offset="0.09" stop-color="#FFA900"/>
<stop offset="0.17" stop-color="#FF9800"/>
<stop offset="0.23" stop-color="#FF9300"/>
<stop offset="0.53" stop-color="#FF7700"/>
<stop offset="0.89" stop-color="#FF4600"/>
<stop offset="1" stop-color="#EB3D00"/>
</linearGradient>
<linearGradient id="paint3_linear_8_26" x1="23.6351" y1="18.7598" x2="42.646" y2="61.459" gradientUnits="userSpaceOnUse">
<stop stop-color="#FFC400"/>
<stop offset="0.09" stop-color="#FFA900"/>
<stop offset="0.17" stop-color="#FF9800"/>
<stop offset="0.23" stop-color="#FF9300"/>
<stop offset="0.53" stop-color="#FF7700"/>
<stop offset="0.89" stop-color="#FF4600"/>
<stop offset="1" stop-color="#EB3D00"/>
</linearGradient>
</defs>
</svg>
