<svg width="246" height="63" viewBox="0 0 246 63" fill="none" xmlns="http://www.w3.org/2000/svg">
<g clip-path="url(#clip0_8_51)">
<path d="M30.2034 40.28C34.837 40.28 38.5934 36.5237 38.5934 31.89C38.5934 27.2563 34.837 23.5 30.2034 23.5C25.5697 23.5 21.8134 27.2563 21.8134 31.89C21.8134 36.5237 25.5697 40.28 30.2034 40.28Z" fill="#FF7700"/>
<path d="M14.1734 57.12C11.2234 57.12 8.2734 55.92 6.1534 53.56C4.2234 51.42 3.2434 48.65 3.3934 45.78C3.5434 42.9 4.8034 40.26 6.9434 38.33L8.5934 36.84C8.7634 36.69 8.9334 36.54 9.1034 36.4C9.8134 35.84 10.1734 34.97 10.0734 34.07C9.9734 33.1 9.4234 32.32 8.5934 31.88C8.4534 31.81 8.3234 31.73 8.1834 31.66L6.1034 30.46C0.973402 27.47 -0.796598 20.86 2.1734 15.71C5.1534 10.56 11.7534 8.78997 16.9134 11.76L18.8334 12.87C19.6634 13.35 20.4434 13.95 21.1234 14.63C21.5934 15.1 21.5934 15.86 21.1234 16.32C20.6534 16.79 19.8934 16.79 19.4234 16.32C18.8834 15.78 18.2834 15.32 17.6234 14.94L15.7034 13.83C11.6934 11.52 6.5534 12.89 4.2434 16.9C1.9334 20.91 3.3034 26.05 7.3134 28.36L9.3934 29.56C9.5034 29.62 9.6034 29.68 9.7134 29.74C11.2534 30.54 12.2834 32.03 12.4634 33.71C12.6534 35.52 11.9634 37.19 10.6134 38.27C10.4834 38.38 10.3434 38.49 10.2134 38.61L8.5634 40.1C6.8934 41.6 5.9134 43.66 5.8034 45.9C5.6934 48.14 6.4434 50.29 7.9434 51.95C11.0334 55.39 16.3534 55.67 19.7934 52.57L21.5734 50.97C22.1034 50.49 22.5734 49.95 22.9534 49.37C23.3234 48.82 24.0634 48.67 24.6134 49.03C25.1634 49.4 25.3134 50.14 24.9534 50.69C24.4534 51.45 23.8534 52.14 23.1734 52.75L21.3934 54.35C19.3334 56.2 16.7534 57.12 14.1834 57.12H14.1734Z" fill="url(#paint0_linear_8_51)"/>
<path d="M49.2734 40.6799C48.7434 40.6799 48.2134 40.6399 47.6834 40.5599C47.0334 40.4599 46.5734 39.8499 46.6734 39.1999C46.7734 38.5399 47.3834 38.0999 48.0334 38.1899C48.7334 38.2899 49.4434 38.3099 50.1534 38.2299L52.5334 37.9799C54.7634 37.7499 56.7634 36.6599 58.1734 34.9199C59.5834 33.1799 60.2334 30.9899 59.9934 28.7599C59.5134 24.1599 55.3734 20.8099 50.7734 21.2899L48.5634 21.5199C48.3834 21.5399 48.2134 21.5599 48.0334 21.5899C46.3334 21.8799 44.6334 21.2799 43.4734 19.9899C42.2834 18.6599 41.8734 16.9099 42.3034 15.2199C42.3334 15.0999 42.3634 14.9899 42.3834 14.8699L42.8834 12.5199C43.8434 7.98995 40.9434 3.52995 36.4234 2.56995C31.8934 1.60995 27.4334 4.50995 26.4734 9.02995L26.0134 11.1999C25.8534 11.9399 25.7934 12.6999 25.8434 13.4599C25.8834 14.1199 25.3734 14.6899 24.7134 14.7199C24.0734 14.7799 23.4934 14.2499 23.4534 13.5899C23.4034 12.6199 23.4734 11.6399 23.6734 10.6999L24.1334 8.52995C25.3734 2.72995 31.1234 -1.00005 36.9334 0.239947C42.7534 1.47995 46.4834 7.21995 45.2434 13.0299L44.7434 15.3799C44.7134 15.5299 44.6734 15.6799 44.6334 15.8299C44.4034 16.7299 44.6134 17.6699 45.2034 18.3299C45.8734 19.0699 46.7634 19.3899 47.6434 19.2399C47.8634 19.1999 48.0934 19.1699 48.3134 19.1499L50.5234 18.9199C56.4434 18.3099 61.7634 22.6099 62.3834 28.5199C62.6834 31.3899 61.8534 34.1999 60.0334 36.4399C58.2134 38.6799 55.6434 40.0799 52.7734 40.3799L50.3934 40.6299C50.0134 40.6699 49.6334 40.6899 49.2634 40.6899L49.2734 40.6799Z" fill="url(#paint1_linear_8_51)"/>
<path d="M38.9934 62.3899C34.8634 62.3899 30.9134 59.9999 29.1234 55.9899L28.2234 53.9599C27.9534 53.3599 28.2234 52.6499 28.8334 52.3799C29.4434 52.1099 30.1434 52.3799 30.4134 52.9899L31.3134 55.0199C33.1934 59.2499 38.1634 61.1599 42.3934 59.2699C44.4434 58.3599 46.0134 56.6999 46.8134 54.6099C47.6134 52.5199 47.5534 50.2399 46.6434 48.1899L45.6734 45.9999C45.4034 45.3999 45.6734 44.6899 46.2834 44.4199C46.8934 44.1499 47.5934 44.4199 47.8634 45.0299L48.8334 47.2199C50.0034 49.8499 50.0834 52.7799 49.0534 55.4699C48.0234 58.1599 46.0034 60.2899 43.3734 61.4599C41.9534 62.0899 40.4634 62.3899 39.0034 62.3899H38.9934Z" fill="url(#paint2_linear_8_51)"/>
<path d="M38.9934 62.3899C34.8634 62.3899 30.9134 60 29.1234 55.99L28.2234 53.9599C27.5034 52.3499 27.1834 50.5599 27.2834 48.7999C27.3734 47.2699 26.4634 45.8599 25.0134 45.2999C21.4434 43.92 18.6234 41.23 17.0634 37.74C15.4534 34.12 15.3934 30.0999 16.8934 26.4199C18.4034 22.7499 21.2734 19.9299 24.9734 18.4799C31.8834 15.7799 39.8534 18.8799 43.1134 25.5499C44.8634 29.1299 45.0634 33.16 43.6834 36.8899C43.1334 38.3799 43.5634 40.03 44.7634 41C46.1034 42.08 47.1434 43.43 47.8534 45.02L48.8234 47.2099C49.9934 49.84 50.0734 52.77 49.0434 55.4599C48.0134 58.1499 45.9934 60.28 43.3634 61.45C41.9434 62.08 40.4534 62.38 38.9934 62.38V62.3899ZM30.1634 19.9099C28.7234 19.9099 27.2634 20.1699 25.8634 20.7199C22.7734 21.9299 20.3834 24.2799 19.1234 27.3399C17.8634 30.4 17.9134 33.75 19.2634 36.77C20.5634 39.68 22.9134 41.92 25.8834 43.07C28.3134 44.01 29.8434 46.37 29.6834 48.95C29.6034 50.33 29.8534 51.72 30.4134 52.99L31.3134 55.02C33.1934 59.25 38.1634 61.16 42.3934 59.27C44.4434 58.36 46.0134 56.7 46.8134 54.61C47.6134 52.52 47.5534 50.2399 46.6434 48.1899L45.6734 46C45.1234 44.77 44.3134 43.71 43.2734 42.88C41.2634 41.27 40.5334 38.5299 41.4434 36.07C42.6034 32.96 42.4334 29.61 40.9734 26.62C38.9234 22.42 34.6234 19.9199 30.1634 19.9199V19.9099Z" fill="url(#paint3_linear_8_51)"/>
<path d="M84.6534 41.06C86.4634 41.06 87.3434 40.23 87.3434 39.2C87.3434 38.37 86.8534 37.68 84.7434 36.75L83.3234 36.11C79.2034 34.25 77.7434 31.46 77.7434 28.86C77.7434 24.6 81.4134 21.17 87.0034 21.17C90.5834 21.17 93.4734 22.54 94.8934 24.65C95.2834 25.24 95.5834 25.83 95.5834 26.71C95.5834 28.57 94.5034 30.09 92.2034 30.09C90.9334 30.09 89.6034 29.35 89.1134 27.88C88.8634 27.19 87.8834 26.36 86.5134 26.36C85.0434 26.36 84.2134 27.34 84.2134 28.12C84.2134 29.2 84.9034 29.79 87.0034 30.77L88.7634 31.6C93.1734 33.71 94.2034 36.4 94.2034 38.66C94.2034 42.97 90.4334 46.4 84.6534 46.4C80.6834 46.4 77.3534 44.83 75.7334 42.38C75.3434 41.74 74.9034 40.81 74.9034 39.73C74.9034 37.82 76.2734 36.45 78.2334 36.45C79.9534 36.45 81.0734 37.48 81.3734 39.05C81.6134 40.32 82.9934 41.06 84.6534 41.06Z" fill="white"/>
<path d="M98.3734 35.2301C98.3734 26.8001 104.253 21.2201 111.263 21.2201C117.833 21.2201 121.943 26.0701 121.943 32.2901C121.943 40.9101 116.213 46.4001 109.153 46.4001C102.683 46.4001 98.3734 41.3501 98.3734 35.2301ZM114.983 32.4301C114.983 29.9801 113.903 27.1401 110.863 27.1401C107.823 27.1401 105.323 30.0301 105.323 35.1801C105.323 37.7801 106.593 40.2801 109.443 40.2801C112.533 40.2801 114.983 37.2401 114.983 32.4401V32.4301Z" fill="white"/>
<path d="M134.293 41.06C136.103 41.06 136.983 40.23 136.983 39.2C136.983 38.37 136.493 37.68 134.383 36.75L132.963 36.11C128.843 34.25 127.383 31.46 127.383 28.86C127.383 24.6 131.053 21.17 136.643 21.17C140.223 21.17 143.113 22.54 144.533 24.65C144.923 25.24 145.223 25.83 145.223 26.71C145.223 28.57 144.143 30.09 141.843 30.09C140.573 30.09 139.243 29.35 138.753 27.88C138.503 27.19 137.523 26.36 136.153 26.36C134.683 26.36 133.853 27.34 133.853 28.12C133.853 29.2 134.543 29.79 136.643 30.77L138.403 31.6C142.813 33.71 143.843 36.4 143.843 38.66C143.843 42.97 140.073 46.4 134.293 46.4C130.323 46.4 126.993 44.83 125.373 42.38C124.983 41.74 124.543 40.81 124.543 39.73C124.543 37.82 125.913 36.45 127.873 36.45C129.593 36.45 130.713 37.48 131.013 39.05C131.253 40.32 132.633 41.06 134.293 41.06Z" fill="white"/>
<path d="M163.933 42.9701C162.613 44.8801 160.063 46.4001 157.073 46.4001C152.023 46.4001 148.013 42.2801 148.013 35.5701C148.013 27.1401 153.943 21.2101 160.503 21.2101C162.753 21.2101 164.763 22.1401 165.943 23.4101C166.683 22.5301 167.653 21.9401 168.883 21.9401C171.043 21.9401 172.413 23.6501 172.263 25.6601C172.213 26.8401 171.433 28.2101 171.233 29.3801L169.813 37.6101C169.563 38.9801 169.613 39.4701 169.963 39.4701C170.203 39.4701 170.353 39.3701 170.843 39.3701C172.653 39.3701 173.733 40.7401 173.733 42.3101C173.733 44.3701 171.773 45.9401 168.883 45.9401C166.723 45.9401 164.863 44.9601 163.933 42.9501V42.9701ZM162.903 36.0601L164.273 28.2201C163.533 27.3401 162.463 26.9001 161.133 26.9001C157.903 26.9001 155.103 30.8701 155.103 35.7201C155.103 39.0001 156.673 40.3701 158.533 40.3701C160.393 40.3701 162.403 39.0501 162.893 36.0601H162.903Z" fill="white"/>
<path d="M185.593 39.49C185.883 39.49 186.133 39.39 186.473 39.39C188.183 39.39 189.363 40.71 189.363 42.28C189.363 44.29 187.503 45.95 184.613 45.95C180.943 45.95 178.443 43.21 178.443 38.94C178.443 37.76 178.643 36.25 178.833 35.12L181.973 16.99C182.123 16.06 182.223 14.34 182.313 13.46C182.553 11.21 184.373 9.54004 186.473 9.54004C188.573 9.54004 190.053 11.25 189.903 13.46C189.853 14.44 189.263 16.06 189.123 16.99L185.893 34.92C185.453 37.32 185.303 38.25 185.303 38.74C185.303 39.18 185.403 39.48 185.593 39.48V39.49Z" fill="white"/>
<path d="M193.143 42.2801C193.143 39.9301 195.253 38.2101 197.313 38.2101C199.373 38.2101 200.943 39.8801 200.943 41.8801C200.943 44.2301 198.833 45.9501 196.773 45.9501C194.713 45.9501 193.143 44.2801 193.143 42.2801Z" fill="white"/>
<path d="M208.233 39.39C208.233 37.77 208.523 36.25 209.063 34.2L210.143 30.23C210.583 28.66 210.533 27.68 210.093 27.68C209.803 27.68 209.553 27.78 209.213 27.78C207.503 27.78 206.323 26.46 206.323 24.89C206.323 22.88 208.183 21.22 211.073 21.22C213.963 21.22 216.023 22.79 216.853 25.48C217.393 27.29 217.243 29.35 216.563 32.24L215.873 35.13C215.283 37.58 215.093 38.41 215.093 39.1C215.093 39.39 215.293 39.49 215.383 39.49C215.673 39.49 215.923 39.39 216.263 39.39C217.973 39.39 219.153 40.71 219.153 42.28C219.153 44.29 217.293 45.95 214.403 45.95C210.873 45.95 208.233 43.35 208.233 39.38V39.39ZM211.513 14.11C211.513 11.9 213.373 10.14 215.633 10.14C217.893 10.14 219.803 11.9 219.803 14.11C219.803 16.32 217.943 18.13 215.633 18.13C213.323 18.13 211.513 16.37 211.513 14.11Z" fill="white"/>
<path d="M221.853 35.2301C221.853 26.8001 227.733 21.2201 234.743 21.2201C241.313 21.2201 245.423 26.0701 245.423 32.2901C245.423 40.9101 239.693 46.4001 232.633 46.4001C226.163 46.4001 221.853 41.3501 221.853 35.2301ZM238.463 32.4301C238.463 29.9801 237.383 27.1401 234.343 27.1401C231.303 27.1401 228.803 30.0301 228.803 35.1801C228.803 37.7801 230.073 40.2801 232.923 40.2801C236.013 40.2801 238.463 37.2401 238.463 32.4401V32.4301Z" fill="white"/>
</g>
<defs>
<linearGradient id="paint0_linear_8_51" x1="-0.593728" y1="39.6994" x2="26.9223" y2="27.4485" gradientUnits="userSpaceOnUse">
<stop stop-color="#FFC400"/>
<stop offset="0.09" stop-color="#FFA900"/>
<stop offset="0.17" stop-color="#FF9800"/>
<stop offset="0.23" stop-color="#FF9300"/>
<stop offset="0.53" stop-color="#FF7700"/>
<stop offset="0.89" stop-color="#FF4600"/>
<stop offset="1" stop-color="#EB3D00"/>
</linearGradient>
<linearGradient id="paint1_linear_8_51" x1="56.6138" y1="14.2431" x2="29.0978" y2="26.494" gradientUnits="userSpaceOnUse">
<stop stop-color="#FFC400"/>
<stop offset="0.09" stop-color="#FFA900"/>
<stop offset="0.17" stop-color="#FF9800"/>
<stop offset="0.23" stop-color="#FF9300"/>
<stop offset="0.53" stop-color="#FF7700"/>
<stop offset="0.89" stop-color="#FF4600"/>
<stop offset="1" stop-color="#EB3D00"/>
</linearGradient>
<linearGradient id="paint2_linear_8_51" x1="37.5189" y1="48.3231" x2="43.3677" y2="61.4599" gradientUnits="userSpaceOnUse">
<stop stop-color="#FFC400"/>
<stop offset="0.09" stop-color="#FFA900"/>
<stop offset="0.17" stop-color="#FF9800"/>
<stop offset="0.23" stop-color="#FF9300"/>
<stop offset="0.53" stop-color="#FF7700"/>
<stop offset="0.89" stop-color="#FF4600"/>
<stop offset="1" stop-color="#EB3D00"/>
</linearGradient>
<linearGradient id="paint3_linear_8_51" x1="24.3528" y1="18.7517" x2="43.3677" y2="61.46" gradientUnits="userSpaceOnUse">
<stop stop-color="#FFC400"/>
<stop offset="0.09" stop-color="#FFA900"/>
<stop offset="0.17" stop-color="#FF9800"/>
<stop offset="0.23" stop-color="#FF9300"/>
<stop offset="0.53" stop-color="#FF7700"/>
<stop offset="0.89" stop-color="#FF4600"/>
<stop offset="1" stop-color="#EB3D00"/>
</linearGradient>
<clipPath id="clip0_8_51">
<rect width="244.69" height="62.39" fill="white" transform="translate(0.733398)"/>
</clipPath>
</defs>
</svg>
