<svg width="100" height="100" viewBox="0 0 100 100" fill="none" xmlns="http://www.w3.org/2000/svg">
<path d="M49.57 59.41C54.3694 59.41 58.26 55.5194 58.26 50.72C58.26 45.9206 54.3694 42.03 49.57 42.03C44.7706 42.03 40.88 45.9206 40.88 50.72C40.88 55.5194 44.7706 59.41 49.57 59.41Z" fill="#B2A18F"/>
<path d="M32.98 76.84C32.78 76.84 32.58 76.84 32.38 76.82C29.4 76.66 26.66 75.36 24.66 73.14C22.66 70.92 21.65 68.06 21.81 65.08C21.97 62.1 23.27 59.36 25.49 57.36L27.2 55.82C27.37 55.66 27.55 55.51 27.73 55.37C28.46 54.79 28.84 53.89 28.74 52.95C28.63 51.94 28.06 51.13 27.2 50.69C27.06 50.62 26.92 50.54 26.78 50.46L24.63 49.22C22.05 47.73 20.2 45.32 19.42 42.44C18.64 39.56 19.04 36.55 20.54 33.96C23.62 28.63 30.47 26.79 35.8 29.87L37.79 31.02C38.66 31.52 39.46 32.14 40.17 32.85C40.65 33.34 40.65 34.12 40.17 34.61C39.69 35.09 38.9 35.09 38.41 34.61C37.85 34.05 37.23 33.57 36.55 33.18L34.56 32.03C30.41 29.64 25.09 31.06 22.69 35.21C20.29 39.36 21.72 44.68 25.87 47.08L28.02 48.32C28.13 48.38 28.24 48.44 28.35 48.5C29.94 49.33 31.01 50.87 31.19 52.6C31.39 54.48 30.67 56.21 29.27 57.32C29.13 57.43 28.99 57.55 28.85 57.67L27.14 59.21C23.58 62.42 23.29 67.92 26.5 71.48C28.05 73.2 30.18 74.22 32.5 74.34C34.82 74.46 37.04 73.67 38.77 72.12L40.61 70.46C41.16 69.97 41.64 69.41 42.04 68.8C42.42 68.23 43.19 68.07 43.76 68.45C44.33 68.83 44.49 69.6 44.11 70.17C43.59 70.95 42.97 71.67 42.27 72.31L40.43 73.97C38.36 75.83 35.73 76.84 32.97 76.84H32.98Z" fill="#B2A18F"/>
<path d="M69.31 59.82C68.76 59.82 68.21 59.78 67.67 59.7C66.99 59.6 66.52 58.97 66.62 58.29C66.72 57.61 67.35 57.14 68.03 57.24C68.76 57.35 69.5 57.36 70.23 57.29L72.7 57.03C75.01 56.79 77.09 55.66 78.55 53.86C80.01 52.06 80.68 49.79 80.44 47.48C79.94 42.72 75.68 39.25 70.89 39.75L68.6 39.99C68.42 40.01 68.24 40.03 68.06 40.06C66.29 40.35 64.53 39.74 63.34 38.4C62.11 37.03 61.68 35.21 62.13 33.46C62.16 33.35 62.19 33.22 62.21 33.1L62.73 30.67C63.73 25.98 60.72 21.36 56.04 20.36C51.35 19.36 46.73 22.37 45.73 27.05L45.25 29.3C45.09 30.06 45.03 30.85 45.07 31.64C45.11 32.32 44.58 32.91 43.9 32.95C43.21 32.98 42.63 32.46 42.59 31.78C42.54 30.77 42.62 29.77 42.82 28.79L43.3 26.54C44.58 20.51 50.52 16.66 56.55 17.93C59.47 18.55 61.97 20.27 63.6 22.77C65.23 25.27 65.78 28.26 65.16 31.18L64.64 33.61C64.61 33.76 64.57 33.92 64.53 34.07C64.29 35.02 64.51 35.98 65.12 36.66C65.81 37.43 66.74 37.75 67.65 37.6C67.88 37.56 68.11 37.53 68.34 37.5L70.63 37.26C76.75 36.61 82.26 41.08 82.91 47.2C83.22 50.17 82.36 53.08 80.48 55.4C78.6 57.72 75.93 59.17 72.96 59.48L70.49 59.74C70.1 59.78 69.71 59.8 69.31 59.8V59.82Z" fill="#B2A18F"/>
<path d="M58.66 82.31C57.31 82.31 55.95 82.06 54.65 81.56C51.86 80.49 49.66 78.4 48.45 75.67L47.51 73.57C47.23 72.94 47.51 72.21 48.14 71.93C48.77 71.65 49.5 71.93 49.78 72.56L50.72 74.66C51.66 76.78 53.38 78.41 55.55 79.24C57.72 80.07 60.08 80.01 62.2 79.07C66.58 77.12 68.55 71.97 66.6 67.6L65.59 65.33C65.31 64.7 65.59 63.97 66.22 63.69C66.85 63.41 67.58 63.69 67.86 64.32L68.87 66.59C71.38 72.22 68.84 78.84 63.21 81.34C61.76 81.99 60.22 82.31 58.67 82.31H58.66Z" fill="#B2A18F"/>
<path d="M58.66 82.31C57.31 82.31 55.95 82.06 54.65 81.56C51.86 80.49 49.66 78.4 48.45 75.67L47.51 73.57C46.77 71.9 46.43 70.05 46.54 68.23C46.64 66.64 45.69 65.18 44.19 64.6C40.49 63.17 37.57 60.39 35.96 56.77C34.29 53.02 34.23 48.86 35.79 45.05C37.35 41.25 40.32 38.33 44.16 36.83C51.32 34.03 59.57 37.25 62.95 44.15C64.76 47.86 64.97 52.03 63.54 55.89C62.97 57.44 63.42 59.15 64.66 60.15C66.05 61.27 67.13 62.67 67.86 64.31L68.87 66.58C71.38 72.21 68.84 78.83 63.21 81.33C61.76 81.98 60.22 82.3 58.67 82.3L58.66 82.31ZM49.52 38.31C48.03 38.31 46.52 38.58 45.06 39.15C41.86 40.4 39.38 42.84 38.08 46C36.78 49.17 36.83 52.64 38.22 55.77C39.56 58.79 42 61.1 45.08 62.29C47.6 63.26 49.18 65.71 49.02 68.38C48.94 69.81 49.2 71.25 49.78 72.56L50.72 74.66C51.66 76.78 53.38 78.41 55.55 79.24C57.72 80.07 60.08 80.01 62.2 79.07C64.32 78.13 65.95 76.41 66.78 74.24C67.61 72.07 67.55 69.71 66.61 67.59L65.6 65.32C65.03 64.04 64.19 62.95 63.11 62.08C61.03 60.41 60.27 57.57 61.22 55.02C62.42 51.8 62.24 48.33 60.73 45.24C58.6 40.89 54.16 38.3 49.54 38.3L49.52 38.31Z" fill="#B2A18F"/>
<path d="M50 10.03C72.04 10.03 89.97 27.96 89.97 50C89.97 72.04 72.04 89.97 50 89.97C27.96 89.97 10.03 72.04 10.03 50C10.03 27.96 27.96 10.03 50 10.03ZM50 6C25.7 6 6 25.7 6 50C6 74.3 25.7 94 50 94C74.3 94 94 74.3 94 50C94 25.7 74.3 6 50 6Z" fill="#B2A18F"/>
</svg>
