<svg width="100" height="100" viewBox="0 0 100 100" fill="none" xmlns="http://www.w3.org/2000/svg">
<path d="M72.13 5.74H27.87C15.6479 5.74 5.74 15.6479 5.74 27.87V72.13C5.74 84.3521 15.6479 94.26 27.87 94.26H72.13C84.3521 94.26 94.26 84.3521 94.26 72.13V27.87C94.26 15.6479 84.3521 5.74 72.13 5.74Z" fill="#181616"/>
<path d="M72.13 95H27.87C15.26 95 5 84.74 5 72.13V27.87C5 15.26 15.26 5 27.87 5H72.13C84.74 5 95 15.26 95 27.87V72.13C95 84.74 84.74 95 72.13 95ZM27.87 6.48C16.07 6.48 6.48 16.08 6.48 27.87V72.13C6.48 83.93 16.08 93.52 27.87 93.52H72.13C83.93 93.52 93.52 83.92 93.52 72.13V27.87C93.52 16.07 83.92 6.48 72.13 6.48H27.87Z" fill="#665F59"/>
<path d="M32.88 32.69H40.52L49.81 55.34H50.19L59.46 32.69H67.1V64.88H61.11V43.24H60.81L52.15 64.76H47.84L39.16 43.18H38.88V64.89H32.88V32.69Z" fill="#B2A18F"/>
</svg>
