<svg width="100" height="100" viewBox="0 0 100 100" fill="none" xmlns="http://www.w3.org/2000/svg">
<path d="M40.12 85.81C40.12 86.25 40.12 86.47 39.9 86.69C39.68 87.57 38.8 88.01 37.92 87.57C25.62 83.62 16.17 74.17 12.22 61.87C5.63002 41 17.05 18.81 37.92 12.22C38.14 12 38.58 12 38.8 12C39.68 12.22 40.12 12.88 40.12 13.76V16.83C40.12 17.93 39.68 18.59 38.8 19.03C29.8 22.32 22.55 29.35 19.25 38.58C12.88 55.49 21.66 74.6 38.8 80.76C39.46 81.2 40.12 82.08 40.12 82.74V85.81Z" fill="#665F59"/>
<path d="M53.52 74.6C53.3 75.7 52.64 76.36 51.76 76.36H48.47C47.37 76.14 46.71 75.48 46.71 74.6V69.33C39.46 68.23 35.95 64.28 35.07 58.79V58.57C35.07 57.69 35.73 57.03 36.61 57.03H40.34C41 57.03 41.66 57.47 41.88 58.35C42.54 61.64 44.52 64.06 50.23 64.06C54.41 64.06 57.48 61.65 57.48 58.13C57.48 54.61 55.5 53.3 49.35 52.2C40.12 51.1 35.73 48.25 35.73 41C35.73 35.51 39.91 31.12 46.5 30.23V25.18C46.72 24.08 47.38 23.42 48.26 23.42H51.55C52.65 23.64 53.31 24.3 53.31 25.18V30.45C58.36 30.89 62.31 34.62 63.19 39.45V39.67C63.19 40.55 62.53 41.21 61.65 41.21H58.13C57.47 41.21 56.81 40.77 56.59 40.11C55.49 36.82 53.29 35.5 49.34 35.5C44.95 35.5 42.75 37.48 42.75 40.55C42.75 43.62 44.07 45.38 50.66 46.26C59.89 47.36 64.5 50 64.5 57.68C64.5 63.61 60.1 68.22 53.52 69.33V74.6Z" fill="#665F59"/>
<path d="M62.08 87.78C61.86 88 61.42 88 61.2 88C60.32 87.78 59.88 87.12 59.88 86.24V83.17C59.88 82.07 60.32 81.41 61.2 80.97C70.2 77.68 77.45 70.65 80.75 61.42C87.12 44.51 78.34 25.4 61.2 19.24C60.54 18.8 59.88 17.92 59.88 17.04V13.97C59.88 13.53 59.88 13.31 60.1 13.09C60.32 12.21 61.2 11.77 62.08 12.21C74.16 16.16 83.83 25.61 87.78 38.13C94.37 59 82.95 81.19 62.08 87.78Z" fill="#665F59"/>
</svg>
