<svg width="100" height="100" viewBox="0 0 100 100" fill="none" xmlns="http://www.w3.org/2000/svg">
<path d="M24.55 50.86C27.79 50.86 30.62 52.93 31.6 56.02L33.95 63.43H66.06L67.22 59.75H61.75C57.23 59.75 53.56 56.07 53.56 51.55V45C53.56 40.48 57.24 36.8 61.75 36.8H74.29V34.1C74.29 29.57 70.62 25.91 66.1 25.91H26.2C21.67 25.91 18.01 29.58 18.01 34.1V50.85H24.55V50.86Z" fill="#B2A18F"/>
<path d="M77.57 34.11V36.86C79.23 36.96 80.75 37.55 82 38.49V27.47C82 22.94 78.33 19.28 73.81 19.28H33.92C31.21 19.28 28.83 20.61 27.34 22.64H66.11C72.43 22.64 77.58 27.79 77.58 34.11H77.57Z" fill="#B2A18F"/>
<path d="M68.26 56.47L68.4 56.02C69.38 52.93 72.21 50.86 75.45 50.86H81.99V45C81.99 42.28 79.79 40.08 77.07 40.08H61.74C59.02 40.08 56.82 42.28 56.82 45V51.55C56.82 54.27 59.02 56.47 61.74 56.47H68.26ZM69.41 44.17C71.68 44.17 73.52 46.01 73.52 48.28C73.52 50.55 71.68 52.39 69.41 52.39C67.14 52.39 65.3 50.55 65.3 48.28C65.3 46.01 67.14 44.17 69.41 44.17Z" fill="#B2A18F"/>
<path d="M71.54 61.46L68.47 71.16H31.54L28.47 61.46C27.93 59.75 26.34 58.59 24.55 58.59H13.52C11.25 58.59 9.41003 60.43 9.41003 62.7V79.61C9.41003 81.88 11.25 83.72 13.52 83.72H86.49C88.76 83.72 90.6 81.88 90.6 79.61V62.7C90.6 60.43 88.76 58.59 86.49 58.59H75.46C73.67 58.59 72.08 59.75 71.54 61.46Z" fill="#B2A18F"/>
</svg>
