<svg width="100" height="100" viewBox="0 0 100 100" fill="none" xmlns="http://www.w3.org/2000/svg">
<path d="M74.07 35.2101C73.46 34.5901 72.71 34.2701 71.77 34.2801C70.91 34.3001 70.1 34.7001 69.53 35.3401L49.12 58.9401L31.2 51.5201C30.09 51.0601 28.79 51.3001 27.91 52.1201L6.81 71.9701C6.19 72.5501 5.84 73.3701 5.84 74.2101V87.9101C5.84 89.6101 7.22 90.9901 8.92 90.9901H91.09C92.79 90.9901 94.17 89.6101 94.17 87.9101V57.1001C94.17 56.3001 93.86 55.5201 93.3 54.9501L74.08 35.2101H74.07Z" fill="#B2A18F"/>
<path d="M8.92 52.0201C9.68 52.0201 10.44 51.7401 11.03 51.1801L30.68 32.6901L48.82 40.2001C50.04 40.6901 51.46 40.3701 52.33 39.3701L72 16.6301L88.88 33.9701C90.08 35.1901 92.03 35.2201 93.24 34.0301C94.46 32.8401 94.49 30.8901 93.3 29.6701L74.08 9.93012C73.47 9.31012 72.72 8.97012 71.78 9.00012C70.92 9.02012 70.11 9.42012 69.54 10.0601L49.13 33.6601L31.21 26.2401C30.1 25.7801 28.8 26.0101 27.92 26.8401L6.81 46.7001C5.57 47.8701 5.51 49.8201 6.68 51.0601C7.29 51.7001 8.11 52.0301 8.92 52.0301V52.0201Z" fill="#B2A18F"/>
</svg>
