<svg width="100" height="100" viewBox="0 0 100 100" fill="none" xmlns="http://www.w3.org/2000/svg">
<path d="M50 98C23.53 98 2 76.47 2 50C2 23.53 23.53 2 50 2C76.47 2 98 23.53 98 50C98 76.47 76.47 98 50 98Z" fill="url(#paint0_linear_127_915)"/>
<path d="M50 93.64C74.1017 93.64 93.64 74.1017 93.64 50C93.64 25.8983 74.1017 6.36 50 6.36C25.8983 6.36 6.36 25.8983 6.36 50C6.36 74.1017 25.8983 93.64 50 93.64Z" fill="black"/>
<path d="M72.45 42.74V63.03L50 76.06L27.54 63.03V36.97L50 23.93L67.25 33.95L69.85 32.44L50 20.91L24.94 35.46V64.54L50 79.09L75.06 64.54V41.23L72.44 42.74H72.45Z" fill="url(#paint1_linear_127_915)"/>
<path d="M43.72 63.04H39.96V50.38H52.48C53.66 50.37 54.8 49.89 55.63 49.04C56.46 48.19 56.93 47.05 56.94 45.86C56.94 45.27 56.83 44.69 56.61 44.14C56.38 43.6 56.05 43.11 55.63 42.7C55.22 42.28 54.73 41.94 54.19 41.72C53.65 41.49 53.07 41.38 52.48 41.38H39.96V37.53H52.49C54.68 37.54 56.78 38.43 58.34 39.98C59.89 41.54 60.77 43.65 60.78 45.86C60.79 47.55 60.28 49.2 59.32 50.58C58.43 51.9 57.18 52.93 55.71 53.55C54.26 54.01 52.75 54.24 51.23 54.23H43.72V63.04Z" fill="url(#paint2_linear_127_915)"/>
<path d="M60.69 62.73H56.31L52.93 56.8C54.27 56.72 55.59 56.45 56.85 55.99L60.69 62.72V62.73Z" fill="url(#paint3_linear_127_915)"/>
<path d="M69.83 38.53L72.42 39.98L75.01 38.53V35.47L72.42 33.96L69.83 35.47V38.53Z" fill="url(#paint4_linear_127_915)"/>
<defs>
<linearGradient id="paint0_linear_127_915" x1="81.84" y1="18.16" x2="17.21" y2="82.79" gradientUnits="userSpaceOnUse">
<stop stop-color="#C000F9"/>
<stop offset="0.49" stop-color="#3673FC"/>
<stop offset="1" stop-color="#5AC2BC"/>
</linearGradient>
<linearGradient id="paint1_linear_127_915" x1="100.931" y1="32.5425" x2="3.6127" y2="77.4792" gradientUnits="userSpaceOnUse">
<stop stop-color="#C000F9"/>
<stop offset="0.49" stop-color="#3673FC"/>
<stop offset="1" stop-color="#5AC2BC"/>
</linearGradient>
<linearGradient id="paint2_linear_127_915" x1="166.195" y1="-0.48373" x2="-63.4712" y2="111.452" gradientUnits="userSpaceOnUse">
<stop stop-color="#C000F9"/>
<stop offset="0.49" stop-color="#3673FC"/>
<stop offset="1" stop-color="#5AC2BC"/>
</linearGradient>
<linearGradient id="paint3_linear_127_915" x1="347.649" y1="-80.6113" x2="-333.62" y2="154.876" gradientUnits="userSpaceOnUse">
<stop stop-color="#C000F9"/>
<stop offset="0.49" stop-color="#3673FC"/>
<stop offset="1" stop-color="#5AC2BC"/>
</linearGradient>
<linearGradient id="paint4_linear_127_915" x1="75.17" y1="35.8701" x2="21.95" y2="57.0401" gradientUnits="userSpaceOnUse">
<stop stop-color="#C000F9"/>
<stop offset="0.49" stop-color="#3673FC"/>
<stop offset="1" stop-color="#5AC2BC"/>
</linearGradient>
</defs>
</svg>
