<svg width="100" height="100" viewBox="0 0 100 100" fill="none" xmlns="http://www.w3.org/2000/svg">
<path d="M28.5601 44.33C35.7301 44.33 41.5401 38.52 41.5401 31.35C41.5401 24.18 35.7301 18.37 28.5601 18.37C21.3901 18.37 15.5801 24.18 15.5801 31.35C15.5801 38.52 21.3901 44.33 28.5601 44.33Z" fill="#665F59"/>
<path d="M80.6784 32.6482C82.1004 23.8877 76.1514 15.6331 67.3908 14.211C58.6303 12.789 50.3757 18.738 48.9536 27.4986C47.5316 36.2591 53.4806 44.5137 62.2412 45.9358C71.0017 47.3578 79.2563 41.4088 80.6784 32.6482Z" fill="#665F59"/>
<path d="M96.6201 81.27C94.3301 65.76 80.9601 53.85 64.8201 53.85C58.4801 53.85 52.5701 55.69 47.5901 58.86C44.4001 60.89 41.6001 63.46 39.3101 66.45C39.0201 66.82 38.7501 67.2 38.4801 67.58C38.2101 67.96 37.9501 68.35 37.7001 68.75C37.4501 69.15 37.2001 69.55 36.9701 69.95C36.7401 70.37 36.5101 70.78 36.2901 71.2C36.0701 71.62 35.8601 72.04 35.6601 72.47C35.2601 73.33 34.9001 74.21 34.5701 75.12C34.4101 75.57 34.2601 76.02 34.1201 76.48C33.6301 78.07 33.2501 79.71 33.0101 81.4C32.6701 83.81 34.5401 85.97 36.9801 85.97H92.5301C95.0501 85.97 97.0101 83.73 96.6401 81.24L96.6201 81.27Z" fill="#665F59"/>
<path d="M40.9201 58.67C42.0301 57.7 43.2101 56.8 44.4201 55.98C40.0301 52.58 34.5301 50.56 28.5601 50.56C15.9301 50.56 5.40006 59.58 3.08006 71.53C2.58006 74.11 4.52006 76.51 7.15006 76.51H29.7801C31.6401 69.64 35.5001 63.42 40.9201 58.67Z" fill="#665F59"/>
</svg>
