<svg width="100" height="100" viewBox="0 0 100 100" fill="none" xmlns="http://www.w3.org/2000/svg">
<path d="M28.73 44.3301C35.9 44.3301 41.71 38.5201 41.71 31.3501C41.71 24.1801 35.9 18.3701 28.73 18.3701C21.56 18.3701 15.75 24.1801 15.75 31.3501C15.75 38.5201 21.56 44.3301 28.73 44.3301Z" fill="url(#paint0_linear_127_932)"/>
<path d="M80.8453 32.6524C82.2674 23.8918 76.3183 15.6372 67.5578 14.2152C58.7972 12.7931 50.5426 18.7422 49.1206 27.5027C47.6985 36.2633 53.6476 44.5179 62.4081 45.9399C71.1687 47.362 79.4233 41.4129 80.8453 32.6524Z" fill="url(#paint1_linear_127_932)"/>
<path d="M64.98 53.85C58.64 53.85 52.73 55.69 47.75 58.8601C44.56 60.89 41.76 63.46 39.47 66.45C39.19 66.82 38.91 67.2001 38.64 67.5801C38.37 67.9601 38.11 68.35 37.86 68.75C37.61 69.1501 37.36 69.55 37.13 69.95C36.89 70.36 36.67 70.7701 36.45 71.1901C36.23 71.6101 36.02 72.03 35.82 72.46C35.42 73.32 35.06 74.2001 34.74 75.1101C34.58 75.5601 34.43 76.0201 34.29 76.4801C33.8 78.0701 33.42 79.7101 33.18 81.4001C32.84 83.8101 34.71 85.9701 37.15 85.9701H92.7C95.22 85.9701 97.18 83.73 96.81 81.2401C94.52 65.73 81.15 53.82 65.01 53.82L64.98 53.85ZM43.12 77.3601C43.29 76.9501 43.46 76.5401 43.65 76.14L44.14 75.14L45.12 73.45L45.7 72.57L46.34 71.7C48.02 69.52 50.06 67.65 52.39 66.17C56.16 63.77 60.51 62.51 64.98 62.51C74.73 62.51 83.36 68.6201 86.84 77.3701H43.11L43.12 77.3601Z" fill="url(#paint2_linear_127_932)"/>
<path d="M27.39 74.38C27.56 73.82 27.75 73.26 27.95 72.71C28.36 71.58 28.8 70.5 29.29 69.45C29.52 68.95 29.77 68.4301 30.04 67.9101L30.88 66.3701C31.17 65.8701 31.47 65.3901 31.77 64.9101C32.1 64.3901 32.42 63.91 32.75 63.4501C33.09 62.96 33.44 62.49 33.79 62.03C36.07 59.05 38.88 56.5 41.96 54.26C38.08 51.94 33.58 50.5601 28.73 50.5601C16.1 50.5601 5.56998 59.5801 3.24998 71.5401C2.74998 74.12 4.68998 76.52 7.31998 76.52H26.91C27.09 75.81 27.17 75.1 27.39 74.39V74.38Z" fill="url(#paint3_linear_127_932)"/>
<defs>
<linearGradient id="paint0_linear_127_932" x1="3.17114" y1="50.0153" x2="96.8189" y2="50.0153" gradientUnits="userSpaceOnUse">
<stop stop-color="#FFC400"/>
<stop offset="0.09" stop-color="#FFA900"/>
<stop offset="0.17" stop-color="#FF9800"/>
<stop offset="0.23" stop-color="#FF9300"/>
<stop offset="0.53" stop-color="#FF7700"/>
<stop offset="0.89" stop-color="#FF4600"/>
<stop offset="1" stop-color="#EB3D00"/>
</linearGradient>
<linearGradient id="paint1_linear_127_932" x1="42.5368" y1="14.4666" x2="51.4885" y2="86.2572" gradientUnits="userSpaceOnUse">
<stop stop-color="#FF4BEA"/>
<stop offset="0.05" stop-color="#FA33EA"/>
<stop offset="0.12" stop-color="#F517EB"/>
<stop offset="0.18" stop-color="#F206EB"/>
<stop offset="0.23" stop-color="#F101EC"/>
<stop offset="0.53" stop-color="#B121EC"/>
<stop offset="0.89" stop-color="#9400FF"/>
<stop offset="1" stop-color="#6A00D7"/>
</linearGradient>
<linearGradient id="paint2_linear_127_932" x1="3.12705" y1="50.0659" x2="96.8182" y2="50.0659" gradientUnits="userSpaceOnUse">
<stop stop-color="#FF4BEA"/>
<stop offset="0.05" stop-color="#FA33EA"/>
<stop offset="0.12" stop-color="#F517EB"/>
<stop offset="0.18" stop-color="#F206EB"/>
<stop offset="0.23" stop-color="#F101EC"/>
<stop offset="0.53" stop-color="#B121EC"/>
<stop offset="0.89" stop-color="#9400FF"/>
<stop offset="1" stop-color="#6A00D7"/>
</linearGradient>
<linearGradient id="paint3_linear_127_932" x1="3.16998" y1="63.5401" x2="41.96" y2="63.5401" gradientUnits="userSpaceOnUse">
<stop stop-color="#FFC400"/>
<stop offset="0.09" stop-color="#FFA900"/>
<stop offset="0.17" stop-color="#FF9800"/>
<stop offset="0.23" stop-color="#FF9300"/>
<stop offset="0.53" stop-color="#FF7700"/>
<stop offset="0.89" stop-color="#FF4600"/>
<stop offset="1" stop-color="#EB3D00"/>
</linearGradient>
</defs>
</svg>
