<svg width="100" height="100" viewBox="0 0 100 100" fill="none" xmlns="http://www.w3.org/2000/svg">
<path d="M78.72 71.44C78.06 68.3 77.23 65.46 76.25 62.99C75.32 60.64 74.26 58.63 73.09 57C70.85 53.88 68.25 52.23 65.58 52.23C65.56 52.23 65.54 52.23 65.52 52.23C65.47 52.23 65.42 52.23 65.37 52.23C63.6 50.7 61.2 49.51 58.34 48.76C59.37 48.63 60.35 48.47 61.27 48.29C63.88 47.77 66.09 47.03 67.82 46.09C70.17 44.82 71.67 42.43 71.81 39.79L72.29 39.72C73.29 39.57 74.2 39.06 74.86 38.29C75.52 37.52 75.88 36.54 75.88 35.53V31.81C75.88 30.8 75.52 29.82 74.86 29.05C74.2 28.28 73.29 27.78 72.29 27.62L71.82 27.55C71.78 24.78 70.26 22.25 67.81 20.93C66.08 19.99 63.88 19.25 61.26 18.73C60.32 18.54 59.31 18.38 58.26 18.25C57.95 17.19 57.31 16.44 56.25 15.92C54.97 15.29 53.02 14.98 50.29 14.98C47.56 14.98 45.67 15.28 44.39 15.89C43.33 16.4 42.67 17.12 42.35 18.16C41.02 18.31 39.76 18.5 38.6 18.73C35.99 19.25 33.78 19.99 32.05 20.93C29.61 22.25 28.08 24.79 28.04 27.56L27.65 27.62C26.65 27.77 25.74 28.28 25.08 29.05C24.42 29.82 24.06 30.8 24.06 31.81V35.53C24.06 36.54 24.42 37.52 25.08 38.29C25.74 39.06 26.65 39.56 27.65 39.72L28.05 39.78C28.19 42.43 29.69 44.82 32.04 46.1C33.77 47.04 35.97 47.78 38.59 48.3C39.66 48.51 40.8 48.69 42.02 48.84C39.19 49.61 36.81 50.82 35.08 52.37C34.86 52.32 34.63 52.29 34.42 52.29C33.85 52.29 33.28 52.36 32.71 52.5C30.33 53.11 28.05 55.06 26.12 58.14C24.04 61.45 22.39 65.95 21.22 71.49C20.75 73.71 21.05 75.84 22.03 77.33C22.69 78.34 23.63 78.99 24.74 79.22C24.93 79.26 25.23 79.3 25.6 79.3C26.28 79.3 27.22 79.15 28.17 78.52C29.67 77.54 30.7 75.74 31.24 73.16C31.38 72.49 31.52 71.79 31.68 70.93C31.75 70.56 31.82 70.18 31.89 69.81C32.05 68.95 32.21 68.11 32.38 67.28C32.44 67.63 32.51 67.98 32.58 68.32C32.63 68.58 32.69 68.85 32.75 69.11C33.36 71.74 34.25 74.14 35.4 76.24C36.51 78.28 37.86 80.04 39.4 81.47C42.45 84.28 46.22 85.77 50.3 85.77C54.38 85.77 58.15 84.28 61.2 81.47C62.75 80.04 64.09 78.28 65.2 76.24C66.34 74.14 67.23 71.74 67.85 69.11C67.87 69.03 67.88 68.96 67.9 68.88C67.95 69.17 68.01 69.45 68.06 69.75C68.26 70.84 68.47 71.96 68.71 73.1C69.25 75.68 70.29 77.48 71.78 78.46C72.73 79.08 73.66 79.24 74.35 79.24C74.72 79.24 75.02 79.2 75.21 79.16C76.32 78.93 77.26 78.28 77.92 77.27C78.9 75.77 79.19 73.64 78.73 71.43L78.72 71.44ZM37 43.56C35.63 42.69 34.77 41.02 34.77 39.2V30.91C34.77 29.09 35.62 27.41 37 26.55C40.49 24.35 46.15 23.89 50.29 23.89C54.43 23.89 60.1 24.35 63.58 26.55C64.95 27.42 65.81 29.09 65.81 30.91V39.2C65.81 41.02 64.96 42.7 63.58 43.56C60.09 45.76 54.43 46.22 50.29 46.22C46.15 46.22 40.48 45.76 37 43.56Z" fill="#3E3935"/>
<path d="M44.75 35.32C44.75 37.43 43.04 36.38 40.93 36.38C38.82 36.38 37.11 37.43 37.11 35.32C37.11 33.21 38.82 31.5 40.93 31.5C43.04 31.5 44.75 33.21 44.75 35.32Z" fill="#3E3935"/>
<path d="M55.84 35.32C55.84 37.43 57.55 36.38 59.66 36.38C61.77 36.38 63.48 37.43 63.48 35.32C63.48 33.21 61.77 31.5 59.66 31.5C57.55 31.5 55.84 33.21 55.84 35.32Z" fill="#3E3935"/>
<path d="M58.33 38.6601C58.33 40.2101 57.43 41.6201 55.97 42.6401C54.51 43.6601 52.51 44.2901 50.29 44.2901C45.85 44.2901 42.25 41.7701 42.25 38.6601C42.25 38.4401 42.38 38.2401 42.59 38.0901C42.8 37.9401 43.09 37.8501 43.4 37.8501H57.18C57.81 37.8501 58.33 38.2101 58.33 38.6501V38.6601Z" fill="#3E3935"/>
</svg>
