<svg width="100" height="100" viewBox="0 0 100 100" fill="none" xmlns="http://www.w3.org/2000/svg">
<path d="M72.13 5.74H27.87C15.6479 5.74 5.74 15.6479 5.74 27.87V72.13C5.74 84.3521 15.6479 94.26 27.87 94.26H72.13C84.3521 94.26 94.26 84.3521 94.26 72.13V27.87C94.26 15.6479 84.3521 5.74 72.13 5.74Z" fill="#242021"/>
<path d="M72.13 95H27.87C15.26 95 5 84.74 5 72.13V27.87C5 15.26 15.26 5 27.87 5H72.13C84.74 5 95 15.26 95 27.87V72.13C95 84.74 84.74 95 72.13 95ZM27.87 6.48C16.07 6.48 6.48 16.08 6.48 27.87V72.13C6.48 83.93 16.08 93.52 27.87 93.52H72.13C83.93 93.52 93.52 83.92 93.52 72.13V27.87C93.52 16.07 83.92 6.48 72.13 6.48H27.87Z" fill="#665F59"/>
<path d="M57.56 40.74C57.38 39.06 56.61 37.75 55.24 36.8C53.87 35.85 52.18 35.38 50.16 35.38C48.71 35.38 47.44 35.62 46.35 36.1C45.25 36.58 44.4 37.25 43.79 38.09C43.18 38.93 42.87 39.9 42.87 40.97C42.87 41.83 43.07 42.57 43.46 43.19C43.85 43.81 44.37 44.34 45.01 44.76C45.65 45.18 46.34 45.54 47.07 45.82C47.8 46.1 48.51 46.34 49.18 46.53L52.5 47.44C53.41 47.68 54.38 48.01 55.42 48.41C56.45 48.82 57.42 49.36 58.33 50.02C59.24 50.69 59.98 51.52 60.56 52.53C61.14 53.54 61.43 54.76 61.43 56.21C61.43 57.94 60.98 59.5 60.08 60.89C59.18 62.28 57.87 63.39 56.17 64.2C54.46 65.01 52.4 65.42 49.99 65.42C47.73 65.42 45.77 65.05 44.12 64.32C42.47 63.59 41.17 62.56 40.22 61.25C39.27 59.94 38.73 58.41 38.61 56.67H42.24C42.34 57.92 42.76 58.95 43.48 59.77C44.2 60.59 45.13 61.21 46.26 61.62C47.39 62.03 48.63 62.24 49.99 62.24C51.52 62.24 52.89 61.99 54.1 61.48C55.31 60.97 56.27 60.26 56.97 59.35C57.67 58.44 58.02 57.37 58.02 56.14C58.02 55.06 57.73 54.17 57.15 53.48C56.57 52.78 55.78 52.21 54.79 51.76C53.8 51.31 52.7 50.91 51.48 50.57L47.57 49.44C45.06 48.71 43.08 47.67 41.64 46.34C40.2 45 39.48 43.27 39.48 41.14C39.48 39.36 39.96 37.8 40.93 36.47C41.89 35.14 43.19 34.1 44.82 33.35C46.45 32.6 48.28 32.23 50.3 32.23C52.32 32.23 54.16 32.6 55.75 33.34C57.34 34.08 58.6 35.09 59.52 36.37C60.45 37.65 60.94 39.11 61.01 40.73H57.6L57.56 40.74Z" fill="#665F59"/>
</svg>
