<svg width="100" height="100" viewBox="0 0 100 100" fill="none" xmlns="http://www.w3.org/2000/svg">
<path d="M72.13 5.74H27.87C15.6479 5.74 5.74 15.6479 5.74 27.87V72.13C5.74 84.3521 15.6479 94.26 27.87 94.26H72.13C84.3521 94.26 94.26 84.3521 94.26 72.13V27.87C94.26 15.6479 84.3521 5.74 72.13 5.74Z" fill="#181616"/>
<path d="M72.13 95H27.87C15.26 95 5 84.74 5 72.13V27.87C5 15.26 15.26 5 27.87 5H72.13C84.74 5 95 15.26 95 27.87V72.13C95 84.74 84.74 95 72.13 95ZM27.87 6.48C16.07 6.48 6.48 16.08 6.48 27.87V72.13C6.48 83.93 16.08 93.52 27.87 93.52H72.13C83.93 93.52 93.52 83.92 93.52 72.13V27.87C93.52 16.07 83.92 6.48 72.13 6.48H27.87Z" fill="#665F59"/>
<path d="M56.1 41.7C55.95 40.37 55.36 39.33 54.33 38.6C53.3 37.86 51.94 37.49 50.25 37.49C49.08 37.49 48.08 37.66 47.25 38.01C46.42 38.36 45.79 38.82 45.35 39.42C44.91 40.01 44.69 40.69 44.69 41.46C44.68 42.09 44.82 42.64 45.11 43.11C45.4 43.58 45.8 43.98 46.31 44.3C46.82 44.62 47.39 44.9 48.03 45.13C48.67 45.36 49.32 45.55 49.99 45.71L52.96 46.43C54.25 46.72 55.47 47.12 56.61 47.62C57.76 48.12 58.77 48.75 59.65 49.49C60.53 50.23 61.22 51.13 61.72 52.16C62.22 53.2 62.48 54.4 62.49 55.77C62.48 57.69 61.99 59.36 61.01 60.8C60.04 62.24 58.63 63.35 56.8 64.15C54.97 64.95 52.76 65.34 50.17 65.34C47.58 65.34 45.42 64.95 43.54 64.17C41.67 63.39 40.21 62.24 39.15 60.72C38.1 59.2 37.54 57.34 37.48 55.12H43.55C43.63 56.22 43.97 57.14 44.55 57.87C45.13 58.6 45.9 59.15 46.86 59.52C47.82 59.89 48.9 60.07 50.11 60.07C51.32 60.07 52.39 59.89 53.31 59.52C54.23 59.15 54.94 58.64 55.46 58C55.98 57.35 56.24 56.6 56.24 55.74C56.24 54.94 56.01 54.28 55.55 53.76C55.09 53.24 54.44 52.79 53.59 52.43C52.74 52.07 51.74 51.74 50.58 51.45L46.98 50.54C44.31 49.86 42.2 48.82 40.65 47.43C39.1 46.04 38.33 44.17 38.34 41.83C38.33 39.91 38.85 38.24 39.89 36.8C40.93 35.36 42.36 34.25 44.17 33.44C45.98 32.64 48.02 32.24 50.31 32.24C52.6 32.24 54.67 32.64 56.42 33.44C58.17 34.24 59.54 35.35 60.53 36.77C61.52 38.19 62.03 39.83 62.06 41.68H56.09L56.1 41.7Z" fill="#B2A18F"/>
</svg>
