<svg width="100" height="100" viewBox="0 0 100 100" fill="none" xmlns="http://www.w3.org/2000/svg">
<path d="M24.16 65.79C24.62 65.33 25.26 65.06 25.93 65.06H87.03C88.15 65.06 88.7 66.41 87.92 67.2L75.85 79.27C75.39 79.73 74.75 80 74.08 80H12.97C11.85 80 11.3 78.65 12.08 77.86L24.15 65.79H24.16Z" fill="#665F59"/>
<path d="M24.16 20.73C24.64 20.27 25.28 20 25.93 20H87.03C88.15 20 88.7 21.35 87.92 22.14L75.85 34.21C75.38 34.68 74.74 34.94 74.08 34.94H12.97C11.85 34.94 11.3 33.59 12.08 32.8L24.15 20.73H24.16Z" fill="#665F59"/>
<path d="M75.84 43.12C75.37 42.65 74.73 42.39 74.07 42.39H12.97C11.85 42.39 11.3 43.74 12.08 44.53L24.15 56.6C24.61 57.06 25.25 57.33 25.92 57.33H87.02C88.14 57.33 88.69 55.98 87.91 55.19L75.84 43.12Z" fill="#665F59"/>
</svg>
