<svg width="100" height="100" viewBox="0 0 100 100" fill="none" xmlns="http://www.w3.org/2000/svg">
<path d="M50 98C76.5097 98 98 76.5097 98 50C98 23.4903 76.5097 2 50 2C23.4903 2 2 23.4903 2 50C2 76.5097 23.4903 98 50 98Z" fill="black"/>
<path d="M80.25 26.29H19.75V73.7H80.25V26.29Z" fill="black"/>
<path d="M29.58 62.48C29.94 62.12 30.45 61.9 30.98 61.9H79.26C80.14 61.9 80.58 62.96 79.96 63.59L70.42 73.13C70.06 73.49 69.55 73.71 69.02 73.71H20.74C19.86 73.71 19.42 72.65 20.04 72.02L29.58 62.48Z" fill="url(#paint0_linear_127_914)"/>
<path d="M29.58 26.87C29.96 26.51 30.46 26.29 30.98 26.29H79.26C80.14 26.29 80.58 27.35 79.96 27.98L70.42 37.52C70.05 37.89 69.55 38.1 69.02 38.1H20.74C19.86 38.1 19.42 37.04 20.04 36.41L29.58 26.87Z" fill="url(#paint1_linear_127_914)"/>
<path d="M70.42 44.56C70.05 44.19 69.55 43.98 69.02 43.98H20.74C19.86 43.98 19.42 45.04 20.04 45.67L29.58 55.21C29.94 55.57 30.45 55.79 30.98 55.79H79.26C80.14 55.79 80.58 54.73 79.96 54.1L70.42 44.56Z" fill="url(#paint2_linear_127_914)"/>
<defs>
<linearGradient id="paint0_linear_127_914" x1="89.1142" y1="-333.716" x2="-128.047" y2="-252.535" gradientUnits="userSpaceOnUse">
<stop stop-color="#0AFDA1"/>
<stop offset="1" stop-color="#DA1FFD"/>
</linearGradient>
<linearGradient id="paint1_linear_127_914" x1="65.9313" y1="-106.274" x2="-151.23" y2="-25.0939" gradientUnits="userSpaceOnUse">
<stop stop-color="#0AFDA1"/>
<stop offset="1" stop-color="#DA1FFD"/>
</linearGradient>
<linearGradient id="paint2_linear_127_914" x1="67.3" y1="16.76" x2="33.88" y2="80.76" gradientUnits="userSpaceOnUse">
<stop stop-color="#0AFDA1"/>
<stop offset="1" stop-color="#DA1FFD"/>
</linearGradient>
</defs>
</svg>
