<svg width="100" height="100" viewBox="0 0 100 100" fill="none" xmlns="http://www.w3.org/2000/svg">
<path d="M50 51.8001C60.2725 51.8001 68.6 43.4726 68.6 33.2001C68.6 22.9276 60.2725 14.6001 50 14.6001C39.7275 14.6001 31.4 22.9276 31.4 33.2001C31.4 43.4726 39.7275 51.8001 50 51.8001Z" fill="#3E3935"/>
<path d="M21.62 85.4001C21.62 69.7301 34.32 57.0201 50 57.0201C65.68 57.0201 78.38 69.7201 78.38 85.4001H21.62Z" fill="#3E3935"/>
<path d="M22.81 33.2001C22.81 29.3301 23.65 25.6601 25.11 22.3301C24.42 22.2301 23.73 22.1201 23 22.1201C15.23 22.1201 8.93001 28.4201 8.93001 36.1901C8.93001 43.9601 15.23 50.2601 23 50.2601C24.82 50.2601 26.55 49.8901 28.15 49.2501C24.83 44.7401 22.8 39.2301 22.8 33.2101L22.81 33.2001Z" fill="#3E3935"/>
<path d="M28.99 55.0401C27.09 54.4901 25.08 54.1901 23.01 54.1901C14.69 54.1901 7.47001 58.9201 3.91001 65.8501C1.60001 70.3401 5.36001 75.6601 10.41 75.6601H14.5C16.83 67.2101 21.96 59.9201 28.99 55.0401Z" fill="#3E3935"/>
<path d="M76.99 22.1101C76.27 22.1101 75.58 22.2201 74.88 22.3201C76.34 25.6601 77.18 29.3201 77.18 33.1901C77.18 39.2101 75.15 44.7201 71.83 49.2301C73.43 49.8601 75.16 50.2401 76.98 50.2401C84.75 50.2401 91.05 43.9401 91.05 36.1701C91.05 28.4001 84.75 22.1001 76.98 22.1001L76.99 22.1101Z" fill="#3E3935"/>
<path d="M96.09 65.8501C92.53 58.9301 85.31 54.1901 76.99 54.1901C74.91 54.1901 72.9 54.4901 71 55.0401C78.03 59.9201 83.17 67.2001 85.49 75.6601H89.58C94.63 75.6601 98.39 70.3501 96.08 65.8501H96.09Z" fill="#3E3935"/>
</svg>
