<svg width="100" height="100" viewBox="0 0 100 100" fill="none" xmlns="http://www.w3.org/2000/svg">
<path d="M13.04 39.75H23.78C25.27 45.22 30.23 49.28 36.16 49.28C42.09 49.28 47.06 45.22 48.55 39.75H86.96C88.82 39.75 90.32 38.25 90.32 36.39C90.32 34.53 88.82 33.03 86.96 33.03H48.55C47.06 27.56 42.1 23.5 36.16 23.5C30.22 23.5 25.27 27.56 23.78 33.03H13.04C11.18 33.03 9.67999 34.53 9.67999 36.39C9.67999 38.25 11.18 39.75 13.04 39.75ZM36.16 30.22C39.56 30.22 42.33 32.99 42.33 36.39C42.33 39.79 39.56 42.56 36.16 42.56C32.76 42.56 30 39.79 30 36.39C30 32.99 32.76 30.22 36.16 30.22Z" fill="#B2A18F"/>
<path d="M86.96 60.26H76.22C74.73 54.79 69.77 50.73 63.84 50.73C57.91 50.73 52.94 54.79 51.45 60.26H13.04C11.18 60.26 9.67999 61.76 9.67999 63.62C9.67999 65.48 11.18 66.98 13.04 66.98H51.45C52.94 72.45 57.9 76.51 63.84 76.51C69.78 76.51 74.73 72.45 76.22 66.98H86.96C88.82 66.98 90.32 65.48 90.32 63.62C90.32 61.76 88.82 60.26 86.96 60.26ZM63.83 69.78C60.43 69.78 57.66 67.01 57.66 63.61C57.66 60.21 60.43 57.44 63.83 57.44C67.23 57.44 69.99 60.21 69.99 63.61C69.99 67.01 67.23 69.78 63.83 69.78Z" fill="#B2A18F"/>
</svg>
