<svg width="100" height="100" viewBox="0 0 100 100" fill="none" xmlns="http://www.w3.org/2000/svg">
<path d="M71.54 61.46L68.47 71.16H31.54L28.47 61.46C27.93 59.75 26.34 58.59 24.55 58.59H13.52C11.25 58.59 9.40997 60.43 9.40997 62.7V79.61C9.40997 81.88 11.25 83.72 13.52 83.72H86.49C88.76 83.72 90.6 81.88 90.6 79.61V62.7C90.6 60.43 88.76 58.59 86.49 58.59H75.46C73.67 58.59 72.08 59.75 71.54 61.46Z" fill="#3D3935"/>
<path d="M73.68 36.35L53.47 17.63C53.26 17.44 53 17.36 52.77 17.21C52.76 17.21 52.74 17.19 52.73 17.18C52.49 17.03 52.28 16.82 52.03 16.71C51.98 16.69 51.92 16.68 51.87 16.66C51.58 16.55 51.28 16.52 50.97 16.46C50.67 16.4 50.39 16.3 50.08 16.3C50.05 16.3 50.03 16.28 50 16.28C49.97 16.28 49.95 16.29 49.92 16.3C49.62 16.3 49.33 16.4 49.03 16.46C48.73 16.52 48.42 16.54 48.13 16.66C48.08 16.68 48.02 16.69 47.97 16.71C47.72 16.82 47.51 17.02 47.28 17.18C47.26 17.19 47.24 17.2 47.23 17.22C47 17.37 46.74 17.45 46.54 17.64L26.33 36.36C24.26 38.28 24.14 41.5 26.05 43.57C27.05 44.66 28.42 45.2 29.79 45.2C31.03 45.2 32.27 44.75 33.26 43.85L44.91 33.06V57.5C44.91 60.32 47.2 62.6 50.01 62.6C52.82 62.6 55.11 60.32 55.11 57.5V33.06L66.76 43.85C67.74 44.76 68.98 45.2 70.23 45.2C71.6 45.2 72.97 44.66 73.97 43.57C75.88 41.51 75.76 38.28 73.69 36.36L73.68 36.35Z" fill="#3D3935"/>
</svg>
