<svg width="100" height="100" viewBox="0 0 100 100" fill="none" xmlns="http://www.w3.org/2000/svg">
<path d="M83.88 24.96H68.93V15.92C68.93 14.04 67.4 12.51 65.52 12.51H34.49C32.61 12.51 31.08 14.04 31.08 15.92V24.96H16.13C14.25 24.96 12.72 26.49 12.72 28.37C12.72 30.25 14.25 31.78 16.13 31.78H22.22V76.62C22.22 82.62 27.1 87.5 33.1 87.5H66.9C72.9 87.5 77.78 82.62 77.78 76.62V31.77H83.87C85.75 31.77 87.28 30.24 87.28 28.36C87.28 26.48 85.75 24.95 83.87 24.95L83.88 24.96ZM41.22 31.77H46.59V80.67H41.22V31.77ZM53.41 31.77H58.78V80.67H53.41V31.77ZM37.9 19.32H62.11V24.95H37.9V19.32ZM29.03 76.61V31.77H34.4V80.67H33.09C30.85 80.67 29.02 78.85 29.02 76.6L29.03 76.61ZM70.97 76.61C70.97 78.85 69.14 80.68 66.9 80.68H65.59V31.77H70.96V76.61H70.97Z" fill="#B2A18F"/>
</svg>
