<svg width="100" height="100" viewBox="0 0 100 100" fill="none" xmlns="http://www.w3.org/2000/svg">
<path d="M87.77 26.5701L51.4 5.57007C50.54 5.07007 49.46 5.07007 48.6 5.57007L12.23 26.5701C11.37 27.0701 10.83 27.9901 10.83 29.0001V71.0001C10.83 72.0001 11.37 72.9301 12.23 73.4301L48.6 94.4301C49.03 94.6801 49.52 94.8001 50 94.8001C50.48 94.8001 50.97 94.6701 51.4 94.4301L87.77 73.4301C88.63 72.9301 89.17 72.0101 89.17 71.0001V29.0001C89.17 28.0001 88.63 27.0801 87.77 26.5701ZM83.57 69.3801L50 88.7601L16.43 69.3801V30.6201L50 11.2301L83.57 30.6101V69.3801Z" fill="#B2A18F"/>
<path d="M30.4 49.9999C30.4 60.8099 39.19 69.5999 50 69.5999C60.81 69.5999 69.6 60.8099 69.6 49.9999C69.6 39.1899 60.81 30.3999 50 30.3999C39.19 30.3999 30.4 39.1899 30.4 49.9999ZM64 49.9999C64 57.7199 57.72 63.9999 50 63.9999C42.28 63.9999 36 57.7199 36 49.9999C36 42.2799 42.28 35.9999 50 35.9999C57.72 35.9999 64 42.2799 64 49.9999Z" fill="#B2A18F"/>
</svg>
