<svg width="100" height="100" viewBox="0 0 100 100" fill="none" xmlns="http://www.w3.org/2000/svg">
<path d="M57.86 33.3401C59.97 36.9401 63.51 39.4901 67.59 40.3601L77.59 42.4801C79.37 42.8601 80.1 44.9901 78.92 46.3801L71.66 54.9401C69.14 57.9101 67.89 61.7601 68.17 65.6501L68.97 76.3401C69.1 78.1301 67.29 79.4301 65.64 78.7301L55.77 74.5501C54.86 74.1601 53.92 73.8501 52.95 73.6601C50.04 73.1001 47.17 73.3601 44.51 74.4101L34.07 78.5401C32.38 79.2101 30.59 77.8301 30.8 76.0301L32 65.8801C32.49 61.7301 31.21 57.5701 28.48 54.4101L21.25 46.0601C20.04 44.6601 20.8 42.4801 22.61 42.1301L32.86 40.1501C37.12 39.3301 40.81 36.6801 42.96 32.9101L48.12 23.8401C49.03 22.2301 51.34 22.2201 52.28 23.8101L57.87 33.3401H57.86ZM50.15 11.0901C47.83 11.0901 45.5 12.2501 44.19 14.5601L36 28.9601C35.01 30.7001 33.31 31.9201 31.34 32.3001L15.07 35.4401C9.88998 36.4401 7.72998 42.6701 11.19 46.6601L22.43 59.6401C23.69 61.1001 24.28 63.0201 24.06 64.9301L22.17 80.9801C21.67 85.2301 25.06 88.6501 28.97 88.6501C29.8 88.6501 30.66 88.4901 31.51 88.1601L47.47 81.8501C48.28 81.5301 49.14 81.3701 49.99 81.3701C50.9 81.3701 51.81 81.5501 52.67 81.9101L67.89 88.3601C68.78 88.7401 69.69 88.9101 70.57 88.9101C74.37 88.9101 77.71 85.6901 77.4 81.5301L76.17 65.0501C76.04 63.2501 76.61 61.4801 77.78 60.1101L88.88 47.0201C92.24 43.0601 90.15 36.9501 85.07 35.8801L69.27 32.5301C67.38 32.1301 65.75 30.9501 64.78 29.2901L56.09 14.4801C54.76 12.2201 52.47 11.0901 50.18 11.0901H50.15Z" fill="#665F59"/>
</svg>
