<svg width="100" height="100" viewBox="0 0 100 100" fill="none" xmlns="http://www.w3.org/2000/svg">
<path d="M36 28.9599L44.19 14.5599C46.8 9.96993 53.4 9.92993 56.07 14.4799L64.76 29.2899C65.74 30.9499 67.37 32.1299 69.25 32.5299L85.05 35.8799C90.13 36.9599 92.21 43.0699 88.86 47.0199L77.76 60.1099C76.6 61.4799 76.02 63.2599 76.15 65.0499L77.38 81.5299C77.76 86.6499 72.59 90.3599 67.87 88.3499L52.65 81.8999C50.99 81.1999 49.12 81.1799 47.45 81.8399L31.49 88.1499C26.66 90.0599 21.55 86.1199 22.16 80.9699L24.05 64.9199C24.28 63.0099 23.69 61.0799 22.42 59.6299L11.18 46.6499C7.72998 42.6599 9.87998 36.4299 15.06 35.4299L31.33 32.2899C33.3 31.9099 35 30.6899 35.99 28.9499L36 28.9599Z" fill="#665F59"/>
</svg>
