<svg width="140" height="260" viewBox="0 0 140 260" fill="none" xmlns="http://www.w3.org/2000/svg">
<rect x="0.5" y="0.5" width="139" height="259" rx="4.5" stroke="#9747FF" stroke-dasharray="10 5"/>
<path d="M70.16 34.0901C71.56 34.0901 72.78 34.7801 73.49 36.0001L82.18 50.8101C83.58 53.1901 85.93 54.8901 88.64 55.4601L104.44 58.8101C105.8 59.1001 106.84 60.0201 107.29 61.3401C107.74 62.6601 107.48 64.0201 106.58 65.0801L95.48 78.1701C93.8 80.1601 92.97 82.6801 93.17 85.2801L94.4 101.76C94.48 102.84 94.12 103.87 93.4 104.66C92.66 105.46 91.63 105.92 90.56 105.92C90.05 105.92 89.5401 105.81 89.05 105.61L73.83 99.1601C72.61 98.6401 71.31 98.3801 69.98 98.3801C68.73 98.3801 67.51 98.6101 66.35 99.0701L50.39 105.38C49.92 105.57 49.44 105.66 48.96 105.66C47.87 105.66 46.82 105.18 46.07 104.34C45.34 103.52 45.01 102.45 45.14 101.34L47.03 85.2901C47.35 82.5401 46.5 79.7701 44.69 77.6801L33.45 64.7001C32.13 63.1801 32.5 61.5501 32.72 60.9101C32.94 60.2801 33.66 58.7601 35.63 58.3801L51.9 55.2401C54.73 54.6901 57.17 52.9401 58.6 50.4301L66.79 36.0301C67.48 34.8101 68.74 34.0801 70.14 34.0801M70.15 31.0901C67.83 31.0901 65.5 32.2501 64.19 34.5601L56 48.9601C55.01 50.7001 53.31 51.9201 51.34 52.3001L35.07 55.4401C29.89 56.4401 27.73 62.6701 31.19 66.6601L42.43 79.6401C43.69 81.1001 44.28 83.0201 44.06 84.9301L42.17 100.98C41.67 105.23 45.06 108.65 48.97 108.65C49.8 108.65 50.66 108.49 51.51 108.16L67.47 101.85C68.28 101.53 69.14 101.37 69.99 101.37C70.9 101.37 71.81 101.55 72.67 101.91L87.89 108.36C88.78 108.74 89.69 108.91 90.57 108.91C94.37 108.91 97.71 105.69 97.4 101.53L96.17 85.0501C96.04 83.2501 96.61 81.4801 97.78 80.1101L108.88 67.0201C112.24 63.0601 110.15 56.9501 105.07 55.8801L89.27 52.5301C87.38 52.1301 85.75 50.9501 84.78 49.2901L76.09 34.4801C74.76 32.2201 72.47 31.0901 70.18 31.0901H70.15Z" fill="url(#paint0_linear_127_1250)"/>
<defs>
<linearGradient id="paint0_linear_127_1250" x1="29.5" y1="70.0001" x2="110.5" y2="70.0001" gradientUnits="userSpaceOnUse">
<stop stop-color="#FFC400"/>
<stop offset="0.09" stop-color="#FFA900"/>
<stop offset="0.17" stop-color="#FF9800"/>
<stop offset="0.23" stop-color="#FF9300"/>
<stop offset="0.53" stop-color="#FF7700"/>
<stop offset="0.89" stop-color="#FF4600"/>
<stop offset="1" stop-color="#EB3D00"/>
</linearGradient>
</defs>
</svg>
