<svg width="15" height="15" viewBox="0 0 15 15" fill="none" xmlns="http://www.w3.org/2000/svg">
<path d="M10.7175 2.97599C10.6635 2.84099 10.56 2.75549 10.389 2.75699C10.245 2.75699 10.116 2.84849 10.0665 2.98349L8.31748 7.64699L7.23298 4.39199C7.18648 4.25249 7.05898 4.15799 6.91198 4.15349C6.76799 4.15799 6.63148 4.23599 6.57748 4.37249L5.46898 7.14149L5.11798 6.44099C5.05798 6.32249 4.93798 6.24749 4.80598 6.24749H3.75898C3.56548 6.24749 3.40948 6.40349 3.40948 6.59699C3.40948 6.79049 3.56548 6.94649 3.75898 6.94649H4.58998L5.19148 8.14949C5.25298 8.27249 5.37148 8.33849 5.51848 8.34299C5.65498 8.33699 5.77648 8.25149 5.82748 8.12399L6.86998 5.51699L7.96498 8.80199C8.01148 8.94299 8.14198 9.03749 8.28898 9.04049H8.29498C8.44048 9.04049 8.57098 8.95049 8.62198 8.81399L10.401 4.07099L11.463 6.72599C11.5155 6.85799 11.643 6.94499 11.7855 6.94499L12.8325 6.95099C13.026 6.95099 13.182 6.79649 13.1835 6.60449C13.1835 6.41099 13.029 6.25499 12.837 6.25349L12.024 6.24899L10.7145 2.97599H10.7175Z" fill="#B2A18F"/>
<path d="M13.284 10.8225L10.6485 8.187C10.3845 7.923 9.957 7.923 9.6945 8.187C9.4305 8.451 9.4305 8.8785 9.6945 9.141L12.33 11.7765C12.408 11.8545 12.45 11.958 12.45 12.0675C12.45 12.177 12.4065 12.2805 12.33 12.3585C12.174 12.5145 11.898 12.5085 11.7525 12.363L9.162 9.717L9.1515 9.7065C9.141 9.696 9.1275 9.687 9.117 9.6765C9.096 9.6585 9.0765 9.639 9.054 9.624C9.0375 9.612 9.018 9.603 9 9.5925C8.9805 9.582 8.961 9.5685 8.94 9.5595C8.919 9.5505 8.898 9.5445 8.877 9.5385C8.856 9.5325 8.8365 9.525 8.8155 9.519C8.7945 9.5145 8.7735 9.513 8.7525 9.51C8.73 9.507 8.7075 9.504 8.685 9.5025C8.6655 9.5025 8.646 9.504 8.6265 9.5055C8.6025 9.5055 8.5785 9.507 8.556 9.5115C8.535 9.5145 8.5155 9.522 8.496 9.5265C8.4735 9.5325 8.4525 9.537 8.43 9.546C8.4075 9.555 8.385 9.567 8.364 9.5775C8.3475 9.585 8.331 9.591 8.316 9.6C7.1175 10.3335 5.6175 10.3545 4.4025 9.6525C3.5175 9.141 2.8845 8.3175 2.6205 7.3305C2.3565 6.3435 2.4915 5.313 3.003 4.428C4.0575 2.601 6.4005 1.9725 8.2275 3.0285C8.55 3.2145 8.9625 3.1035 9.15 2.781C9.336 2.4585 9.225 2.046 8.9025 1.8585C6.4305 0.436498 3.258 1.287 1.8315 3.7575C1.14 4.9545 0.957001 6.3495 1.314 7.6845C1.671 9.0195 2.5275 10.1355 3.7245 10.827C4.527 11.2905 5.4195 11.52 6.312 11.52C7.074 11.52 7.833 11.349 8.538 11.0145L10.791 13.3155C11.124 13.6485 11.5665 13.8315 12.0375 13.8315C12.5085 13.8315 12.951 13.6485 13.2825 13.3155C13.614 12.9825 13.7985 12.54 13.7985 12.069C13.7985 11.598 13.6155 11.1555 13.2825 10.8225H13.284Z" fill="#B2A18F"/>
</svg>
