<svg width="100" height="100" viewBox="0 0 100 100" fill="none" xmlns="http://www.w3.org/2000/svg">
<path d="M46.17 76.9799C37.94 76.9799 30.21 73.7799 24.39 67.9599C12.39 55.9499 12.39 36.4099 24.39 24.3999C30.21 18.5799 37.94 15.3799 46.17 15.3799C54.4 15.3799 62.13 18.5799 67.95 24.3999C73.77 30.2199 76.97 37.9499 76.97 46.1799C76.97 54.4099 73.77 62.1399 67.95 67.9599C62.14 73.7799 54.4 76.9799 46.17 76.9799ZM46.17 20.9799C39.44 20.9799 33.11 23.5999 28.35 28.3599C18.53 38.1799 18.53 54.1799 28.35 63.9999C33.11 68.7599 39.44 71.3799 46.17 71.3799C52.9 71.3799 59.23 68.7599 63.99 63.9999C68.75 59.2399 71.37 52.9099 71.37 46.1799C71.37 39.4499 68.75 33.1199 63.99 28.3599C59.23 23.5999 52.9 20.9799 46.17 20.9799Z" fill="#B2A18F"/>
<path d="M81.81 84.6201C81.09 84.6201 80.38 84.3501 79.83 83.8001L63.99 67.9601C62.9 66.8701 62.9 65.0899 63.99 63.9999C65.08 62.9099 66.86 62.9101 67.95 64.0001L83.79 79.8401C84.88 80.9301 84.88 82.7101 83.79 83.8001C83.24 84.3501 82.53 84.6201 81.81 84.6201Z" fill="#B2A18F"/>
</svg>
