<svg width="100" height="100" viewBox="0 0 100 100" fill="none" xmlns="http://www.w3.org/2000/svg">
<path d="M50 98C23.53 98 2 76.47 2 50C2 23.53 23.53 2 50 2C76.47 2 98 23.53 98 50C98 76.47 76.47 98 50 98Z" fill="#00D78B"/>
<path d="M50 93.64C74.1017 93.64 93.64 74.1017 93.64 50C93.64 25.8983 74.1017 6.36 50 6.36C25.8983 6.36 6.36 25.8983 6.36 50C6.36 74.1017 25.8983 93.64 50 93.64Z" fill="black"/>
<path d="M49.65 69C47.43 71.5 44.32 72.94 40.97 73.1C37.62 73.25 34.42 72.09 31.95 69.82C26.91 65.2 26.55 57.31 31.14 52.24L39.77 42.7L58.17 59.6L49.66 69.01L49.65 69Z" fill="#00D78B"/>
<path d="M68.87 47.77L60.23 57.31L41.83 40.41L50.34 31C50.34 31 50.38 30.95 50.4 30.93C52.64 28.49 55.7 27.06 59.02 26.9C62.37 26.75 65.57 27.91 68.04 30.18C73.08 34.8 73.44 42.69 68.85 47.76L68.87 47.77Z" fill="white"/>
<path d="M60.78 23.87L65.69 28.38C70.72 32.99 71.05 40.81 66.43 45.83L47.94 65.97C43.33 71 35.51 71.33 30.49 66.71L24.88 61.56C25.12 65.45 26.79 69.25 29.86 72.07C32.94 74.9 36.93 76.35 41.11 76.15C45.25 75.96 49.06 74.18 51.85 71.13C51.88 71.1 51.9 71.07 51.93 71.04L71.14 49.81C76.86 43.49 76.4 33.66 70.13 27.9C67.52 25.5 64.25 24.11 60.78 23.85V23.87Z" fill="#215A51"/>
<path d="M58.89 23.84C54.71 24.03 50.89 25.89 48.07 28.94L28.86 50.17C23.14 56.49 23.6 66.32 29.87 72.08C32.95 74.91 36.94 76.36 41.12 76.16C45.26 75.97 49.07 74.19 51.86 71.14C51.89 71.11 51.91 71.08 51.94 71.05L71.15 49.82C76.87 43.5 76.41 33.67 70.14 27.91C67.06 25.08 63.07 23.63 58.89 23.83V23.84ZM49.65 69C47.43 71.5 44.32 72.94 40.97 73.1C37.62 73.25 34.42 72.09 31.95 69.82C26.91 65.2 26.55 57.31 31.14 52.24L39.77 42.7L58.17 59.6L49.66 69.01L49.65 69ZM68.87 47.77L60.23 57.31L41.83 40.41L50.34 31C50.34 31 50.38 30.95 50.4 30.93C52.64 28.49 55.7 27.06 59.02 26.9C62.37 26.75 65.57 27.91 68.04 30.18C73.08 34.8 73.44 42.69 68.85 47.76L68.87 47.77Z" fill="#00433B"/>
<path d="M33.41 63.8C33.35 63.87 33.27 63.92 33.17 63.95C32.9 64.03 32.61 63.87 32.53 63.6C32.16 62.34 32.1 60.98 32.34 59.69C32.39 59.41 32.66 59.23 32.94 59.28C33.22 59.33 33.4 59.6 33.35 59.88C33.14 61.02 33.2 62.21 33.52 63.32C33.57 63.5 33.52 63.68 33.4 63.81L33.41 63.8Z" fill="white"/>
<path d="M35.67 67.43C35.48 67.64 35.15 67.65 34.95 67.46C34.53 67.08 34.16 66.65 33.82 66.2C33.65 65.97 33.71 65.65 33.93 65.48C34.16 65.31 34.48 65.36 34.65 65.59C34.94 65.99 35.28 66.37 35.64 66.7C35.85 66.89 35.86 67.22 35.67 67.42V67.43Z" fill="white"/>
<path d="M34.14 57.62C33.98 57.79 33.72 57.84 33.51 57.72C33.26 57.58 33.18 57.26 33.32 57.02C33.63 56.48 34.01 55.97 34.43 55.5C34.62 55.29 34.95 55.28 35.15 55.47C35.35 55.66 35.37 55.99 35.18 56.19C34.81 56.6 34.48 57.05 34.2 57.53C34.18 57.56 34.16 57.59 34.13 57.62H34.14Z" fill="white"/>
<path d="M74 55.6H26C22.6863 55.6 20 58.2863 20 61.6V73.6C20 76.9137 22.6863 79.6 26 79.6H74C77.3137 79.6 80 76.9137 80 73.6V61.6C80 58.2863 77.3137 55.6 74 55.6Z" fill="#00433B"/>
<path d="M78 73.6V61.6C78 59.3909 76.2091 57.6 74 57.6H26C23.7909 57.6 22 59.3909 22 61.6V73.6C22 75.8091 23.7909 77.6 26 77.6H74C76.2091 77.6 78 75.8091 78 73.6Z" fill="white"/>
<path d="M32.56 65.2C32.53 64.81 32.38 64.5 32.12 64.28C31.86 64.06 31.46 63.95 30.93 63.95C30.59 63.95 30.31 63.99 30.1 64.07C29.89 64.15 29.73 64.26 29.62 64.4C29.52 64.54 29.46 64.7 29.46 64.87C29.46 65.02 29.48 65.15 29.54 65.26C29.6 65.37 29.7 65.48 29.83 65.57C29.96 65.66 30.14 65.75 30.34 65.82C30.55 65.9 30.8 65.96 31.08 66.02L32.07 66.23C32.74 66.37 33.31 66.56 33.79 66.79C34.27 67.02 34.66 67.29 34.96 67.61C35.26 67.93 35.49 68.27 35.63 68.66C35.77 69.05 35.85 69.47 35.85 69.94C35.85 70.74 35.65 71.41 35.25 71.96C34.86 72.51 34.29 72.93 33.56 73.22C32.83 73.51 31.95 73.65 30.93 73.65C29.91 73.65 28.96 73.49 28.18 73.18C27.4 72.87 26.79 72.39 26.36 71.74C25.93 71.09 25.71 70.26 25.71 69.25H28.83C28.85 69.62 28.94 69.93 29.11 70.18C29.28 70.43 29.51 70.62 29.81 70.75C30.11 70.88 30.47 70.95 30.89 70.95C31.24 70.95 31.53 70.91 31.77 70.82C32.01 70.73 32.19 70.61 32.31 70.46C32.43 70.31 32.5 70.13 32.5 69.93C32.5 69.75 32.44 69.58 32.32 69.44C32.2 69.3 32.01 69.17 31.75 69.06C31.49 68.95 31.13 68.84 30.68 68.74L29.47 68.48C28.4 68.25 27.55 67.86 26.94 67.31C26.32 66.76 26.02 66.02 26.02 65.07C26.02 64.3 26.22 63.63 26.64 63.05C27.06 62.47 27.63 62.02 28.37 61.7C29.11 61.38 29.96 61.22 30.91 61.22C31.86 61.22 32.73 61.38 33.44 61.71C34.15 62.04 34.7 62.5 35.09 63.09C35.48 63.68 35.67 64.38 35.68 65.17H32.54L32.56 65.2Z" fill="#00433B"/>
<path d="M39.02 73.51L35.45 61.41H39.11L40.76 68.85H40.85L42.81 61.41H45.69L47.65 68.88H47.74L49.39 61.41H53.05L49.48 73.51H46.34L44.28 66.75H44.19L42.13 73.51H38.99H39.02Z" fill="#00433B"/>
<path d="M55.38 73.51H51.84L55.83 61.41H60.32L64.31 73.51H60.77L58.12 64.74H58.03L55.38 73.51ZM54.72 68.74H61.38V71.2H54.72V68.74Z" fill="#00433B"/>
<path d="M64.61 73.51V61.41H69.83C70.73 61.41 71.51 61.59 72.19 61.94C72.87 62.29 73.39 62.79 73.76 63.43C74.13 64.07 74.32 64.82 74.32 65.68C74.32 66.54 74.13 67.3 73.74 67.93C73.36 68.56 72.82 69.05 72.13 69.39C71.44 69.73 70.63 69.9 69.71 69.9H66.59V67.35H69.05C69.44 67.35 69.77 67.28 70.04 67.15C70.31 67.01 70.52 66.82 70.67 66.57C70.82 66.32 70.89 66.02 70.89 65.68C70.89 65.34 70.82 65.04 70.67 64.79C70.52 64.54 70.31 64.35 70.04 64.22C69.77 64.09 69.44 64.02 69.05 64.02H67.89V73.5H64.61V73.51Z" fill="#00433B"/>
</svg>
