<svg width="100" height="100" viewBox="0 0 100 100" fill="none" xmlns="http://www.w3.org/2000/svg">
<path d="M87.09 23H12.91C6.88457 23 2 27.8846 2 33.91V66.09C2 72.1154 6.88457 77 12.91 77H87.09C93.1154 77 98 72.1154 98 66.09V33.91C98 27.8846 93.1154 23 87.09 23Z" fill="#FD008B"/>
<path d="M15.69 41.82V37.23H38.74V41.82H29.96V65.79H24.49V41.82H15.69Z" fill="#191616"/>
<path d="M54.64 37.24V65.8H49.12V42.55H48.95L42.32 46.75V41.77L49.4 37.24H54.64Z" fill="#191616"/>
<path d="M72.53 66.37C70.2 66.37 68.19 65.79 66.51 64.62C64.83 63.45 63.54 61.76 62.65 59.54C61.75 57.32 61.31 54.66 61.32 51.54C61.32 48.43 61.77 45.77 62.67 43.58C63.56 41.39 64.85 39.72 66.53 38.57C68.21 37.42 70.21 36.84 72.53 36.84C74.85 36.84 76.86 37.42 78.53 38.57C80.2 39.72 81.5 41.4 82.4 43.59C83.3 45.78 83.75 48.43 83.74 51.54C83.74 54.66 83.29 57.34 82.39 59.55C81.5 61.77 80.21 63.46 78.53 64.62C76.86 65.78 74.85 66.36 72.52 66.36L72.53 66.37ZM72.53 61.75C74.26 61.75 75.63 60.89 76.64 59.18C77.65 57.47 78.15 54.92 78.15 51.54C78.15 49.31 77.92 47.44 77.46 45.94C77 44.44 76.35 43.31 75.51 42.54C74.67 41.77 73.68 41.4 72.53 41.4C70.81 41.4 69.45 42.25 68.43 43.96C67.42 45.67 66.91 48.19 66.91 51.53C66.91 53.77 67.14 55.65 67.59 57.17C68.05 58.69 68.69 59.83 69.53 60.59C70.37 61.35 71.37 61.73 72.52 61.73L72.53 61.75Z" fill="#191616"/>
</svg>
