<svg width="100" height="100" viewBox="0 0 100 100" fill="none" xmlns="http://www.w3.org/2000/svg">
<path d="M71.54 61.46L68.47 71.16H31.54L28.47 61.46C27.93 59.75 26.34 58.59 24.55 58.59H13.52C11.25 58.59 9.41003 60.43 9.41003 62.7V79.61C9.41003 81.88 11.25 83.72 13.52 83.72H86.49C88.76 83.72 90.6 81.88 90.6 79.61V62.7C90.6 60.43 88.76 58.59 86.49 58.59H75.46C73.67 58.59 72.08 59.75 71.54 61.46Z" fill="#B2A18F"/>
<path d="M73.68 42.51L53.47 61.23C53.26 61.42 53 61.5 52.77 61.65C52.76 61.65 52.74 61.67 52.73 61.68C52.49 61.83 52.28 62.04 52.03 62.15C51.98 62.17 51.92 62.18 51.87 62.2C51.58 62.31 51.28 62.34 50.97 62.4C50.67 62.46 50.39 62.56 50.08 62.56C50.05 62.56 50.03 62.58 50 62.58C49.97 62.58 49.95 62.57 49.92 62.56C49.62 62.56 49.33 62.46 49.03 62.4C48.73 62.34 48.42 62.32 48.13 62.2C48.08 62.18 48.02 62.17 47.97 62.15C47.72 62.04 47.51 61.84 47.28 61.68C47.26 61.67 47.24 61.66 47.23 61.64C47 61.49 46.74 61.41 46.54 61.22L26.33 42.5C24.26 40.58 24.14 37.36 26.05 35.29C27.05 34.2 28.42 33.66 29.79 33.66C31.03 33.66 32.27 34.11 33.26 35.01L44.91 45.8V21.36C44.91 18.54 47.2 16.26 50.01 16.26C52.82 16.26 55.11 18.54 55.11 21.36V45.8L66.76 35.01C67.74 34.1 68.98 33.66 70.23 33.66C71.6 33.66 72.97 34.2 73.97 35.29C75.88 37.35 75.76 40.58 73.69 42.5L73.68 42.51Z" fill="#B2A18F"/>
</svg>
