<svg width="100" height="100" viewBox="0 0 100 100" fill="none" xmlns="http://www.w3.org/2000/svg">
<path d="M68.76 52.64L59.67 50.67C55 49.66 51.32 45.98 50.31 41.31L48.34 32.22C47.49 28.28 44.21 25.64 40.18 25.64C36.15 25.64 32.87 28.28 32.02 32.22L30.05 41.31C29.04 45.98 25.36 49.66 20.69 50.67L11.6 52.64C7.66 53.49 5.02 56.77 5.02 60.8C5.02 64.83 7.66 68.11 11.6 68.96L20.69 70.93C25.36 71.94 29.04 75.62 30.05 80.29L32.02 89.38C32.87 93.32 36.15 95.96 40.18 95.96C44.21 95.96 47.49 93.31 48.34 89.38L50.31 80.29C51.32 75.62 55 71.94 59.67 70.93L68.76 68.96C72.7 68.11 75.34 64.83 75.34 60.8C75.34 56.77 72.7 53.49 68.76 52.64ZM67.7 64.11L58.61 66.08C52.04 67.51 46.87 72.67 45.44 79.25L43.47 88.34C43.04 90.3 41.49 91 40.17 91C38.85 91 37.29 90.3 36.87 88.34L34.9 79.25C33.47 72.68 28.31 67.51 21.73 66.08L12.64 64.11C10.68 63.68 9.98 62.12 9.98 60.81C9.98 59.5 10.68 57.93 12.64 57.51L21.73 55.54C28.3 54.11 33.47 48.95 34.9 42.37L36.87 33.28C37.3 31.32 38.86 30.62 40.17 30.62C41.49 30.62 43.05 31.32 43.47 33.28L45.44 42.37C46.87 48.94 52.03 54.11 58.61 55.54L67.7 57.51C69.66 57.94 70.36 59.5 70.36 60.81C70.36 62.12 69.66 63.69 67.7 64.11Z" fill="url(#paint0_linear_127_996)"/>
<path d="M54.61 20.98H63.13V29.5C63.13 30.87 64.24 31.99 65.62 31.99C67 31.99 68.11 30.88 68.11 29.5V20.98H76.63C78 20.98 79.12 19.87 79.12 18.49C79.12 17.11 78.01 16 76.63 16H68.11V7.49C68.11 6.12 67 5 65.62 5C64.24 5 63.13 6.11 63.13 7.49V16.01H54.61C53.24 16.01 52.12 17.12 52.12 18.5C52.12 19.88 53.23 20.99 54.61 20.99V20.98Z" fill="url(#paint1_linear_127_996)"/>
<path d="M92.84 37.09H87.22V31.47C87.22 30.1 86.11 28.98 84.73 28.98C83.35 28.98 82.24 30.09 82.24 31.47V37.09H76.61C75.24 37.09 74.12 38.2 74.12 39.58C74.12 40.96 75.23 42.07 76.61 42.07H82.24V47.69C82.24 49.06 83.35 50.18 84.73 50.18C86.11 50.18 87.22 49.07 87.22 47.69V42.07H92.84C94.21 42.07 95.33 40.96 95.33 39.58C95.33 38.2 94.22 37.09 92.84 37.09Z" fill="url(#paint2_linear_127_996)"/>
<defs>
<linearGradient id="paint0_linear_127_996" x1="4.99431" y1="50.48" x2="95.33" y2="50.48" gradientUnits="userSpaceOnUse">
<stop stop-color="#FF4BEA"/>
<stop offset="0.05" stop-color="#FA33EA"/>
<stop offset="0.12" stop-color="#F517EB"/>
<stop offset="0.18" stop-color="#F206EB"/>
<stop offset="0.23" stop-color="#F101EC"/>
<stop offset="0.53" stop-color="#B121EC"/>
<stop offset="0.89" stop-color="#9400FF"/>
<stop offset="1" stop-color="#6A00D7"/>
</linearGradient>
<linearGradient id="paint1_linear_127_996" x1="5.02" y1="50.4631" x2="95.2631" y2="50.4631" gradientUnits="userSpaceOnUse">
<stop stop-color="#FF4BEA"/>
<stop offset="0.05" stop-color="#FA33EA"/>
<stop offset="0.12" stop-color="#F517EB"/>
<stop offset="0.18" stop-color="#F206EB"/>
<stop offset="0.23" stop-color="#F101EC"/>
<stop offset="0.53" stop-color="#B121EC"/>
<stop offset="0.89" stop-color="#9400FF"/>
<stop offset="1" stop-color="#6A00D7"/>
</linearGradient>
<linearGradient id="paint2_linear_127_996" x1="74.13" y1="39.58" x2="95.32" y2="39.58" gradientUnits="userSpaceOnUse">
<stop stop-color="#FF4BEA"/>
<stop offset="0.05" stop-color="#FA33EA"/>
<stop offset="0.12" stop-color="#F517EB"/>
<stop offset="0.18" stop-color="#F206EB"/>
<stop offset="0.23" stop-color="#F101EC"/>
<stop offset="0.53" stop-color="#B121EC"/>
<stop offset="0.89" stop-color="#9400FF"/>
<stop offset="1" stop-color="#6A00D7"/>
</linearGradient>
</defs>
</svg>
