<svg width="100" height="100" viewBox="0 0 100 100" fill="none" xmlns="http://www.w3.org/2000/svg">
<path d="M63.2 56.96C63.2 63.16 58.17 68.19 51.97 68.19C45.77 68.19 40.74 63.16 40.74 56.96C40.74 54.71 41.4 52.61 42.54 50.85C42.54 50.95 42.53 51.05 42.53 51.15C42.53 53.47 44.41 55.36 46.74 55.36C49.07 55.36 50.95 53.48 50.95 51.15C50.95 48.82 49.15 47.02 46.89 46.95C48.42 46.18 50.14 45.74 51.97 45.74C58.17 45.74 63.2 50.77 63.2 56.97V56.96Z" fill="#B6A08C"/>
<path d="M55.4 33.3701C55.4 33.3701 55.4 33.2901 55.4 33.2501V22.7701C55.4 20.8801 53.86 19.3401 51.97 19.3401C50.08 19.3401 48.54 20.8801 48.54 22.7701V33.2501C48.54 33.2501 48.54 33.3301 48.54 33.3701C46.1 33.5401 43.71 33.9101 41.39 34.4401L38.72 24.3101C38.24 22.4801 36.36 21.3901 34.53 21.8701C32.7 22.3501 31.6 24.2301 32.09 26.0601L34.76 36.1901C34.78 36.2701 34.81 36.3601 34.84 36.4401C33.27 37.0501 31.75 37.7401 30.27 38.5001C30.25 38.4701 30.24 38.4401 30.22 38.4101L24.81 29.4301C23.83 27.8101 21.72 27.2801 20.1 28.2601C18.48 29.2401 17.95 31.3501 18.93 32.9701L24.34 41.9501C24.34 41.9501 24.4 42.0301 24.43 42.0701C22.99 43.1001 21.6 44.2101 20.29 45.3901C20.27 45.3701 20.26 45.3501 20.24 45.3401L12.81 37.9501C11.47 36.6101 9.29 36.6201 7.96 37.9701C6.62 39.3101 6.63 41.4901 7.98 42.8201L15.41 50.2101C15.41 50.2101 15.5 50.2901 15.55 50.3301C13.83 52.4001 12.27 54.6101 10.92 56.9501C19.12 71.1201 34.44 80.6601 51.99 80.6601C69.54 80.6601 84.86 71.1301 93.06 56.9501C85.4 43.7101 71.52 34.5201 55.42 33.3701H55.4ZM51.98 75.6901C41.64 75.6901 33.25 67.3001 33.25 56.9601C33.25 46.6201 41.64 38.2301 51.98 38.2301C62.32 38.2301 70.71 46.6201 70.71 56.9601C70.71 67.3001 62.32 75.6901 51.98 75.6901Z" fill="#B2A18F"/>
</svg>
