<svg width="100" height="100" viewBox="0 0 100 100" fill="none" xmlns="http://www.w3.org/2000/svg">
<path d="M65.4661 5.02417C58.2661 5.32417 51.7661 8.52417 46.8661 13.8242L13.8661 50.3242C4.06606 61.2242 4.86606 78.1242 15.5661 88.0242C20.8661 92.9242 27.7661 95.4242 34.8661 95.0242C41.9661 94.7242 48.5661 91.6242 53.3661 86.4242L53.4661 86.3242L86.4661 49.8242C96.2661 38.9242 95.4661 22.0242 84.7661 12.1242C79.5661 7.22417 72.6661 4.72417 65.4661 5.02417ZM49.5661 82.6242C45.7661 86.9242 40.3661 89.4242 34.6661 89.6242C28.8661 89.9242 23.3661 87.9242 19.1661 84.0242C10.4661 76.1242 9.86606 62.5242 17.7661 53.8242L32.5661 37.4242L64.1661 66.4242L49.5661 82.6242ZM49.5661 82.6242C45.7661 86.9242 40.3661 89.4242 34.6661 89.6242C28.8661 89.9242 23.3661 87.9242 19.1661 84.0242C10.4661 76.1242 9.86606 62.5242 17.7661 53.8242L32.5661 37.4242L64.1661 66.4242L49.5661 82.6242ZM82.6661 46.2242L67.8661 62.6242L36.2661 33.6242L50.8661 17.4242L50.9661 17.3242C54.8661 13.1242 60.0661 10.6242 65.7661 10.4242C71.5661 10.1242 77.0661 12.1242 81.2661 16.0242C89.9661 23.9242 90.5661 37.5242 82.6661 46.2242Z" fill="#B2A18F"/>
</svg>
