<svg width="100" height="100" viewBox="0 0 100 100" fill="none" xmlns="http://www.w3.org/2000/svg">
<path d="M50 98C23.53 98 2 76.47 2 50C2 23.53 23.53 2 50 2C76.47 2 98 23.53 98 50C98 76.47 76.47 98 50 98Z" fill="#00D78B"/>
<path d="M50 93.64C74.1017 93.64 93.64 74.1017 93.64 50C93.64 25.8983 74.1017 6.36 50 6.36C25.8983 6.36 6.36 25.8983 6.36 50C6.36 74.1017 25.8983 93.64 50 93.64Z" fill="black"/>
<path d="M49.65 69C47.43 71.5 44.32 72.94 40.97 73.1C37.62 73.25 34.42 72.09 31.95 69.82C26.91 65.2 26.55 57.31 31.14 52.24L39.77 42.7L58.17 59.6L49.66 69.01L49.65 69Z" fill="#00D78B"/>
<path d="M68.87 47.77L60.23 57.31L41.83 40.41L50.34 31C50.34 31 50.38 30.95 50.4 30.93C52.64 28.49 55.7 27.06 59.02 26.9C62.37 26.75 65.57 27.91 68.04 30.18C73.08 34.8 73.44 42.69 68.85 47.76L68.87 47.77Z" fill="white"/>
<path d="M60.78 23.87L65.69 28.38C70.72 32.99 71.05 40.81 66.43 45.83L47.94 65.97C43.33 71 35.51 71.33 30.49 66.71L24.88 61.56C25.12 65.45 26.79 69.25 29.86 72.07C32.94 74.9 36.93 76.35 41.11 76.15C45.25 75.96 49.06 74.18 51.85 71.13C51.88 71.1 51.9 71.07 51.93 71.04L71.14 49.81C76.86 43.49 76.4 33.66 70.13 27.9C67.52 25.5 64.25 24.11 60.78 23.85V23.87Z" fill="#215A51"/>
<path d="M58.89 23.84C54.71 24.03 50.89 25.89 48.07 28.94L28.86 50.17C23.14 56.49 23.6 66.32 29.87 72.08C32.95 74.91 36.94 76.36 41.12 76.16C45.26 75.97 49.07 74.19 51.86 71.14C51.89 71.11 51.91 71.08 51.94 71.05L71.15 49.82C76.87 43.5 76.41 33.67 70.14 27.91C67.06 25.08 63.07 23.63 58.89 23.83V23.84ZM49.65 69C47.43 71.5 44.32 72.94 40.97 73.1C37.62 73.25 34.42 72.09 31.95 69.82C26.91 65.2 26.55 57.31 31.14 52.24L39.77 42.7L58.17 59.6L49.66 69.01L49.65 69ZM68.87 47.77L60.23 57.31L41.83 40.41L50.34 31C50.34 31 50.38 30.95 50.4 30.93C52.64 28.49 55.7 27.06 59.02 26.9C62.37 26.75 65.57 27.91 68.04 30.18C73.08 34.8 73.44 42.69 68.85 47.76L68.87 47.77Z" fill="#00433B"/>
<path d="M33.41 63.8C33.35 63.87 33.27 63.92 33.17 63.95C32.9 64.03 32.61 63.87 32.53 63.6C32.16 62.34 32.1 60.98 32.34 59.69C32.39 59.41 32.66 59.23 32.94 59.28C33.22 59.33 33.4 59.6 33.35 59.88C33.14 61.02 33.2 62.21 33.52 63.32C33.57 63.5 33.52 63.68 33.4 63.81L33.41 63.8Z" fill="white"/>
<path d="M35.67 67.43C35.48 67.64 35.15 67.65 34.95 67.46C34.53 67.08 34.16 66.65 33.82 66.2C33.65 65.97 33.71 65.65 33.93 65.48C34.16 65.31 34.48 65.36 34.65 65.59C34.94 65.99 35.28 66.37 35.64 66.7C35.85 66.89 35.86 67.22 35.67 67.42V67.43Z" fill="white"/>
<path d="M34.14 57.62C33.98 57.79 33.72 57.84 33.51 57.72C33.26 57.58 33.18 57.26 33.32 57.02C33.63 56.48 34.01 55.97 34.43 55.5C34.62 55.29 34.95 55.28 35.15 55.47C35.35 55.66 35.37 55.99 35.18 56.19C34.81 56.6 34.48 57.05 34.2 57.53C34.18 57.56 34.16 57.59 34.13 57.62H34.14Z" fill="white"/>
</svg>
