<svg width="100" height="100" viewBox="0 0 100 100" fill="none" xmlns="http://www.w3.org/2000/svg">
<path d="M49.45 80.3901C45.9 84.3801 40.91 86.7001 35.56 86.9401C30.2 87.1901 25.07 85.33 21.12 81.7001C13.06 74.3 12.48 61.6801 19.82 53.5701L33.63 38.3001L63.07 65.3301L49.45 80.3801V80.3901Z" fill="#00D78B"/>
<path d="M80.19 46.4301L66.37 61.7001L36.93 34.6701L50.55 19.6201C50.55 19.6201 50.62 19.5501 50.65 19.5101C54.24 15.6001 59.13 13.3101 64.44 13.0701C69.8 12.8201 74.93 14.6801 78.88 18.3101C86.94 25.7101 87.52 38.3301 80.18 46.4401L80.19 46.4301Z" fill="white"/>
<path d="M67.25 8.20005L75.11 15.4201C83.15 22.8001 83.68 35.3101 76.3 43.3501L46.71 75.5701C39.33 83.6101 26.82 84.1401 18.78 76.7601L9.81004 68.5201C10.19 74.7401 12.86 80.8201 17.78 85.34C22.71 89.86 29.1 92.1801 35.78 91.8801C42.4 91.5701 48.5 88.7201 52.97 83.8501C53.01 83.8101 53.05 83.7601 53.1 83.7101L83.84 49.7401C92.99 39.6301 92.26 23.9001 82.22 14.6801C78.05 10.8501 72.82 8.62005 67.25 8.21005V8.20005Z" fill="#215A51"/>
<path d="M64.22 8.14005C57.54 8.45005 51.42 11.4201 46.9 16.3101L16.16 50.2801C7.01004 60.3901 7.74004 76.12 17.78 85.34C22.71 89.86 29.1 92.1801 35.78 91.8801C42.4 91.5701 48.5 88.7201 52.97 83.8501C53.01 83.8101 53.05 83.7601 53.1 83.7101L83.84 49.7401C92.99 39.6301 92.26 23.9001 82.22 14.6801C77.29 10.1601 70.9 7.84005 64.22 8.15005V8.14005ZM49.45 80.3901C45.9 84.3801 40.91 86.7001 35.56 86.9401C30.2 87.1901 25.07 85.33 21.12 81.7001C13.06 74.3 12.48 61.6801 19.82 53.5701L33.63 38.3001L63.07 65.3301L49.45 80.3801V80.3901ZM80.19 46.4301L66.37 61.7001L36.93 34.6701L50.55 19.6201C50.55 19.6201 50.62 19.5501 50.65 19.5101C54.24 15.6001 59.13 13.3101 64.44 13.0701C69.8 12.8201 74.93 14.6801 78.88 18.3101C86.94 25.7101 87.52 38.3301 80.18 46.4401L80.19 46.4301Z" fill="#00433B"/>
<path d="M23.45 72.0701C23.35 72.1801 23.22 72.2601 23.07 72.3001C22.63 72.4301 22.18 72.1801 22.05 71.7401C21.46 69.7201 21.36 67.5501 21.74 65.4801C21.83 65.0301 22.25 64.7401 22.7 64.8201C23.15 64.9001 23.44 65.3301 23.36 65.7801C23.02 67.6001 23.12 69.5001 23.64 71.2801C23.72 71.5701 23.64 71.8601 23.46 72.0601L23.45 72.0701Z" fill="white"/>
<path d="M27.06 77.8901C26.75 78.2201 26.23 78.2501 25.9 77.9401C25.24 77.3301 24.63 76.6501 24.1 75.9201C23.83 75.55 23.92 75.04 24.28 74.7701C24.65 74.5001 25.16 74.58 25.43 74.9501C25.9 75.59 26.43 76.1901 27.02 76.7301C27.35 77.0401 27.38 77.5601 27.07 77.8901H27.06Z" fill="white"/>
<path d="M24.63 62.1901C24.38 62.4701 23.96 62.5401 23.62 62.3501C23.23 62.1201 23.09 61.6201 23.32 61.2301C23.82 60.3601 24.42 59.5401 25.1 58.8001C25.41 58.4701 25.93 58.4401 26.26 58.7501C26.59 59.0601 26.62 59.5801 26.31 59.9101C25.71 60.5601 25.18 61.2801 24.74 62.0501C24.71 62.1001 24.67 62.1501 24.63 62.2001V62.1901Z" fill="white"/>
</svg>
