<svg width="100" height="100" viewBox="0 0 100 100" fill="none" xmlns="http://www.w3.org/2000/svg">
<path d="M77.78 40.6699C76.27 40.5899 74.94 41.7899 74.91 43.3099C74.91 43.3499 74.91 43.3999 74.91 43.4399C74.8 45.9199 71.09 45.8799 71 43.3999C70.97 42.4499 70.89 41.4599 70.78 40.3199C70.67 37.2199 69.87 34.2199 68.51 31.5299C67.9 30.3199 68.45 28.8799 69.67 28.2799C72.13 27.0799 73.98 24.8099 74.62 22.0799C74.87 21.0099 74.03 19.9999 72.94 19.9999H70.35C69.49 19.9999 68.86 19.2199 69 18.3799C69.17 17.3899 69.14 16.4999 69.06 15.8099C68.96 14.9999 68.16 14.4599 67.36 14.6599L45.44 20.2299C37.75 21.7599 31.18 27.4799 28.98 35.4199C28 38.9799 27.97 42.5699 28.75 45.9199C29.31 48.3399 27.92 49.4499 25.86 48.0599C25.37 47.7299 25.11 47.1999 24.91 46.6799C24.37 45.1899 22.67 44.4499 21.19 45.1099C19.84 45.7099 19.26 47.3299 19.78 48.7199C21.42 53.1199 25.46 55.6399 30.28 57.3099C32.35 58.0299 35.61 60.3399 36.49 66.0699C37.34 71.5699 32.83 78.7 28.29 79.9699C27.2 80.3499 26.5 80.5099 26.13 80.6099C23.99 81.2099 23.91 84.3699 26.46 84.8199C32.52 86.0499 41.16 85.4899 48.99 81.3399C56.86 77.3499 63.92 69.7799 67.54 60.7199L67.56 60.6699C68.69 58.0199 70.8 55.8999 73.46 54.8099C74.35 54.4499 75.23 53.9599 76.06 53.3099C78.78 51.1699 80.25 47.8799 80.43 43.5399C80.49 42.0199 79.31 40.7299 77.79 40.6699H77.78ZM36.39 33.9199C36.01 32.2699 37.03 30.6199 38.68 30.2399L45.11 28.7399C46.76 28.3599 48.41 29.3799 48.79 31.0299C49.73 35.0599 47.71 38.9699 44.29 39.7599C40.87 40.5499 37.33 37.9399 36.39 33.9099V33.9199ZM64.39 51.4099C62.06 52.6299 40.15 52.6299 37.82 51.4099C35.1 50.4199 39.44 39.8899 51.11 39.7799C62.78 39.8999 67.12 50.4199 64.4 51.4099H64.39ZM57.91 39.7699C54.49 38.9699 52.47 35.0599 53.41 31.0299C53.79 29.3799 55.44 28.3599 57.09 28.7399L63.52 30.2399C65.17 30.6199 66.2 32.2699 65.81 33.9199C64.87 37.9499 61.34 40.5699 57.91 39.7699Z" fill="#3E3935"/>
</svg>
