<svg width="100" height="100" viewBox="0 0 100 100" fill="none" xmlns="http://www.w3.org/2000/svg">
<path d="M48.02 55.0001C36.62 43.3001 35.12 25.6001 43.22 12.0001C44.62 9.70011 42.42 6.90011 39.92 7.60011C21.22 12.7001 7.62 29.4001 7.62 49.3001C7.62 73.2001 27.32 92.5001 51.62 92.5001C69.82 92.5001 85.42 81.6001 92.12 66.1001C93.22 63.6001 90.62 61.1001 88.22 62.2001C74.82 68.3001 58.72 65.9001 48.02 54.9001V55.0001Z" fill="#B2A18F"/>
<path d="M88.32 36.0001C82.12 32.4001 80.02 24.4001 83.62 18.2001C84.52 16.7001 84.02 14.8001 82.52 13.9001C81.02 13.0001 79.12 13.5001 78.22 15.0001C74.62 21.2001 66.62 23.3001 60.42 19.7001C58.92 18.8001 57.02 19.3001 56.12 20.8001C55.22 22.3001 55.72 24.2001 57.22 25.1001C63.42 28.7001 65.52 36.7001 61.92 42.9001C61.02 44.4001 61.52 46.3001 63.02 47.2001C63.52 47.5001 64.02 47.6001 64.62 47.6001C65.72 47.6001 66.72 47.0001 67.32 46.0001C70.92 39.8001 78.92 37.7001 85.12 41.3001C85.12 41.3001 86.12 41.7001 86.72 41.7001C87.82 41.7001 88.82 41.1001 89.42 40.1001C90.32 38.6001 89.82 36.7001 88.32 35.8001V36.0001Z" fill="#B2A18F"/>
</svg>
