<svg width="100" height="100" viewBox="0 0 100 100" fill="none" xmlns="http://www.w3.org/2000/svg">
<path d="M48.24 54.34C38.26 44.09 36.93 28.6 44.04 16.68C45.23 14.68 43.36 12.24 41.11 12.85C24.82 17.28 12.87 31.94 12.87 49.35C12.87 70.27 30.13 87.22 51.42 87.22C67.37 87.22 81.06 77.7 86.92 64.12C87.86 61.95 85.62 59.73 83.47 60.72C71.76 66.08 57.59 63.94 48.24 54.33V54.34Z" fill="#D6FE04"/>
<path d="M83.54 37.72C78.11 34.54 76.28 27.57 79.46 22.14C80.23 20.83 79.79 19.14 78.48 18.38C77.17 17.61 75.48 18.05 74.72 19.36C71.54 24.79 64.57 26.62 59.14 23.44C57.83 22.67 56.14 23.11 55.38 24.42C54.61 25.73 55.05 27.42 56.36 28.18C61.79 31.36 63.62 38.33 60.44 43.76C59.67 45.07 60.11 46.76 61.42 47.52C61.86 47.78 62.34 47.9 62.81 47.9C63.76 47.9 64.67 47.41 65.19 46.54C68.37 41.11 75.34 39.28 80.77 42.46C81.21 42.72 81.69 42.84 82.16 42.84C83.11 42.84 84.02 42.35 84.54 41.48C85.31 40.17 84.87 38.48 83.56 37.72H83.54Z" fill="#D6FE04"/>
</svg>
