<svg width="100" height="100" viewBox="0 0 100 100" fill="none" xmlns="http://www.w3.org/2000/svg">
<path d="M50 98C23.53 98 2 76.47 2 50C2 23.53 23.53 2 50 2C76.47 2 98 23.53 98 50C98 76.47 76.47 98 50 98Z" fill="#D6FE04"/>
<path d="M50 93.64C74.1017 93.64 93.64 74.1017 93.64 50C93.64 25.8983 74.1017 6.35999 50 6.35999C25.8983 6.35999 6.35999 25.8983 6.35999 50C6.35999 74.1017 25.8983 93.64 50 93.64Z" fill="black"/>
<path d="M48.9 52.71C42.67 46.31 41.83 36.62 46.27 29.17C47.02 27.92 45.85 26.39 44.44 26.78C34.26 29.55 26.79 38.71 26.79 49.59C26.79 62.66 37.58 73.26 50.88 73.26C60.85 73.26 69.41 67.31 73.07 58.82C73.65 57.46 72.26 56.08 70.92 56.69C63.6 60.04 54.75 58.7 48.9 52.7V52.71Z" fill="#D6FE04"/>
<path d="M70.96 42.33C67.57 40.34 66.42 35.98 68.41 32.59C68.89 31.77 68.61 30.72 67.8 30.24C66.98 29.76 65.93 30.04 65.45 30.85C63.46 34.24 59.1 35.39 55.71 33.4C54.89 32.92 53.84 33.2 53.36 34.01C52.88 34.83 53.16 35.88 53.97 36.36C57.36 38.35 58.51 42.71 56.52 46.1C56.04 46.92 56.32 47.97 57.13 48.45C57.4 48.61 57.7 48.68 58 48.68C58.59 48.68 59.17 48.37 59.48 47.83C61.47 44.44 65.83 43.29 69.22 45.28C69.49 45.44 69.79 45.52 70.09 45.52C70.68 45.52 71.26 45.21 71.57 44.67C72.05 43.85 71.77 42.8 70.96 42.32V42.33Z" fill="#D6FE04"/>
</svg>
