<svg width="100" height="100" viewBox="0 0 100 100" fill="none" xmlns="http://www.w3.org/2000/svg">
<path d="M79.03 5H20.97C12.15 5 5 12.15 5 20.97V79.03C5 87.85 12.15 95 20.97 95H79.03C87.85 95 95 87.85 95 79.03V20.97C95 12.15 87.85 5 79.03 5Z" fill="#FF8000"/>
<path d="M40.26 78.94C38.4 78.94 36.54 78.23 35.13 76.81L15.66 57.34C12.83 54.51 12.83 49.91 15.66 47.08C18.5 44.25 23.09 44.25 25.93 47.08L40.27 61.42L74.08 27.61C76.92 24.78 81.51 24.78 84.35 27.61C87.18 30.44 87.18 35.04 84.35 37.87L45.41 76.81C43.99 78.23 42.13 78.94 40.28 78.94H40.26Z" fill="white"/>
</svg>
