<svg width="100" height="100" viewBox="0 0 100 100" fill="none" xmlns="http://www.w3.org/2000/svg">
<path d="M50 98C76.5097 98 98 76.5097 98 50C98 23.4903 76.5097 2 50 2C23.4903 2 2 23.4903 2 50C2 76.5097 23.4903 98 50 98Z" fill="black"/>
<path d="M82.22 43.01C79.44 40.44 75.59 36.52 72.46 33.74L72.27 33.61C71.96 33.36 71.61 33.17 71.24 33.04C63.69 31.63 28.53 25.06 27.84 25.14C27.65 25.17 27.46 25.24 27.3 25.34L27.12 25.48C26.9 25.7 26.74 25.97 26.64 26.26L26.59 26.38V27.14C30.55 38.16 46.18 74.26 49.25 82.74C49.44 83.31 49.79 84.41 50.45 84.46H50.6C50.95 84.46 52.45 82.48 52.45 82.48C52.45 82.48 79.29 49.93 82.01 46.46C82.36 46.03 82.67 45.57 82.94 45.09C83.08 44.32 82.8 43.53 82.21 43.01H82.22ZM59.36 46.8L70.82 37.3L77.54 43.49L59.36 46.8ZM54.91 46.18L35.19 30.01L67.1 35.9L54.91 46.18ZM56.69 50.42L76.88 47.17L53.8 74.98L56.69 50.43V50.42ZM32.5 31.63L53.25 49.24L50.25 74.99L32.5 31.63Z" fill="#FD050C"/>
</svg>
