<svg width="100" height="100" viewBox="0 0 100 100" fill="none" xmlns="http://www.w3.org/2000/svg">
<path d="M70.52 65.27L89.24 45.06C89.43 44.85 89.51 44.59 89.66 44.36C89.66 44.35 89.68 44.33 89.69 44.32C89.84 44.08 90.05 43.87 90.16 43.62C90.18 43.57 90.19 43.51 90.21 43.46C90.32 43.17 90.35 42.87 90.41 42.56C90.47 42.26 90.57 41.98 90.57 41.67C90.57 41.64 90.59 41.62 90.59 41.59C90.59 41.56 90.58 41.54 90.57 41.51C90.57 41.21 90.47 40.92 90.41 40.62C90.35 40.32 90.33 40.01 90.21 39.72C90.19 39.67 90.18 39.61 90.16 39.56C90.05 39.31 89.85 39.1 89.69 38.87C89.68 38.85 89.67 38.83 89.65 38.82C89.5 38.59 89.42 38.33 89.23 38.13L70.51 17.92C68.59 15.85 65.37 15.73 63.3 17.64C62.21 18.64 61.67 20.01 61.67 21.38C61.67 22.62 62.12 23.86 63.02 24.85L73.81 36.5H49.37C46.55 36.5 44.27 38.79 44.27 41.6C44.27 44.41 46.55 46.7 49.37 46.7H73.81L63.02 58.35C62.11 59.33 61.67 60.57 61.67 61.82C61.67 63.19 62.21 64.56 63.3 65.56C65.36 67.47 68.59 67.35 70.51 65.28L70.52 65.27Z" fill="#3D3935"/>
<path d="M29.48 34.73L10.76 54.94C10.57 55.15 10.49 55.41 10.34 55.64C10.34 55.65 10.32 55.67 10.31 55.68C10.16 55.92 9.94997 56.13 9.83997 56.38C9.81997 56.43 9.80997 56.49 9.78997 56.54C9.67997 56.83 9.64997 57.13 9.58997 57.44C9.52997 57.74 9.42997 58.02 9.42997 58.33C9.42997 58.36 9.40997 58.38 9.40997 58.41C9.40997 58.44 9.41997 58.46 9.42997 58.49C9.42997 58.79 9.52997 59.08 9.58997 59.38C9.64997 59.68 9.66997 59.99 9.78997 60.28C9.80997 60.33 9.81997 60.39 9.83997 60.44C9.94997 60.69 10.15 60.9 10.31 61.13C10.32 61.15 10.33 61.17 10.35 61.18C10.5 61.41 10.58 61.67 10.77 61.87L29.49 82.08C31.41 84.15 34.63 84.27 36.7 82.36C37.79 81.36 38.33 79.99 38.33 78.62C38.33 77.38 37.88 76.14 36.98 75.15L26.19 63.5H50.63C53.45 63.5 55.73 61.21 55.73 58.4C55.73 55.58 53.45 53.3 50.63 53.3H26.19L36.98 41.65C37.89 40.67 38.33 39.43 38.33 38.18C38.33 36.81 37.79 35.44 36.7 34.44C34.64 32.53 31.41 32.65 29.49 34.72L29.48 34.73Z" fill="#3D3935"/>
</svg>
